/* XPM */
static char *_____________[] = {
/* columns rows colors chars-per-pixel */
"64 64 90 1",
"  c #0C2C05",
". c #0B2D0E",
"X c #142D05",
"o c #1B2D05",
"O c #142D0A",
"+ c #1A2E0D",
"@ c #0B3105",
"# c #153105",
"$ c #1C3205",
"% c #1C3905",
"& c #15310C",
"* c #1C320B",
"= c #14380C",
"- c #1D3A0C",
"; c #1A3010",
": c #1D3F13",
"> c #222E05",
", c #202F0A",
"< c #233405",
"1 c #293505",
"2 c #243905",
"3 c #2B3B05",
"4 c #24340B",
"5 c #2A350C",
"6 c #24390C",
"7 c #2B3B0C",
"8 c #323E05",
"9 c #383F06",
"0 c #31370B",
"q c #323E0C",
"w c #3B3F08",
"e c #233611",
"r c #243B12",
"t c #2B3D11",
"y c #323F11",
"u c #244406",
"i c #2D4305",
"p c #2E4805",
"a c #22440C",
"s c #2D430C",
"d c #26480C",
"f c #344405",
"g c #394605",
"h c #354A05",
"j c #3A4C05",
"k c #34440C",
"l c #39450C",
"z c #354B0C",
"x c #3A4C0C",
"c c #365205",
"v c #3D5305",
"b c #3E5A05",
"n c #36510B",
"m c #3D530C",
"M c #3E5A0C",
"N c #264413",
"B c #2D4311",
"V c #334412",
"C c #394513",
"Z c #354B12",
"A c #3B4D12",
"S c #364D1A",
"D c #3B4C1A",
"F c #375112",
"G c #3D5313",
"H c #3E5A13",
"J c #375019",
"K c #3D541B",
"L c #3F5B18",
"P c #3F6205",
"I c #3D600D",
"U c #3E6114",
"Y c #3F6119",
"T c #3E5320",
"R c #404E05",
"E c #404F0C",
"W c #405405",
"Q c #405B05",
"! c #40550C",
"~ c #405A0C",
"^ c #405513",
"/ c #405B14",
"( c #40551A",
") c #405C1A",
"_ c #406206",
"` c #40610C",
"' c #406115",
"] c #40631B",
"[ c #405D20",
"{ c #406522",
/* pixels */
"m!vvz 7vjhjvlvvvUdN%MzlfM/ O$t<h```%X232Exkllo$zKAlEZ2AvG3ix!v~b",
"mhmjxZzj!hjjllGPPI%niFmj//BA<78qXpB6=$Vsll8fg<$DFmjE<<7m^il7hjx3",
"j^//jmx!!RRW!8$)MM<hi<])~~u/z#C87t$$%#%3jl3<lkt$G!WWx6tZf33<)z<<",
"m~!i^zljRjjW!hGAff$lA3]/M~G]' 85<kh7suiih17<jA3Z/^xgk7<OoGi72Ls5",
"/mL]zsfjjWRWWjjxxxAikk'/m)YUYz83wlxAhhhxlk5lzjGm~Gl858q$<OOts<kq",
"GGZG SjjRWj!RRmgjl713$''H]UUG0q88gxgmjmZ3<18jvMMbmgwg8wl$oBFzk3t",
"mhZ)# jjjWjvEjjx<3k3fz'/'HYH<18wgxjHmj2%7Cf!z~MbbmhlggzA7*#Gmxxk",
"kxG)%&$mWvvvm!j832k3ggzH)]YU)x8l8x/HmmX-$^hvv~bvcM~mgljx<e2sGmGZ",
"67k^%.o3v!vjMbfl8<z<xl^xUH'/MH8wgg///zX XGv!vbbcnM`Mgxvk1osXmHFA",
"$&<K3+oKj!vv~j188k<D8l1)M/~~MG8wRRmH)o$-zGg^bbcbcbQjlhxA247AxHG)",
"]6$sk<OXfA!b3k380q1o0f0xM~/Q~2lljjM)HXKo~!ffbPbcvb~lfgAi5>fjm'//",
"HL337s1$of8hk17088k1k001zM~u58fx!fv)]mxojjfHMbbcbn613wf!!82GY])M",
"H)ikf32Zi7s31<113q53q>55<G^<<igGxf~vhcx$xE8f~/MMbM21<luxvhKm{]__",
"cH)7VZ36Zsk7<51k11313<1q5k3323A<1^`~gMiGRjGf3eMcbK%s18l<M~L]]]cb",
"/H)k7s^$sjzz7A31<313137f3kzfgls<ZHmczhfmQ//FaO<6%$<X3m31mM'MH'H~",
"/)FKf!v~mkhfs7775q011k8xz^jj~f<o//FjzvgH~f1H% %o467-Fvmx/zH/'/M/",
"GH)HmMvWvkmc$7<B55qqExf8jvjjvGozmmxl/Mmu/CkHi&<4<7<F~WjhH%]m'M/u",
"Gh)LmvvW~<mG%-72<733kxl8vQvmbv4!j3hjGUUU^1fmvnx3771mWvvvLLLnmM<<",
"MMmHMMbMbhmo&$*<7qq153f3QQWWbv<vvx/j2`MY'mmM~~!3187!vWv]HYY')MZ$",
"MHmUMvQ~b)6*e4<637354<3mWbQQb!GWmMvA3Mv'M')m3vv1117!v~vmYY]H/mm)",
"m/H/mmM_IH7%2H27<<<s>4<!vb~QMgjQ~!hz%McMUUM)g^^87153~WjmHULmzG)'",
"^H))/!MbMiLYYHvusT<<<13!jb~Q~M!vmG/jBMU'UMQH811t535^vWvvmmY[<$/'",
"MHlFLksmbzYUU{]giX$q8043W~vQ~bbMxjhlfnM)u'zsCg5<03xW!!~vmv3i611H",
"M]<V3$ %HdUMY=izzzB7qf@FWQQQMQb3fjj!ja2<-*X$*hXskWW!Wv!!m2XX=#-M",
"Hk0Dk4 $ozUuL 7zzxZ38wX%~MbQMI/>EjRRE3k2$*$$e<#&jWWvvW~jmmXO  %M",
"615<Bo4r4Lf3oe1xzul8qlo%+h`_bvi3lEEjW!2p#*&t*<Jkj!!vh~vm~Ws@XX3z",
"X1<52<645A<7o2<kkkhCV2'Pf!/~b~gxEW!Rviqi%#$$X#z W!vlAazmvW% 2X$-",
"4f3Ch<264A7%o663kxxC*mQPbj^Zg^jEWWWR/3lu33%sX.%klfml<:2mvxzXuX<X",
"7!!v!o2<4qV5to72zzlf$/Q_jv!5EjggjWvj3i3s7i6<6 X+skH23 KhjWme<<<5",
"vvxWj<3<25$1<538lzlv3v_`jvWo<gE8E!!f6lfiu3o3X*<:$Hbkf <vmMp4<k^)",
"/MhjW2ivAo28V72lAlhRvvQvhjzoBlhC8gfsXfffii<h%$1%#Mbhfthvvb7<<<<h",
"3vj!v!~^3<232s3x11Ej!jQ~!8o&mjjf8kglVlu3kckQm71*omGfg28!Hv$<<4<h",
"c!jvvM^>7yqj881888RER!~~hx2og!Ql88kf<!~~jvvv!kV$$ig8gk37$pe<<$<g",
"7<^vcsZ151fjfgligfWEjxb`^j!hjv^^kt3hhM!!j!~jAv<B6lhljh!kmj6r$%2A",
"<3hK2s<<5^!WjlCHHf^RWgbMx!xfW!jhsVhvvMvv!jmo4fx3iwhgg/Q1xx#X%Xmx",
"<LH<1z<<5vQvv!3M`M3jRkH$1<<8RjvmV6AmhM//Mv!X<mmuVllgEgQ8i% :#&mG",
"K/G<7<<14v!WW~GMPb/^g<3$57q3G!Wzo<qimHM/^jh6Xv!u81hll3h3jG%=##nM",
"GH/<7500<^gv~i7hbI~2f<3*2q8x!vvA<6kxmxM/GsqXtMWvj<7f1l<3zMG=XJGM",
"(/^/(05<<G3!Qu<lMI/~7gt<<V1^xbmjC-tDHjxzk$sgfvW!jh58lg8^H~Z@amhM",
"H//G^1155XojWi7^_`b/1gfl<$0kivHv<$%3fhzVux8Eh~Qjmg18gflg~QG $m!v",
"H/HGA31y5<exx31jMmc/1l9lVVk3CxXs<k3KjGm$ihgjx8!~hf8lggglmm2##dvv",
"H^/Koy705t5t30qg!!W^3glglCfAk8sbjjLv!H)vfjxj!hjj!810kffq7xzm#Kv~",
"H//G2VtVyytt5C8j~jG18ljhlo<<hxoH!j8vMmhbhGj~W!vm!05t0kkEGgjlzF3A",
"^(^(2yV557525q8xfx3klxg8k<2<A^zv!<4^GvbMQv~QQv!h!17<151fGflgfF!<",
"GGGK[Cyyy3$41y0llg1gZsxxxqqq<H)!mC4<2mMbQ~Mbjv!gj8015<3GAfqglhnf",
"K2fs1yyyyV<<0w8ggw13X7$Z10k83bhh3224smM~QQQzv~H3l718508(z<qgf3Si",
"32sG0Cyy5V(8qq7ggl73<vmX;kg8zbm^xt<<ib_QbMbofvlx13y110g2ztqkgk+<",
"kBlAlq00qkkq015xglq<vWvz<xvj!b~hhgfs2H~QQ`pJ<gz^G58q3007k7zlhf$$",
"hikfl833!hm3s3<kgkf7GbbbiR!RvQW~gglg<$2hQ`%%2lgxb^f1k808qllxhji1",
"jzs$~303fAiiqgLZfCls2MMQvvW!mv!x3fflf3<#b'<<7AxMG~<371w13ljAj!80",
"mfg<v7<k3<kljjMKA<MGnuQhWxxjjvmxglf3fksk~2#*BXFmmvo757q17kvjhMlg",
"^i3mbX+Al%zmvzs=kAMHGn~3W!RRm~/hjllggg3g<75<tX%3AC<54<q1<<vvj8l8",
"8lmvv#XAx$gWEv<OhzHHFmz>^Whmm~mj!gfEhgxhK<hg1<2sjxsi$<0l$kGG3qfk",
"u3!WbX&AmKxEjgz 21GMHFC>2xU2//!jffklljW!mmWMm!h3z<Z<$o8k<j$$qwg8",
"Xhx^M++zGG^f!v!tX>HmHzk3V</M2mMvmglffWvQ%^vQbQ~iA244qAzjAx<*q8gR",
"27<~o63Z^Kx8j!l4s$J-Fnxkl1vc$j~MMMhffvvv1vQQ~bv21luff!!~cvA*5D^!",
"2Kz<7lkE^Ghlm!g<k#X$JpA88fjjVx~b~MhlkMvbkvbMb~Q35^Q/~vvMxh5&<sxm",
"&jvAmxo^!Gxx^^V<s5o6zzzflgvxxv~QvMmx8M~b<MHcvMQK72v$vbbQzgf55zhv",
"%jmAcjx/mm^/^E<73<6lGxkkzxjmvjvQQb!3f~`b<##bb$M<1$26hvQhkAhExv!M",
"jMGzmjxXs^~MmKV3s #izjjk1AmA~GjWQQmxMbMP%X&H~7<k1<*212/<fvgj!v!!",
"jG^jg!x<<lv!!Eli7$$zf27<zAFmHM~QQ!~hjbMc#$622x<15<6*Xl51g!gjWQv<",
"GGA!jh3GCxhghEjlz2AjgzV<lxGmmGMWQM~mhbMi2<4Ghmf(<&* Vq<DjEhj!Q~!",
"<gEEl^vMffgxM)ghG<Fmjq353lxmmhi~QQbmvmHsa<1GxGGi<4$Sk73fvWWWW!vv",
"sfgxvfMbhh^!MGKmi%ufI235u8if/H3QW~p$F2X%<a6pmnh21<q1l<Zh33!~j~vh"
};
