/* XPM */
static char *g2bxc_adq7j[] = {
/* columns rows colors chars-per-pixel */
"64 64 256 2 ",
"   c #37322B",
".  c #463A2B",
"X  c #483E31",
"o  c #523E1F",
"O  c #55491E",
"+  c #5D531C",
"@  c #66581A",
"#  c #795818",
"$  c #704F13",
"%  c #6D6319",
"&  c #786815",
"*  c #7B7218",
"=  c #78650E",
"-  c #4D432C",
";  c #4E4225",
":  c #52452D",
">  c #554A2D",
",  c #584A26",
"<  c #5B5226",
"1  c #4D4233",
"2  c #4F4638",
"3  c #524633",
"4  c #554A33",
"5  c #5A4D35",
"6  c #514739",
"7  c #554A3B",
"8  c #5A4E3A",
"9  c #5D5036",
"0  c #5D513A",
"q  c #5F5834",
"w  c #644D26",
"e  c #675828",
"r  c #795728",
"t  c #645335",
"y  c #62553C",
"u  c #6C5A3C",
"i  c #695738",
"p  c #725D35",
"a  c #735E3B",
"s  c #7A5C33",
"d  c #684E31",
"f  c #766628",
"g  c #75613D",
"h  c #7B633D",
"j  c #786134",
"k  c #766D2F",
"l  c #594F40",
"z  c #5E5242",
"x  c #5F5845",
"c  c #53514D",
"v  c #625544",
"b  c #655946",
"n  c #6A5B44",
"m  c #665948",
"M  c #6A5D4B",
"N  c #6F5F46",
"B  c #6D614D",
"V  c #736142",
"C  c #70624F",
"Z  c #7D6845",
"A  c #6E6250",
"S  c #726451",
"D  c #756956",
"F  c #776C59",
"G  c #7D735B",
"H  c #7E786E",
"J  c #9C580D",
"K  c #895A19",
"L  c #915E1A",
"P  c #8B770B",
"I  c #876719",
"U  c #99691D",
"Y  c #887612",
"T  c #98771C",
"R  c #92700B",
"E  c #A57509",
"W  c #A27B1C",
"Q  c #B26E0B",
"!  c #885C27",
"~  c #8A6726",
"^  c #956826",
"/  c #8B742A",
"(  c #977728",
")  c #866A3A",
"_  c #96763C",
"`  c #8D7636",
"'  c #A47824",
"]  c #A2752F",
"[  c #D17908",
"{  c #846C45",
"}  c #887746",
"|  c #997946",
" . c #857757",
".. c #987D55",
"X. c #837B62",
"o. c #827E7A",
"O. c #96870A",
"+. c #99861A",
"@. c #938A0E",
"#. c #A78A08",
"$. c #B68A09",
"%. c #A99708",
"&. c #B4970A",
"*. c #A78B1B",
"=. c #AA9616",
"-. c #B39518",
";. c #B38717",
":. c #B9A607",
">. c #B7A616",
",. c #B3AA14",
"<. c #9B8629",
"1. c #968B2F",
"2. c #A58828",
"3. c #AA9626",
"4. c #B29627",
"5. c #A6833A",
"6. c #B19331",
"7. c #B8AA2D",
"8. c #C98907",
"9. c #D38704",
"0. c #C99909",
"q. c #D69907",
"w. c #E78C03",
"e. c #EB9B02",
"r. c #E79703",
"t. c #F09D03",
"y. c #C9A907",
"u. c #DAA707",
"i. c #C8B807",
"p. c #D7B804",
"a. c #C7B813",
"s. c #DBB618",
"d. c #CFAB17",
"f. c #ECA402",
"g. c #E5AB02",
"h. c #ECAB02",
"j. c #E3A708",
"k. c #F1A702",
"l. c #EDBB02",
"z. c #E6B706",
"x. c #F3B403",
"c. c #F3BC02",
"v. c #F5BA07",
"b. c #EAB916",
"n. c #C5B82C",
"m. c #D8C805",
"M. c #D5C716",
"N. c #D4CA0B",
"B. c #EAC402",
"V. c #EBCB02",
"C. c #E3C906",
"Z. c #F4C402",
"A. c #F5CC03",
"S. c #F9CB03",
"D. c #F9C406",
"F. c #E9D705",
"G. c #F4D403",
"H. c #F9D502",
"J. c #F4DB03",
"K. c #FCDB02",
"L. c #F6D70C",
"P. c #E7C716",
"I. c #F7CC13",
"U. c #E8D815",
"Y. c #FADB14",
"T. c #EEE105",
"R. c #F4E303",
"E. c #FDE304",
"W. c #FDEB03",
"Q. c #FEEA0C",
"!. c #F7E808",
"~. c #FFF304",
"^. c #FEF30C",
"/. c #FDE414",
"(. c #F5EB15",
"). c #FEEA14",
"_. c #F6E717",
"`. c #FFF314",
"'. c #FFF417",
"]. c #ECE114",
"[. c #D5C83C",
"{. c #D4CB2F",
"}. c #ECD62C",
"|. c #F4E635",
" X c #F7EA25",
".X c #948453",
"XX c #A98E4A",
"oX c #898167",
"OX c #958B74",
"+X c #9A9177",
"@X c #A99569",
"#X c #A7987B",
"$X c #B09668",
"%X c #B6A478",
"&X c #BAAA6D",
"*X c #B1A752",
"=X c #C1B56A",
"-X c #C5B959",
";X c #D3C855",
":X c #E7DA46",
">X c #EADC5D",
",X c #F6EB44",
"<X c #F5E645",
"1X c #F8EF50",
"2X c #D8CE75",
"3X c #E8D96C",
"4X c #ECDC76",
"5X c #F3E46E",
"6X c #F5EB6E",
"7X c #F8E96A",
"8X c #FFFA6D",
"9X c #FEF57C",
"0X c #F1E871",
"qX c #A79A83",
"wX c #B8AA89",
"eX c #B7AB8D",
"rX c #BFB4A4",
"tX c #C5B999",
"yX c #C5BA88",
"uX c #C6BAA3",
"iX c #DED48A",
"pX c #CCC297",
"aX c #D7CB98",
"sX c #DACA83",
"dX c #EADA8C",
"fX c #E7D99B",
"gX c #F1DF8E",
"hX c #F6E88C",
"jX c #FEF68C",
"kX c #FFFB8B",
"lX c #F6EA96",
"zX c #FFF997",
"xX c #EBE190",
"cX c #D6C9A9",
"vX c #DDD2AB",
"bX c #DACBB3",
"nX c #DDD2BB",
"mX c #CEC5A1",
"MX c #E5D9AA",
"NX c #E7D9B6",
"BX c #F1DEAD",
"VX c #EEE3A5",
"CX c #F6E8A7",
"ZX c #FEF9A7",
"AX c #EEE1BC",
"SX c #EDE4B5",
"DX c #F5EAB9",
"FX c #FDF5B6",
"GX c #E9D9C1",
"HX c #F1DEC2",
"JX c #F3E4C2",
"KX c #F6EBC3",
"LX c #F9EDC3",
"PX c #F8EFC9",
"IX c #FDF3C3",
"UX c #FFF9C4",
/* pixels */
"1 2 X 6 7 7 6 7 7 7 7 7 7 8 8 l 8 z l z l z l l l l l l 7 l l l z z m v v z m b v m n m m z m m M m m v m m l l z z v z v z 7   ",
"1 H c l v v v M M M S D S D A S C C C M M M M M M M b m M m M M m m m n m M m M m C A M A M M M C C M M M M B A A A m v v o.M   ",
"2 2   l z v n n M n M M C S S S S D S B A M M M m v z z v v m v v v n n m m M C C M B b M M M m n n m v v m m M m z l z m 6     ",
"2 7 7 7 z z v 1 ! ! ^ ~ j M n ~ ! ^ ( ' ^ ) W W W W L L U ' W W ! h z v z 4 K ' 2.*.+.U n v v O # # L K I ~ ^ ` I # K d l b z . ",
"2 l z 5 8 8 0 o J [ u.0.( n t 8.w.w.k.x.c.v.c.c.c.k.k.t.w.k.k.w.Q a 8 y 8 o [ S.K.K.K.d.i x : #.A.e.u.d.d.s.s.s.s.8.8.' b v v 1 ",
"2 z 8 4 5 5 5 o J [ d.u.W n 9 $.k.t.t.Z.Z.Z.S.S.Z.x.Z.Z.k.f.e.9._ O d 8 5 O g.c.E.E.K.2.9 z ; i.W.D.v.P.s.b.b.s.b.8.0.` z v v 3 ",
"2 m z 7 5 4 4 o Q Q r.x.0.a t & g.c.f.Z.S.S.A.A.A.Z.S.A.k.g.u.2.4 R h 8 7 O z.A.H.W.R./ 5 0 ; i.~.Z.v.D.Y.I.b.b.s.[ Q _ 8 v b 1 ",
"2 m m z 5 5 5 - d.[ w.x.g.I t > E u.h.Z.A.G.G.G.G.A.Z.x.Z.g.;.a = &.j 9 5 O p.J.S.W.~.( 5 5 1 @.J.v.v.I.I.Y.I.b.9.Q ] i 8 v m 1 ",
"2 M M v 8 8 8 4 W r.[ e.f.8.< 5 ; P C.A.l.l.Z.Z.B.Z.A.J.N.4.} 4 T +.) 0 5 - :.T.G.H.W.=.5 5 5 > %.g.h.I.S.I.I.h.Q ] ) 5 l m m 3 ",
"2 b b 0 5 5 8 8 + q.[ r.k.h.&., 4 4 f %.&.y.p.p.m.i.a.4._ N 0 q u y y 0 8 4 Y U.J.A.J.y.i 5 5 5 > I $.u.s.u.9.Q ] h : 7 z m m 3 ",
"7 b m v 0 8 8 8 4 I 9.x.K.W.R.i.< 5 5 9 p j / / / ) Z a 0 y q x 8 4 5 0 q 8 4 %.].G.G.C.p 0 t 5 0 5 i f ~ ~ ~ h d : 3 5 l v m 3 ",
"7 b b v v t 5 5 5 : E u.K.~.W.!.N.@.< - > 0 t 8 5 5 0 0 0 0 > + @.%.%.: - < 8 4 ,.].V.T.=.t 8 9 9 9 0 5 4 : : 5 7 4 4 5 z v m 1 ",
"7 b v 7 1 1 4 5 5 4 O $.l.~.~.'.~.(.F.:.O.* & Y P = i 0 5 , %.F.J.R.T.i.N.N.* 0 + N.F.R.F.p 5 9 5 8 5 5 5 5 8 5 3 5 4 7 8 v m 3 ",
"7 m m $ E E # O 4 5 8 , %.V.~.Q.`.^.`.!.F.F.T.F.m.5.y 5 + i.!.W.!.W.!.T.(.!.M.k 7 ,.F.T.T.+.5 5 4 ; ; : - ; @ +.#.i d 4 l v v 3 ",
"7 m m I z.x.g.q.Y - 9 9 O :.R.~.~.`.~.T.F.(.(.].>.) 5 - ,._.'.).(.(.(.(.]. XU.1.0 * U.T.T.,.t : O i.N.i.a.M.U.(.B.j 8 7 l v m 3 ",
"l m b I c.Z.Z.x.V.#.9 9 5 % p.E.~.~.).U.|.|.,X[.XXy 9 k :X,X,X,X,X,X,X,X,X<X:XXXb < [.|. Xa.p > O T.~.'.`.'.'.Q.Y.+.d 4 7 v m 3 ",
"7 m b I Z.S.c.k.H.C.P 0 9 - %.F.R.).}.:X7X7X5X-X} y 4 -X3X6X6X6X5X5X5X4X5X5X2XXX0 q >X>X:X{.g 8 ; m.~.`.^.`.`.`.Q.p.< 4 3 z m 6 ",
"7 m b U Z.S.c.h.S.J.i.j 5 5 * F.U.|.>X5X9XhXhX&XZ y 0 sXxXxXgX2X*X&XdXlXgX2X&X| 9 } dXdX3X;X) 9 ; N.~.~.`.`.Q.E.K.x.[ $ 1 z m 4 ",
"7 m m I c.S.k.h.Z.J.m.( 0 0 < M.}.>X4XhXlXCXVX$XV y A fXCXCXaX$X{ 4 .X=X=X$X| u 1 %XfXfXiX=X) 9 + m.~.~.W.W.E.S.x.k.v.g.~ z m 7 ",
"7 m m @ l.Z.h.h.l.E.F.2.y y > M.1X0XhXlXCXCXBX&XV y S VXDXCXvX{ y 8 y N { V 0 : X.vXMXMXaX=X) 5 + m.T.!.K.H.S.Z.S.H.S.c.W z n 7 ",
"l m m & l.Z.f.h.l.A.F.2.y y 3 n.>X2XsXaXvXMXAX%Xg y m vXKXDXNXtXb 0 n N y 5 : OXbXnXnXnXVX$Xg 4 +.F.T.T.F.E.!.Y.H.A.z.g.T l m 7 ",
"7 m M T Z.c.e.g.l.B.i.] q 0 > 3.*XXX} h Z .XqXqXh y 4 mXJXJXHXDXmXX.B 8 x X.tXbXnXGXGXNXaXXX9 : 7.(.~.T.G.F.!.V.y.;.2.~ t b M z ",
"l m M U f.r.j.x.l.z.-.Z 9 0 q } ) t 9 5 5 5 q Z h 0 7 OXAXKXHXIXIXDXSXMXNXAXGXGXJXJXGXbX&Xh 5 e >X X(.T.J.C.p.-.` s 9 9 y m M v ",
"l v C # [ r.x.L.G.a._ 0 0 0 0 q 3 : B G F z 4 5 0 0 0 0 tXAXHXLXUXUXUXPXJXGXGXKXKXKXNXwX} q - *X,X X(.(.T.y.] h 5 4 X o 3 z M v ",
"6 v A 7 K Q i.y.3._ t 8 q 8 8 - } 2XfXMXSXvXeXl 9 9 9 0 x rXnXJXKXIXJXGXGXHXKXKXKXNXeX| i 8 4 .X:X(.(.].a.5.u 0 : @ #.0.I z M v ",
"6 v M m 5 i s g i 8 0 5 4 8 - 1.3XlXFXDXLXKXAXtX0 9 0 7 5 z qXbXnXGXGXGXHXKXKXHXcX%X| i 5 5 5 4 k M.!.N.5.y 0 : R p.l.k.W y M v ",
"6 v m v > : 4 9 8 4 3 > 8 8 * :X9XlXCXFXKXKXLXAX#Xt 0 8 8 0 8  .qXrXcXbXnXvXuX%X.X) 8 1 y 0 4 4 7 % N.-.h 0 4 P g.Z.x.k.U z m v ",
"6 v v ^ Q O.* @ & O.O.p 0 - a.,X9XhXFXDXIXKXLXJXrXg 4 7 9 8 0 y 0 N D ...X| { h y 5 1 G aXyXy 5 q 7 % 5.y 0 @ p.h.f.f.w.U l m v ",
"7 v n U w.v.G.V.V.l.$.Z 0 + U.,X3X2X&XSXKXKXIXJXtX{ 3 qXuXG y y 0 y t 8 0 0 0 0 3 0 qXbXSXVX=Xq 8 0 0 n 0 8 @.R.A.r.w.k.T z m z ",
"6 v n U w.t.S.l.l.p.-.V 4 @ U.,X;X.Xg oXvXAXHXcX$XV 7 +XwX.XZ 0 5 8 y 8 y 0 5 v OXbXNXGXNXVXiX*Xq 0 x y 5 4 @.W.R.e.r.t.T z m v ",
"6 v v ' w.t.e.h.B.G.>.u 4 @ U.,X;XV 0 8 G #XqX@X{ 0 t N p 6 b F X.o.F l 4 5 4 +XnXGXGXGXNXVXzX3X1.y y 0 0 4 O.W.K.r.e.t.U l v v ",
"6 z v ' w.t.f.x.K.!.:.V 9 < M.<X0X.X0 x x u g u 0 0 4 l OXuXbXnXAXDXNXcXqXm 5 7 OXbXGXNXCXZXkX8X[.u 0 0 q 5 & F.g.h.D.c.W l v z ",
"2 z n ^ 9.9.g.J.R.U.n.p 0 8 =.:X8X2X.X0 8 y 4 5 9 - oXMXDXLXJXLXLXPXPXKXAXcXG 6 4 OXbXHXDXZXkX8X,X1.0 q 8 4 ; #.g.H.A.Z.W l m z ",
"1 b m y r ~ W *.*.3.*._ 0 q e [.0XlXfXyXOXX.X.N - OXSXUXIXIXLXLXKXLXPXKXHXHXNXoX5 > qXNXFXZXzX8X,Xa.t 7 9 9 y < #.p.z.z.Y l m z ",
"1 x b z y 5 d 9 q y q 0 0 0 4 1.3XhXCXDXDXAXwX) x SXIXUXUXUXLXJXJXJXPXKXJXHXDXvXD 5 v cXAXZXjX8X1XN.j 9 b y 0 0 y f ( ( d z M 8 ",
"X z b v y 5 5 9 9 0 4 3 - 8 5 4 Z sXVXDXDXNX$X4 eXFXUXUXUXUXJXbXwX%XNXPXJXHXLXKXwXt : #XNXZXzX8X,X].( n u 4 > 5 y b y 8 8 z v 8 ",
"X l b z y 5 5 0 t 0 + O.%.+ 5 9 q n @XpXcXeX| 8 vXIXIXUXIXIXvX$X) ; tXKXJXHXLXLXcXh 5 A vXVXzX8X,X`.<.0 y < i.#.# O , w 4 l z 7 ",
"1 z v 3 ; : > 0 0 0 : Y :.:.< > > 4 9 N  ..XV F NXPXLXJXLXNX$X) 3 D nXKXHXHXLXLXbX..> 8 vXBXhX7X,XU.<.0 0 < m.V.l.u.9.E u z v 7 ",
"X v v L q.#.Y , 8 t 8 > < %.,.e - 9 9 0 0 0 8 oXAXPXLXLXHXuX| > . tXAXJXHXJXLXLXcX| 4 - aXMXiX2X:XM.2.0 0 , M.J.G.Z.q.] 8 l v 5 ",
"1 m m W x.V.l.y.Y > 5 4 - - =.[.XX9 4 5 0 0 4 +XKXPXKXIXDXtXs > 6 cXJXJXJXJXJXKXtX) d 8 mXvXiX3X:XN._ y 0 < m.Y.Y.L.8.{ l v m 8 ",
"2 v M W v.S.S.G.C.:.@ : > 5 4 7.6X2X+XN > q 4 +XDXPXPXPXKXmXp > 3 cXLXLXKXLXKXbX$Xa 3 G vXMXiX4X<Xa.} y y < C.Y.L.P.*.u 8 b m z ",
"X m M ' c.S.A.G.G.J.m.% 5 9 8 < ;XkXZXVXtXS q X.AXPXKXKXPXvXG 4 3 G vXAXDXAXcX$X) 5 1 mXFXzXgX3X:X3.a x x f F.L.L.z.' 8 l v M m ",
"2 m B 2.x.Z.S.G.G.J.J.m.% 0 8 5 } 0XZXFXDX+Xq x NXLXKXDXKXJXeX> 5 : V +X#X$X.Xh 8 - qXFXFXZXjX>X[.2.y y y < C./.A.u.( 5 7 v M m ",
"2 z B ' c.x.S.G.K.J.J.J.i.e 0 8 > =XzXZXFXyXV 2 mXDXKXDXLXDXSXqX4 > > 5 p i t 5 3 OXNXFXZXzXkX7Xn.| n y y < N.G.Z.l.( 5 l v M m ",
"X m M ( h.k.Z.S.Z.G.E.R.F.@.q 8 q Z 0XZXZXfXZ 7 oXSXDXDXBXDXFXCXpX .9 : - - 4 G wXMXDXZXzXjX8X,X6.V v 0 y w i.G.K.R.*.9 7 m M m ",
"6 n C y R 9.h.c.G.Y._.].i.5.t 8 q > 2XjXzXzX$X5 4 yXVXCXCXVXZXZXZXlXfXpXwXyXaXfXVXVXlXzXzX9X7Xn.| 0 y y 8 4 &.K.~.E.a.t 7 m M M ",
"X m C C 4 # p.S.Y.Y.U.>._ t 0 0 8 4 6.6X9XkX4XV 4 V sXgXgXgXhXjXjXjXhXlXhXhXjXgXgXdXhX9X9X1X[.5.y y y 9 5 > P W.W.).U.~ 7 v A M ",
"1 m C M n 3 Y P.L.V.7._ 0 9 8 8 q 8 k :X>X5X5X*X, ; .X3X0X5X4X6X6X5X6X6X6X6X0X5X5X4X7X8X1X[.XXg 0 y y y 8 > @ F.`.E.Y.a.5 z S M ",
"1 M A z y 0 : &.C.4.| 5 8 1 @ < 0 0 * }.|.|.:X[.1.: : k [.:X:X<X,X,X,X,X<X<X<X,X<X|.|.|.n.5.N 0 5 8 5 0 9 5 - :.Q.).E.Y.~ x A m ",
"1 M S ! w 4 0 @ -.| t 0 : Y N.*.0 0 + F.T.].M.,.=./ 5 > e ,.M.].(.(.(.(.].(.(.(._.U.M.7._ y q 1 & % 0 y 8 8 9 % V.R.).Y.+.z S m ",
"1 M M ! K t 9 8 ) y y 3 P p.T.=.i 5 < i.i.=.` ) p p 5 5 8 > f =.i.N.F.F.T.T.F.m.i.-.1.g q 8 > %.F.p.% 0 8 0 0 3 E k.K.Y.<.v A b ",
"X M C ! J r 5 5 8 y 0 = u.G.J.&.g 5 : T } u 5 : X : 3 > 5 5 5 5 q f / +.*.+.( / ) g 0 0 3 % i.!.J.V.i.e 8 0 9 0 , $.r.j.W z A v ",
"X B B ! J s 5 5 5 5 O 8.l.J.G.&.s 5 5 i 4 ; % O.#.%.%.P + > 3 4 9 4 9 5 9 t 5 5 5 8 4 + %.G.K.G.B.A.C.#.8 0 8 q v < $.q.K x A b ",
"X m B ! J ) 5 5 5 . R q.l.A.V.-.i 5 4 3 + :.m.V.C.B.V.m.F.i.@.> 9 9 4 : - : : 4 5 5 4 % #.p.B.B.A.H.J.p.p 9 0 0 8 8 < #.I l M z ",
"X m m ! ' y 0 5 5 O m.Z.f.l.B.*.9 4 > % p.V.A.A.B.l.V.^.^.~.!.a.@ 4 : & %.%.P p 5 5 9 8 0 % y.B.S.J.H.V.T 5 4 4 5 5 5 : w 8 b v ",
"X m B V Z t 0 y 0 & L.W.S.h.q.] : > O y.S.J.J.A.l.F.T.T.!.'.`.^.m.% > + m.p.5.i 0 7 ; O ; 4 = z.K.A.S.A.-.y = E , 5 5 5 4 l M v ",
"X v m v y 8 0 0 4 @.Y.).Q.K.8.) 9 4 = l.A.J.J.c.x.~.W.Q.].Y.`.).~.p.e 3 P *.g 0 5 + :.p.y.& ; &.A.A.S.Z.$.V @ u.&.w > 8 3 7 m v ",
". z m l 7 4 y 8 1 >./.Y.Y.A.4.n 5 : E Z.S.A.A.k.e.W.E.`.Q.Q.Q.`.).E.$.t , _ t 0 ; y.I.L.I.p.r = B.A.S.c.-.V @ d.s.0.& 4 5 4 m v ",
"X l v d $ w 0 y : s. X XA.d._ 5 v : Q t.c.S.c.t.e.E.Y.~.).E.Q./.Q.).z.# 0 0 y 9 % b.D.D.I.z.U = B.S.c.z.;.v & j.z.s.u.;.w 6 v v ",
"X l l r J r z z ; M.Y.I.d.5.i b A 4 J w.t.t.t.t.w.S.K././.Q./.).Q.Q.Y.W y v b 7 Y x.I.I.Z.s.; J h.z.s.0.] 0 Y s.P.z.z.q.K 6 z y ",
". l l d r t m m 5 / 3.1.h u M S C M d L U ' ' U U W 3.3.6.3.3.3.3.3.3.~ m M M m p 2.2.2.2.] / ^ ^ ] ] / { M / <.2.' ] ! w l l l ",
"  o.m z m m v M B A A C D D S D S C S C A C M C M A M B M A B B A A S S M M M A C F F F F D D F F F D D C C D D D S M C m H c 6 ",
"X 2   6 v v v M B m A C B A C D D C M A M M M C M n b x n M M M v n m M v n M A M M M n M M n m M M M m n n M C A M n m v c   1 ",
"  1 X 6 8 0 v z b z z v z b b b m M M m m m v z 7 7 7 7 8 7 v 8 z z z 8 v z v z v z l 4 6 6 6 3 6 1 4 6 6 1 6 6 1 X 1 1 X 6 1 X "
};
