/* XPM */
static char *gd9ib_082kr[] = {
/* columns rows colors chars-per-pixel */
"64 64 137 2 ",
"   c #010000",
".  c #0B0200",
"X  c #120700",
"o  c #150900",
"O  c #1A0D00",
"+  c #1E1100",
"@  c #231400",
"#  c #271800",
"$  c #2B1A01",
"%  c #311D02",
"&  c #352105",
"*  c #392406",
"=  c #3C270A",
"-  c #452901",
";  c #4B2E02",
":  c #432D0E",
">  c #4E3104",
",  c #4E330F",
"<  c #543506",
"1  c #553509",
"2  c #583709",
"3  c #563808",
"4  c #5C3B0B",
"5  c #473111",
"6  c #4C3412",
"7  c #4E3913",
"8  c #503612",
"9  c #553A15",
"0  c #5A3E15",
"q  c #543B18",
"w  c #5B3E19",
"e  c #613E0D",
"r  c #4F3E22",
"t  c #533E23",
"y  c #5D4016",
"u  c #5D411A",
"i  c #64420E",
"p  c #634313",
"a  c #684611",
"s  c #6C4A12",
"d  c #63451B",
"f  c #69471A",
"g  c #67491B",
"h  c #6B4A1D",
"j  c #564125",
"k  c #5A4427",
"l  c #5F4927",
"z  c #5D4629",
"x  c #5E492A",
"c  c #604727",
"v  c #644827",
"b  c #6C4D21",
"n  c #614729",
"m  c #644C2B",
"M  c #6A4E2D",
"N  c #714E22",
"B  c #67502D",
"V  c #6C522E",
"C  c #735122",
"Z  c #785522",
"A  c #7C5A25",
"S  c #72542E",
"D  c #6A4F30",
"F  c #6D5431",
"G  c #6E5833",
"H  c #725632",
"J  c #795633",
"K  c #755A34",
"L  c #7B5D35",
"P  c #765F38",
"I  c #7C5E38",
"U  c #776037",
"Y  c #7E6036",
"T  c #7E6139",
"R  c #756042",
"E  c #7D6545",
"W  c #805B27",
"Q  c #805F36",
"!  c #815F38",
"~  c #88652C",
"^  c #826237",
"/  c #896537",
"(  c #83643A",
")  c #89663B",
"_  c #86693D",
"`  c #8B6A3D",
"'  c #916E3E",
"]  c #8F703F",
"[  c #91713E",
"{  c #866741",
"}  c #856A43",
"|  c #8C6D41",
" . c #866B49",
".. c #8A6E4A",
"X. c #916E41",
"o. c #8E7043",
"O. c #8D724D",
"+. c #937343",
"@. c #997646",
"#. c #977946",
"$. c #9A7A46",
"%. c #93754C",
"&. c #9A764E",
"*. c #95784A",
"=. c #9B7C4B",
"-. c #937651",
";. c #987750",
":. c #967A56",
">. c #9B7B53",
",. c #997C58",
"<. c #A07E46",
"1. c #A07C49",
"2. c #A17E53",
"3. c #9D804C",
"4. c #9F8354",
"5. c #9F8158",
"6. c #A3834E",
"7. c #A38354",
"8. c #AA8555",
"9. c #A48853",
"0. c #AC8A54",
"q. c #A3845A",
"w. c #AC8658",
"e. c #A48A5C",
"r. c #AC895A",
"t. c #B08D54",
"y. c #B68D5A",
"u. c #A9935D",
"i. c #BC9659",
"p. c #A78A61",
"a. c #AA8D63",
"s. c #AE9163",
"d. c #B39363",
"f. c #B89966",
"g. c #C1945C",
"h. c #C39C5F",
"j. c #C5A36D",
/* pixels */
"@ % @ # @ # # $ $ = % % & $ # $ $ $ $ * & $ & $ $ @ @ @ @ @ $ + # $ + + # # # @ @ + o o o + O O O o O o o o @ $ $ # $ $ # # % $ ",
" .7.%.&.6.9.w.&.>.*. .O.=.O.O.*.O.E R E ..O.O.O.%.-... .-.-.-.O.:.:.:.O. .-.O.%...-.O.q.4.q.7.6.>.;.=.>.=.=.O. .%. .E { O. .&.&.",
"] X.` ) / _ ( ] / ^ ` Y S B H G M S F ) ` o.} 3.%.{ | | { E | ( %.*.*.+.+.` ( ( T Y ( ( K K L T S L L / Y A ^ K / ^ T K Y L ( ^ ",
"K Y H L K G B V m m K V B m V V V P H L ` #.` ] ` T T { J K I H X.%.) P ( K H H B B V B V m S V K K [ ` / K ^ T ^ / L L S K H V ",
"H _ _ ` #._ U A Y ^ S V L G S S L ` / ` X.+./ ) ^ T / ( L ( ! Q L / J / I H F F K T K H K K L T / [ [ 6.[ ` ` / ` / [ / / ^ ^ ] ",
"V m K L Y ^ _ Y / Y U V K / U Y L L T I T K I K Y K V L J K V S S J S V H V F H L K { I K K L ( L U L L / K K V S S K S L S S U ",
"K P K T U ` L Y K T L K ( / Y L L ( K F L ^ ! ! T S T / / L Q ) ! K K L L T F ( F F T K K / ) @.^ T U K Y / P S K S L S ` V K U ",
"o.=.+.+.[ 3.[ [ [ [ +.o.X.#.[ L J ` I / ( ) ) ) ` ' ` [ ` +.` +.+./ X.| / o._ X.+.X.) X./ / X.( [ ` ^ ^ ^ ^ L L K ( ^ Y ` [ / [ ",
"( T T ( T U U K U _ P K I K { J ! L ) | ) ) ) $.| ` X.=.` +.) ( X.) ) ) ` _ T L K K F I I I o.o.( ( { } %.{ I +.+._ ) ) L ) ) ( ",
"o.o.U } o.T Y ( Y _ ( ` I ) { ) H J ) X.) ) ) ) ) ( ` =.| ( L I I ) ) ( / ( ^ T +.o.( X.| +.( o.{ P I ) ( I ! { | / { { ) | ( ( ",
"U T T T T G G K B B B F D K I F K L L ( ( ) ) ( ) | o.| +.| ) U ! J H F ! L H T T F F I K K H P T { E | %.+.} +._ o.| ! &.+.{ | ",
"T G B U U T G m H K B P K L ( ! K / J _ ( ( ) ` | | | *.o.) T K I H H H L L H V K F I T I T I | | I L o.{ | K T I H T K F H L F ",
"G H U K U G F F F m m m K D F I H Y S L L T ^ _ ( ` ( ` T ( P F F H n M v D V m M F V H V D F K I K F K ( K ..K T T K | T m T K ",
"T T U o.#.` ` ` T ( ( ) ( K F D m m m V m B K V V H F m k V B B M n V K Q Q / J L ( T ] ( T K H m k x L F m F F m F D D H m m H ",
"B G H H G F m x m m M F I I I L Y F U S S B m m m k r k k k x l v t v D c n S V m S V K ( K L F / T E I I P K F D G F H K K D F ",
"> 3 i a 3 3 3 p 4 1 4 e p 4 2 4 e 4 a i s a 4 ; 3 < > > < 3 3 3 1 ; 4 e a a s ; > 3 3 3 i 3 < < 4 4 1 1 4 3 4 - 1 4 1 1 4 1 4 ; ",
"              .                                                                                                                 ",
"o.o.] ` | ( +. ._ =.9.9.6.6.=.6.4.=.3.0.=.>.>.=.6.%.*.O.9.3.*.o.{ >.o.=.%.*.=.*.#.6.6.i.0.=.9.1.=.=.o.*.{ X.=.1.| i.t.t.=.+.o.o.",
"x l m x j j j l j m m H L ( H L K L L L H H m V B V Y L K Y H G H H P K H V F H F H K L / ^ K ^ L J L L / J J Q / ^ K v J M k m ",
"k x x j j x k x l S m n V m m M m V F K H F B V K P U _ T G U K V x m F V V m m m V V x m m m n v n n n v c v v V V M S m z t z ",
"m m M k l k B m S V S Q L H L K I D F K B B F F G K G L P U G G B L x I ( F H L V L K L H L L V Q J L S M S J n v H H D m n K S ",
"K K H F G G S S K / L V ( S ! H K I H F K m F K m B U P K G K T P ( P H I I F I L T ` ^ ( I K ! ^ ! L L Q Q S S H H J J K J J I ",
"K { H P _ Y V ^ ) ! Q Q S L L J K I I H K H B P Y K P T T T U U ` ( | +.I ) ) ) ) ( ` / ` / ` _ ` ` ' / ' ` ! @.X.J ! ) D H J ! ",
"! J 3.*.) +./ ` / ` ` ) L ) L K ! { ( T ( T ) P T T T _ _ P | o.) ` %.| ) X.` +.` ' ` ` X.X.` | +.+.` ` ` ` ! ) | ` ) @.X.{ ) ) ",
"H J K +.) I L H ! / T _ o.J I ! J I ! L K U _ U U U U U T T T ( ) ( / L ( ( ( ` ` / / I ` ( T ` $.| ( ( T ) T T ) | ( ( T K L D ",
"! D D ( J L K L L ( T T L | I ) ! J L ) Y ` _ ^ ^ ` [ ` _ ( +._ ) I ` ( L ! ! Q Y ^ / ` ` ) | %.| } { T ( U Y H J H I T D D H F ",
"| { | ! | I ! ` ` @.^ / L I T ) ! J L ) L Y Y U U Y _ U T Y T Y L ( V [ / / ( ` ` [ ` [ ` _ / ( #._ { | { T _ ( ) { T U I K ! %.",
"J H I H L ( L L ` ( | _ I ( ! I ! H J H S ^ Y ] U / Y T L K m B L H T L K L L ! Y ^ Y ^ ( ( +.) | { | _ ( } U _ F F F F T T { ! ",
"H 4.=.! ( | ` _ +.o.T ( ( T ( K H H L ! S L ` Y ^ Y [ 3./ ] ] Y ] / / ] ` $.` ' ` / / / ^ L T T K U _ ) ( o.K T K G H F H K { ! ",
"L ( L L ( ! _ } Y | _ P T { ) K L L S L K ^ S G Y Y Y ^ ^ U ^ T B Y L K L L / ^ L Y L K Y U K Y ( | o.| P ( T _ ] ( | $.{ %.9.4.",
"E } ( I { ( T { T U { _ ( P P F F K M V Y _ / _ / / ^ _ _ ` ] ` L ^ L Y L T ^ ^ V Y S S S V V H T H H T U P Y L ^ ( ( *.+.*.o.O.",
"9 w k d q w d d u u k w 5 : : 6 9 6 6 0 8 , y y y C C h d y h y g p 8 y 8 q 4 g y 7 y , ; : 5 : = 5 : 6 : : : 5 6 7 6 5 q l u d ",
"+ $ + @ + + + # # & # % % # # $ $ # $ * $ $ * $ $ @ @ @ @ + $ + $ $ @ @ $ # # @ @ + o o o O O O o o o o X X + + @ @ # # + + # # ",
"5.d.e.s.d.j.j.f.f.s.4.4.7.-.O.*.-. . .O.q.,.>.>.,.2.-.,.p.p.q.:.s.s.a.5.:.p.u.d.e.a.e.s.5.7.>.=.&. .>.&.2.=.......O.} O.-.%.q.2.",
"] X.[ ] ] ` ] [ ] ] ` / K S T L F L H ) X.+.T O.X.{ { } I T O.{ | *.=.*.*.( } ` / ( ` ` I T _ ` T / / ' / ^ ' L ` ' / ^ / L ' / ",
"V K S U K B B B m m K V H V H S V S V H _ =.) | I T L o.D I I J 3.4. .T / T F G P G B B H H Y L K K ` / Y S Y H L L K H V V F m ",
"H T _ T ] / K Y Y ^ G S L L ^ L T ^ L [ @.$.&.| H ) T K D P { t m F m z z z x B G B H H U ^ ` ` ` [ _ <.` Y / ( ^ Y [ ! / L ^ ^ ",
"F m L L U / Y Y _ H ^ G L ] L ( T ^ K ( 1.@.( =.*.) { | L I I L { { { { F P H P ( H T K K T T / L ` ` ^ ` L T L U J ^ H ( L ^ L ",
"Y ( T _ ^ #.` ` ` #.[ [ +.X.L J L / K K H H H M I H F H H L K ) | ( H I I T _ _ | o.] +.[ [ ] @.^ L H F S L V V S S H K ) v P K ",
"B ^ K U U _ Y U K ^ _ T I ) I F M L v J H J H L D H F D J z D I m m F D I I K L I T / ` K ( K P ` L G F K K V V m V M V K K V L ",
"+.o.` o._ T #.T ) | | ` ( L X.) L ! @.@.) ` / X.H ) L #.X.L L J J I L { ) ( { ) { I | _ ( _ +.+.( ( | { &.{ ( +.[ ` | | J ) | ` ",
"| ( T T o.T T T K E P T I { | O.! ( ' Q / ' ) / ` ( X./ =.>.J ! ) { X.X.=.X.+.+._ ` ` _ ` o.T } } ! | *.+.| | o.+.` o.I | | ) { ",
"T E T o._ T T T P I H P H I I H K Q J H Q ) ` ` _ ^ ( +.( K X.I | ) J J ` / J | | ( ( ( / T T ( _ { T } | %.| o.) | | ) =.+.| +.",
"K G B G G U B x H D m H F K K I V L H L v S ! S V B m V V M K P J J J H L L K H K V P I P L F ( ( H K I ( I D F F z D F m D H H ",
"G B U B G B B B z m m x H H K T Y / ^ / ) ! Y / Y S V V V K S K J J V M M H S c n V V M m F H K ( { ( T | ( #._ o.) ( X.{ F I H ",
"#.+.] 3.3.+.+.] ( T ) ( { T ( L ^ L L ` J L ` ^ Y U ^ Y H _ _ T I L ) ` X.' [ [ ` ` / ` ` ) _ ( ( K I %._ _ X.) ) | ] +.+.) / | ",
"_ +.o.] ] [ _ U / ( T ` | ` / L T L / ` ^ U K S V B m B S K G K I V J ( J J / / / ' / ' X.( _ K | ` ` ` X.` ` ( ( | ` ] +.+.o._ ",
"5 y y u 7 7 7 y q 9 q 0 f f f h h p C g h C y y y 8 9 q q 4 u y q 9 w d h h C , 6 q 6 q d d u d g g d g h f h 9 d w w w d 8 d 5 ",
"            . o . . .     .   . .   .     . .   O .               . .                                       X     .     . . .   ",
"..*.O. . .| }  ...*.w.6.2.w.7.r.q.7.q.7.2.>.-.-.>.-.O.O.4.*.:... .>.O.&.>.-.&.>.>.8.r.g.w.7.r.0.7.q.>.;...%.7.&.%.h.y.y.2.-. .%.",
"K G K S m m B V B K Y ^ / / L I L ` ) | ` T T / U ( ] ] ] ] #.` ` ` #.+.] / | ( / ` ` / +.` ^ ^ ^ ^ L ( ' / ' / ' ' Q J ` L V L ",
"K _ ( S U ^ K L T _ Y U ] L ! ) T ) ( ) ( ( ( T ` ] o.#.3._ +.+./ ( ( o.+.) ) ! / ) _ L / Y K Q J Q L ! Q / / / ' X.' ' ` ( J L ",
"L H K K F F H L ^ L L Q L J Y K L F D F B H H m B H K T T T P U K ( D } o.( T | ( ( T ( L Y L S Q Q K V v S J M S J J J J J Q Q ",
"L L H K F F H F S ^ J S L K L S L K J F H m B P B G ( U U G U U K K H F H H F H K I / ^ Y ^ S ^ / Q L / ) ( L L ! ! ! ) Q ! ) ! ",
"! o.I T +.( L / ` ^ Q J H J L L H ( ) I ( I T ( _ T ( T } T | T @.| +.%.( ) ` ) ) ) ) ( T L K L ^ ^ ^ L K ( L +.@.Q X.@.Q ! ) | ",
"/ ! 6.6.` @.) X.` ` ' / ^ @.) / &.+.o.{ { ) ` T _ _ o.#.` T o.+.| ) *.X.| X.X.@.+.` ] | +.' ] +.+.T L L K L L ' =.1.@.2.X.@.X.X.",
"D D L | o.J ! L ' / ` ! +.' Q J K ^ G L L U T K K T U Y _ T ( _ ) ( ) K ` ) ) | [ ( ^ U ( _ T K / L V V K L F H J L I K P K H F ",
"J m m L F H L F L K J H Q M J M S T _ K T ( T K K U ( U U U T K K H L K H K L F K T U Y T Y P H H L K L H L T L L H ( T D D D D ",
"| I I J J H J ( H L ! Q ) ( ' ! L / ] [ _ ` ] / ( _ ] T ( T ( Y K K M ` K L L ! T T T K ( T T Y / ` I ( L / L I ( ! K K J F I | ",
"{ I ( ! o.| | =.=.) =.=.( S ( ( _ ^ ] L H ` U ] T ` ] _ ^ T V G T / / ` ^ ) ( / / ] / ^ ( ( _ ` ` o.` K K ) T ( ! I I K } X.O.X.",
"t J D z F F P m K ` ` +.( H K K V K K U V G L S K S Y _ L Y L m S K S J K / S H S S V L H S P K I F T L I L L K m z j j k k m k ",
"I | I J +.T ( T { _ >.T S M S S S S V K K ~ U U Y L Y / ` U / T S L K K T T ` ^ T ^ T U H K V L K K I I K U ( X.o.` *.$.%.*.u.r.",
"I { P K I T K T T G ( I K m B l B S m B U ` ] _ [ _ Y ] ` ] ] / L / K L K T ^ T V K V m m v M M F F D K F B P L / T ) *.o.*.%.} ",
"u v b V d u b b g b h N y 8 9 p d y y a d i C Z A ~ ~ C C b A h g h d g 0 4 d g d 4 g p y 9 h 0 q f u b y y u d b u d q d N H C "
};
