/* XPM */
static char *_____________[] = {
/* columns rows colors chars-per-pixel */
"64 64 256 2",
"   c #0C0504",
".  c #0C0905",
"X  c #0C060A",
"o  c #0A0807",
"O  c #130504",
"+  c #140A06",
"@  c #13050A",
"#  c #140A0A",
"$  c #1B0C0B",
"%  c #1A0706",
"&  c #1C120B",
"*  c #16120A",
"=  c #190B13",
"-  c #1C1313",
";  c #0C1010",
":  c #230A09",
">  c #27140D",
",  c #2C1A14",
"<  c #281814",
"1  c #331D15",
"2  c #371E19",
"3  c #2E140F",
"4  c #2C271B",
"5  c #342114",
"6  c #3B2215",
"7  c #34231B",
"8  c #3C241B",
"9  c #3C2A1D",
"0  c #35291A",
"q  c #362E16",
"w  c #351D26",
"e  c #2C2727",
"r  c #3C2422",
"t  c #3D2B23",
"y  c #352927",
"u  c #3A3126",
"i  c #2D2C34",
"p  c #352B37",
"a  c #393636",
"s  c #2F3230",
"d  c #1E0F23",
"f  c #461E18",
"g  c #521E15",
"h  c #432415",
"j  c #43251B",
"k  c #442B1D",
"l  c #4A2C1D",
"z  c #4A2618",
"x  c #572A18",
"c  c #48321D",
"v  c #56341B",
"b  c #50280B",
"n  c #662C1C",
"m  c #6C3317",
"M  c #452C23",
"N  c #4A2C23",
"B  c #452826",
"V  c #572A23",
"C  c #443123",
"Z  c #4C3224",
"A  c #4C332A",
"S  c #463829",
"D  c #543424",
"F  c #5A3524",
"G  c #54342A",
"H  c #5B352C",
"J  c #5B3A2C",
"K  c #583A28",
"L  c #483937",
"P  c #573936",
"I  c #412F33",
"U  c #633A2B",
"Y  c #653828",
"T  c #793628",
"R  c #673935",
"E  c #6E322D",
"W  c #3B473B",
"Q  c #59432A",
"!  c #46453B",
"~  c #584738",
"^  c #4E4F2F",
"/  c #674527",
"(  c #774728",
")  c #674838",
"_  c #784838",
"`  c #705434",
"'  c #6E6A2F",
"]  c #675D21",
"[  c #3A3443",
"{  c #352F42",
"}  c #493C46",
"|  c #513A4F",
" . c #713A46",
".. c #4D3A67",
"X. c #3D5947",
"o. c #3F4742",
"O. c #3E596F",
"+. c #4B4548",
"@. c #554747",
"#. c #595448",
"$. c #5A5655",
"%. c #494A57",
"&. c #674946",
"*. c #655646",
"=. c #785948",
"-. c #685B57",
";. c #725152",
":. c #53674A",
">. c #696459",
",. c #766858",
"<. c #6E6F4E",
"1. c #50516B",
"2. c #6B586E",
"3. c #726A70",
"4. c #8D3419",
"5. c #A82818",
"6. c #AE3619",
"7. c #973A27",
"8. c #993834",
"9. c #89362C",
"0. c #A93824",
"q. c #B13530",
"w. c #DB1814",
"e. c #CB3219",
"r. c #E53C1D",
"t. c #CA3926",
"y. c #D5392C",
"u. c #E73926",
"i. c #F13A32",
"p. c #E31A12",
"a. c #945013",
"s. c #B44F17",
"d. c #926A1A",
"f. c #AE7319",
"g. c #8F5030",
"h. c #A84628",
"j. c #B94927",
"k. c #B24F33",
"l. c #916B30",
"z. c #AF7130",
"x. c #DA461A",
"c. c #CE501B",
"v. c #E9501B",
"b. c #EB721A",
"n. c #C84526",
"m. c #D6482A",
"M. c #C95738",
"N. c #D15130",
"B. c #E74937",
"V. c #E9553B",
"C. c #EE512C",
"Z. c #D26E2E",
"A. c #E86A25",
"S. c #F17030",
"D. c #D3701B",
"F. c #8B574F",
"G. c #B5544D",
"H. c #876449",
"J. c #966A4D",
"K. c #8A6A54",
"L. c #8B7258",
"P. c #997858",
"I. c #987150",
"U. c #A87958",
"Y. c #AF6F50",
"T. c #8B7867",
"R. c #977B68",
"E. c #8D7874",
"W. c #A77966",
"Q. c #B7786D",
"!. c #8E5566",
"~. c #D15348",
"^. c #EA5245",
"/. c #CC714D",
"(. c #EA724E",
"). c #D47E67",
"_. c #728357",
"`. c #6B8357",
"'. c #9A852B",
"]. c #B18D31",
"[. c #A88C24",
"{. c #F08C18",
"}. c #D18B32",
"|. c #E69626",
" X c #F18D31",
".X c #EDA638",
"XX c #F9B737",
"oX c #F5AB2F",
"OX c #E2A318",
"+X c #FBC939",
"@X c #FCCB2D",
"#X c #B18B54",
"$X c #B4BB57",
"%X c #AFAE4C",
"&X c #92866F",
"*X c #A68769",
"=X c #A79A74",
"-X c #B19171",
";X c #B0A672",
":X c #808B5C",
">X c #C88955",
",X c #CE9451",
"<X c #F09248",
"1X c #D4A653",
"2X c #FAA649",
"3X c #FDBC48",
"4X c #ECAD52",
"5X c #D59B68",
"6X c #C8946E",
"7X c #EB9170",
"8X c #DBBA75",
"9X c #D0AB6C",
"0X c #E9B668",
"qX c #E4BB78",
"wX c #F0B36E",
"eX c #FEC34C",
"rX c #E4C377",
"tX c #FBC86F",
"yX c #D8C175",
"uX c #3A5F8A",
"iX c #53769B",
"pX c #6D728B",
"aX c #5477AC",
"sX c #535F83",
"dX c #867786",
"fX c #5385B4",
"gX c #6080A6",
"hX c #978A87",
"jX c #90898F",
"kX c #B2938C",
"lX c #B7AA93",
"zX c #B9A8A4",
"xX c #C39093",
"cX c #CFB290",
"vX c #EBB38B",
"bX c #CEB6A6",
"nX c #C09DA1",
"mX c #D6C897",
"MX c #E9C797",
"NX c #F2CD91",
"BX c #FBE490",
"VX c #D9CAAC",
"CX c #E8CAA7",
"ZX c #F4CBA5",
"AX c #ECD3AC",
"SX c #F5D6AC",
"DX c #EAD5B7",
"FX c #F7D9B6",
"GX c #EFCDB4",
"HX c #F8E4B9",
"JX c #F8E5AF",
"KX c #EEDCC4",
"LX c #FCEACC",
"PX c #FAE7C7",
"IX c #FBEAD1",
"UX c #FCF2D2",
/* pixels */
"Y F J k l N A A N l v v k Z A V v H Z D F F v V F D H G D D F K G K H G D K F D F K K G H F F J F D c M N N l l M l M N J F J D ",
"Y H H k A A D l c M M A Z c N Z c A Z Z l D G D D G D D D G D F F F D F F F F D D F K Y J K J G J Z Z Z M N k Z Z N k Z F Y U G ",
"J Y G 6 6 6 7 < , , , , , , , , , < , , 1 1 < > , 3 > 1 2 < , 1 , < , , , < , 3 < < < , , 3 3 > 3 > 3 , < > > > > > > > j U H N ",
"J H G 2 - < X o X o o o X X o o X X X X   @ @ @ O @ @ @ @ # # # # # @ # @ # # # @ @ @ # @ @ # # @ # @ @ # . ; . o . o ; 7 H H G ",
"P Y G < o @   o   o   o o o     X     X     X . O . . @ o .   o   O . . @   @ . @ .   o % @ .   @   @   O . . . .   . . 7 J U A ",
"J Y H 1 o o ; .       # @ @ @ X X O   @   3 : * O   # : $ & = > * * & % = & = * $ : - = * * % 3 = & $ $ $ # : & = : * * r K Y A ",
"J U K k k f > % o X + & & : = < $ > - < b  Xg.d - e L Q M L V / ( Y E @.( m V < w S R d.4.2 ~ <.> y L @.*XkXa.k.| L - @.G H U A ",
"R U F L.ZX^.5XI.$ $ & k &X=.t ,.:.+.L z.XX Xz.sX1.2.2.tX6XkXM..XoXx.V.*X{.D.9.e 2 z ~.2XS.4.=X&Xy 3.2.-.AXGX^.V.2...4 *.) U Y F ",
"U / v J.MX^.,XU.> 5 > S L.K.q <.^ +.a l.+XOX>XpX1.1.2.wXcXkX~.|.OXr.v.-XZ.D.j.m ( S P 1Xb.0.*X=XT.hX-.T.SXZX(.S.!.| #X#XS U U F ",
"R Y U K.ZXB.5X9XNXNXUXQ K.I.t <.:.$.u l.XX XZ.pX1.1.1.0X6XkX/.|.@Xr.C.dXD.D.N.b.tXv } ]. Xj.W.=XLXnX$.VXFXFX(.^.!.| tX#XA / / U ",
"U Y Y K.ZXB.5X1XrXyXLX~ H.P.c <.:.>.u ` eX{.Z.pX1.1.2.5X#XxX/.}.XXv.i.).Z.b.x.S.wXv | z. Xj.P.=XPXbX2.bXPXLX7XS.8...vX#XG R E v ",
"/ Y F K.MXB.>X5XrXrXHX*.` I.c #.<.-.! m eX{.S.jX1.1.2.#X,XnXQ.Z.@Xv.u.Q.,Xb.m.S.2XJ } z..Xc.J.=XDXbX3.!.FXIXvXC.G...VXcX&XY / F ",
"R Y Y H.ZXV.>X5XrXrXHX<.` U.Z ^ _.3.! v eX|.b.jXsX1.pX>X,XnX/.Z.@Xv.u.).-X{.y.S.2X` } z..Xn.H.=XDXbX3.~.GXIXvX(.G.| mXmX:XY Y v ",
"U Y F H.ZX^.>X,XrXrXHX<.) *X/ ^ _.,.@.h 3X Xb.kX1...pX-X0XnX6XN.@Xv.u.).Y. Xm.S.4.A P H.2Xc.` =XCXVXpXG.ZXIXvX^.G.%.lXMXT.Y R v ",
"U Y F H.ZX^.>X,XrXrXJX,.Q P._ ^ _.>.-.L.3X Xb.hX1.| hXxX3XkXQ.c.@Xb.r./.Y.<Xm.S./.&.S H.3XZ.P =XmXVXjX!.vXIXZX(.~...lXAXL.Y Y v ",
"Y Y D H.ZXV.>X,XNXrXMX&XQ *X_ C _.>.) R..X|.S.*X1...kXcX0XkXxXj.+Xb.u.(.W.2Xn.V./.-.u F.3XS.D =XmXAXhX!.vXPXCX(.~...hXBX_ Y Y D ",
"U U V =.ZX^.>X1XrXrXMX=XQ *X_ c :X-.*.P.<X.X{.R.2.%.jXlXwX-XxXn.+X{.u.~.W.2Xc.C./.2.u F.eXS.V ;XlXDXhX3.vXPXPX6 G 1.kXBXh.Y Y N ",
"U Y G =.SXB.>X6XrXyXMX=Xc P.=.q :X^ #.I.}..Xb.U.pX1.nXbXtXxXxXk.+X Xu.B.W.2XN.Z.).3.u F.eXS.x =XlXDXE.3.LXIXUXL | ..hXJXJ.Y H N ",
"J U D =.CX^.>X5XrXrXMXlXk #X` u :X:.>.K.}..Xb.Y.dX%.nXbX0XcXxXj..XoXu.u.Q.4XA.M.J.T.M &.1X Xm *X;XKXjX2.UXIXUXU V 1.dXJXY.F R z ",
"Y H N ) AXi.#X,XyXrXrXVX6 P.H.u _.*.-.K.#XXXb./.pX..bXDX4X9XxXk.oXoXu.y.Q.4X(.z.g.T.Z ;.4X Xm &X;XLXhX1.UXIXUXY.M.2.!.SXY.Y H j ",
"Y R v ) AXB./.9XyXrXrXVXq L.K.c <.>.>.=.}.3Xb./.gX%.zXPX0X5XnXG.|.XXx.u.Y.5X(./.) E.G &.1X X4.,.=XUXjX$.UXPXUX(.^.;.$.NXU.Y K j ",
"H J c ) AXy.Y.5X8XrXqXDX5 I.I.9 ' <.$.*.%X3Xb.Z.jX1.lXLXqX7XnXG.|.XXx.i.U.5X<XM.E &XN &.1X.Xg.,.=XPXlX$.KXPXIX).^.!.| BXQ.Y G k ",
"F K l ) AXB./.9X1XyX8XPX5 I.*Xk ^ `.-.` #X3XD.Z.jX[ =XPXqX1XkXG. X+Xx.i.g.5X<XM./ E.G @.,X.Xh.,.=XHXlX1.VXKXIX6XG.3...BXU.K D z ",
"D G c ) FXm./.5X9XrX9XLX6 H.P.Z :.`.#.*.z.3X{.D.jX1.E.LXrX5XkXG.Z.@Xv.u.G.5X4Xn.H.jX~ P #XXXj.=.=XAXlX1.VXIXIXkX!.2...NX#XD Z z ",
"D A c J SXn./.0X5XrX9XLXC =.-XZ ^ ' :.~ I.eX{.A.hX2.3.LXqX0XkXQ.Z.+XA.u.k.5X Xj.J.hX~ P U.XXz.R =XVXzX3.zXPXLXcX!.2...rX*Xv A j ",
"D D l J SXN./.5X#XrX9XPXQ =.-XZ ^ `.*.#.H.3X|.b.T.1.>.PXqX0XkXQ.c.+XA.u.~.-X Xs.Y.hX*.P K.XXZ.) ;XVXmXE.kXPXLXbX_ ,.%.yX#XZ Z j ",
"Z G c K SXN.M.9X#XrX9XHX~ =.*XJ q `.$.~ H.3XoXb._.3.$.PXvX0XxXdXn.+X Xu.n.-X Xm.l.E.-.A !.3XZ.l lXVXVXpXjXIXIXVX&.2.%.xX#Xc A h ",
"A N M G FXM.~.0X6X8X8Xs.J ) -XQ q `.@.^ ) oXoXb.E.3.%.KXNXwX6XhXs.+X{.y.t.Q.{.c.g.T.-.G ;.3XS.( HXPXDX3.jXLXLXKX` ,...6X#XN D 8 ",
"Z N k N FXM.M.9X#XyXqXs./ P W.Q q `.#.W =.1X4Xb.E.3.@.KXMXwX-XxXn.XX Xu.y.kX Xc.z.K.3.I &.0XS.m HXPXKXhXE.IXPXIX) -...#XI.N M 7 ",
"N N M B PXM.k.vX:XtXNX6.m K -X) q `.^ +.Q }.oX{.W.3.[ DXZXrX6XkXj..X.Xx.t.W. XA.Y.J.T.P ;.4X<X4.VXVXkX,.-.bXlX=X=.&.%.T.l.M C 2 ",
"M B 9 B H.T R ( Q / Q / Q G Q Q ^ Q Q Z c U v m P G P P D F D A E v F H V S Z D G S S A D D V H G A G S C M l C M l M u k B C 2 ",
"N B t > z j k k z j k 9 9 k k M 9 9 9 k c k M k B B B M C C C c k B M M N M A N B M N N M c A c M Z M M Z N C C N Z M Z N B t 1 ",
"M M t > 6 z k 0 8 k 8 k 9 k 8 6 8 8 9 9 8 6 9 k k j k N N N N M k k l M l l l k k l c l k N B B M B t t B r t r 8 8 0 8 9 M M 1 ",
"k k 9 < 7 9 $ X # % + O + % @ % + % % % % % % + + + # + O + + # % % % % @ @ @ @ @ @ @ = @ + % % O O O O O O O O O       , k t 5 ",
"k M 8       # o o o o o o   o o o o @ # # # X # X X X # @ @ # # X # }     + + O X # # # # # # # + $ $ @ # # $ @ $ # # # , k M < ",
"k l 8 o     *   X # + + @ @ + # + + # & # # # = & $ $ & - > > : > % T.% # - - > > > - * - & - > $ $ - > > & < < < < < < 5 k M < ",
"k C r     @ #   X = ; # @ o @ @ . @ + $ + % - $ . : $ * = ; $ > d + L.; O - $ < < < - & - % * $ & : = $ # $ % 2 A 5 % > 7 9 B < ",
"k M k Y / % X   0 N Y c p y n n y u 4 w ( 9.4 M u ! X.1.g.pXpXI.9.U R.M ` ].l.P : : * = *.R.% k $ @ A k.' *XvX*XP.K.lX>.~ M M z ",
"k k h f.a.@   o y n v.[.i R 5.4.u s 4 e a.7.y L ! ) O.O.<XdXgX<Xc.4.R.) / @X}.| @ @ % = ` bX  u #   B x.].%XwX>XI.K.E.hX#.B q b ",
"B 6 h d.d.W +.$.P R r.[.i } 5.0.S I q e 4.h.8 a L ` >.O.,X&XgX5Xx.g.=.#X/ oXOX&.h.R q.G./.AXkXt E l u t.].%XvX6XI.=.r jX*.M k x ",
"h k f s.d.%.L +.+.R u.[.y P 5.0.L a 6 e 9.h.r u I ( *.O.>X*XfX,Xv.0.*.wXv +XOX .^.H i.^.^.SXSX/ 9.x u t.D.%XwX5XY.J.5 hX*.k 9 n ",
"8 t b f.d.X.} +.} R u.[.a L 5.q.L a 6 e T j.0 t } g.;.1.Y.Q.fX>XA.j.R NXH 1XoX&.^.V ^.(.V.FXAX<.T Y u 6.}.$XvXqX` ;.4 jX>.9 k b ",
"k t h a.d.X.[ %.L P r.[.L L 6.0.P a 8 e Y n.6 y } R &.O.U.Y.fX6XA.n.Z NXv 1X.XR i.V i.(.B.SXSXR.T n u 7.}.%XNXNXJ.G.k >.>.k 9 x ",
"j M z f.d.X.a #.} P e.f.a I 0.5.) a 8 e K m.6 y L ~ #.uXU.Y.fX-Xb.n.z NXR 9XXX&.i.V ^.^.B.ZXCX*Xn 4.G 4.D.$XNXNX(.,Xb $.-.k k m ",
"8 0 h s.d.X.[ %.+.G y.f.L [ 0.6.U p 6 e A N.6 y A %.1.uXK.>XaX-XS.c.2 NX( 1XOX=.m.V N.~.i.ZXZX*Xn 7.V n b.9X8X7X X<Xm @.>.0 k x ",
"8 k z a.d.+.[ +.} | t.z.^ { h.5.U y t e B C.j 9 P @.$.uX,.(.fXhX{.e.j vXg.;Xg.&.y.n ~.V.i.vXGX-XV 8.x g A.$Xc.e.S. X( ! -.8 N b ",
"8 N h f.[.W a %.} P t.f.^ p q.5.) a r 4 A m.l 0 ! ! -.%.;. XaXhX Xe.f 9X}.#X*.P G.9.G.^.u.vXCXcXj h.D g A.1XM.p.k.z.F L -.f N b ",
"j N h d.z.! a | } } t.f.] p 8.5.R u t y y m.x 0 L L kXM | <XaXgX Xr.f ;X X}.>.#.q.8.8.^.u.7XCXMXj 7.k h A.%X/.p.F.,.H y 3.j D b ",
"j N k a.f.! a +.+.L q.c.] [ g.5.( p y 0 p m.n 7 L L HX! B <XpXpX Xe.x -X.X}.,.@.q.q.h.^.r.7XZXFXf k.t r C.%X/.p.j.d.( , >.M M b ",
"8 N l a.[.X.W +.+.} 6.s.] s 9.5.T s u 7 a n.m 0 a A DX#.B <XpXiX Xr.b P..X}.L.P 8.q._ B.C.7XAXSXg 7.N j v.%X#Xp.C.<Xk.4 -.z N x ",
"z N N a.f.W p %.+.L 0.c.' { 9.5.4.y s 0 p j.m 6 a L CX#.r <XsXiXoXy.m K.1X}.T.L  .y.E i.B.(.SXHXV g.V r x.}.%Xw.x.S.D.> *.z M x ",
"h l z a.f.X.a +.@.! 8.s.] { 9.5.g.u u 4 p h.4.6 u S bX,.7 (.E.aX.Xx.g.-X<X|.*XL  .y.H B.V.^.SXSXV g.n r j.Z.$Xw.x.<XZ.> @.j k g ",
"h k r a.f.X.a %.+.L 7.c.d.i / 5.7.s t 4 i h.4.5 a L cX3.e S.T.aX Xv./.mX3X{.9XZ  .B.z i.V.V.GXSXR 9.Y r 0.Z.9Xe.t.z.g., L j B x ",
"1 k 2 a.f.X.[ %.+.S 8.s.'.i _ 5.h.s u 4 i 4.0.6 a L kXE.s Z.R.aX,Xx./.vX0X{.1XN  .B.z i.V.B.FXZX;.T m B 5.}.$Xe.w.g.g.7 A f h f ",
"j z 2 a.f.X.a [ @.} 8.s.d.i  .5.k.y u e y T 6.5 t ! -X=Xi f.Q.iX,Xc.M.cXl.{.1Xc  .i.N ^.V.u.ZXZXL.Y 9.t T b.$Xy.e.M.Z.z t j f f ",
"8 h f a.[.:.a [ %.a R 6.'.e  .5.h.u e e e 9.6.7 u L &XkXs h.).iX#Xv.M.MXd.{.,Xb | ^.g ^.V.r.ZXCX*XV 8.0 m b.%Xj.6.C.A.x I 2 h h ",
"2 f < a.f.:.o.[ #.L  .5.l.e &.5.0.u y e e T 6.6 e +.R.lXe g./.fXU.A.n.CXl.{.}./ L ^.V y.^.u.vXSX-Xx 8.9 n C.%XrXNXG.l.z I 2 z f ",
"w f w a.f.:.W [ %.L ) 5.'.s @.5.6.S y 7 e R t.1 4 L K.bXe g.<XaXW.b.n.vXY. X.X] } y.E q.^.u.vXCXcX1 8.M z v.$XyXBXH.&.M M 2 j f ",
"2 h B a.].:.a [ $.! ~ 5.'.i | 5.5.C y q e H t.7 0 } =.DXi g.S.aXR.S.e.cXMX|.}.` I q.T 0.i.u.7XCXbX6 8.f h v.%X0XNXP.&.D 0 8 j f ",
"2 j j a.[.:.o.[ %.+.@.5.[.y P 0.5.G e 4 e A n.1 4 ! &.DXi Y S.iXdX{.e.9XNX|.|.l.L q.7.8.i.u.7XCXMX3 8.g 1 v.%XyXZXU.` K M 2 j 6 ",
"6 8 7 a.].*.4 I @.! P 7.l.K ~ 7.4.Y 8 5 8 l 0.l Q ~ ) CXI Y <XpX2.}.5.>X6X,X}.l.~ G.7._ N.N./.vXMXF g.R U ~.].#XqXU.H.P.R.7 j 1 ",
"7 j r h b D D V x b D x c v N x x Z D x V D b v v V V z N N f B F V N x v n x x D x x v F x x n b F x A V x F V g x V l j 1 8 j ",
"2 j 6 , B l z k B 8 w 6 8 h 6 t 6 h h 6 B B r 6 B j 8 B h 6 8 z w h z h h j f 8 8 z 8 N B g k h h B B f k B z z f V M k j 6 j 5 ",
"2 j 6 1 f h 1 1 2 1 , 1 1 1 3 3 3 1 1 1 1 1 1 1 , 1 1 1 1 1 1 5 5 2 1 2 1 1 2 2 2 , 1 1 5 2 1 1 6 2 1 2 6 6 5 1 1 2 2 6 2 2 h 1 "
};
