/* XPM */
static char *_____________[] = {
/* columns rows colors chars-per-pixel */
"64 64 256 2",
"   c #B8574A",
".  c #BF5A4D",
"X  c #BD5D51",
"o  c #BE6255",
"O  c #BE645B",
"+  c #B76454",
"@  c #A76458",
"#  c #B46B62",
"$  c #BC776C",
"%  c #B67F76",
"&  c #BE7D73",
"*  c #B87C79",
"=  c #C35D4D",
"-  c #C35F52",
";  c #CD604F",
":  c #C46354",
">  c #C96555",
",  c #CD6A55",
"<  c #C5665A",
"1  c #C9665B",
"2  c #C6695D",
"3  c #CC6B5D",
"4  c #D06B56",
"5  c #D16D5D",
"6  c #D0665E",
"7  c #D3705E",
"8  c #D8715F",
"9  c #C26760",
"0  c #C56C63",
"q  c #CB6D63",
"w  c #C46F69",
"e  c #CC6F69",
"r  c #D16E62",
"t  c #D06F68",
"y  c #DA6F65",
"u  c #C57165",
"i  c #CD7165",
"p  c #C5726C",
"a  c #CC736B",
"s  c #C57B6E",
"d  c #CC7A6E",
"f  c #D37264",
"g  c #D97565",
"h  c #DC7965",
"j  c #D4756B",
"k  c #DA766B",
"l  c #D5796D",
"z  c #DB7A6C",
"x  c #C57573",
"c  c #CB7672",
"v  c #C57C74",
"b  c #CD7973",
"n  c #C67779",
"m  c #C67D7A",
"M  c #CC7D7A",
"N  c #D27671",
"B  c #D87770",
"V  c #D47B73",
"C  c #DB7C73",
"Z  c #D37E79",
"A  c #DB7F78",
"S  c #E37D6B",
"D  c #E07A65",
"F  c #BF8076",
"G  c #BF837B",
"H  c #B58275",
"J  c #CA8375",
"K  c #C3847B",
"L  c #CC837C",
"P  c #C4897E",
"I  c #CA897E",
"U  c #C18175",
"Y  c #D58176",
"T  c #DC8175",
"R  c #D3827C",
"E  c #DB837B",
"W  c #D38B7C",
"Q  c #DD897E",
"!  c #E4806E",
"~  c #E9836E",
"^  c #E48272",
"/  c #E98573",
"(  c #EA8875",
")  c #E28479",
"_  c #E98778",
"`  c #E38A7D",
"'  c #EB8B7A",
"]  c #E78A75",
"[  c #BE8680",
"{  c #BB8C84",
"}  c #BC928C",
"|  c #B59E9B",
" . c #B7ADAF",
".. c #BDA3A0",
"X. c #ACB6BB",
"o. c #BFBDB9",
"O. c #CC8583",
"+. c #C48C83",
"@. c #CC8C83",
"#. c #CD8B8B",
"$. c #D38584",
"%. c #DB8681",
"&. c #D38C83",
"*. c #DB8B84",
"=. c #D0878C",
"-. c #D48A8A",
";. c #DC8D8C",
":. c #C59185",
">. c #CB9285",
",. c #C29189",
"<. c #CC948C",
"1. c #CC998D",
"2. c #C4998F",
"3. c #D49187",
"4. c #D3958C",
"5. c #DB938E",
"6. c #D39A8D",
"7. c #DA9A8C",
"8. c #D89183",
"9. c #CF8F93",
"0. c #D38D91",
"q. c #CF9390",
"w. c #C59C93",
"e. c #CB9B93",
"r. c #C39E9B",
"t. c #CA9E9A",
"y. c #D39494",
"u. c #DA9392",
"i. c #D49B93",
"p. c #D99E94",
"a. c #D0979C",
"s. c #D39E9C",
"d. c #D99F98",
"f. c #E18781",
"g. c #E38B83",
"h. c #EC8F82",
"j. c #E08F88",
"k. c #EC9083",
"l. c #E3928C",
"z. c #E99389",
"x. c #E19493",
"c. c #E29A98",
"v. c #CAA194",
"b. c #C6A39B",
"n. c #CBA39C",
"m. c #CAAA9D",
"M. c #C6AA9F",
"N. c #D7A195",
"B. c #D5A19C",
"V. c #DAA39B",
"C. c #DBA899",
"Z. c #C5A4A2",
"A. c #C9A5A2",
"S. c #C5ABA4",
"D. c #CBACA5",
"F. c #C2A7A8",
"G. c #C7ACA8",
"H. c #CCADAB",
"J. c #D5A5A2",
"K. c #DAA6A3",
"L. c #D5AAA4",
"P. c #DAAAA5",
"I. c #D2ADAB",
"U. c #DBADAB",
"Y. c #D9A5AB",
"T. c #CBB1A6",
"R. c #C6B2AA",
"E. c #CCB2AD",
"W. c #D3B3AC",
"Q. c #DCB2AC",
"!. c #D0B9AF",
"~. c #C6B5B2",
"^. c #CBB5B2",
"/. c #C7B9B3",
"(. c #CDB9B5",
"). c #CABDBA",
"_. c #C5BFBD",
"`. c #D4B5B3",
"'. c #DBB4B2",
"]. c #D3BBB5",
"[. c #DDB9B5",
"{. c #D3BCBB",
"}. c #DDBBBA",
"|. c #E0B5AC",
" X c #E3B1A7",
".X c #E0B6B3",
"XX c #E2BAB5",
"oX c #E2BCBA",
"OX c #C8C5BF",
"+X c #D0C2BF",
"@X c #DBC1BC",
"#X c #E6C2BF",
"$X c #E9C3BD",
"%X c #C4C4C3",
"&X c #CBC4C3",
"*X c #CBC9C4",
"=X c #C6CACC",
"-X c #CBCDCC",
";X c #D4C3C3",
":X c #DCC4C4",
">X c #D5C9C5",
",X c #DDCAC7",
"<X c #D3CFCB",
"1X c #DCCBCB",
"2X c #D5D3CD",
"3X c #DBD3CE",
"4X c #CACED1",
"5X c #DDCED0",
"6X c #CCD4D6",
"7X c #CED7DB",
"8X c #D3D3D3",
"9X c #DCD4D3",
"0X c #D5DBD5",
"qX c #DDDAD4",
"wX c #DCD6D8",
"eX c #D7DBDC",
"rX c #DCDDDC",
"tX c #D3D5D8",
"yX c #E2C3C3",
"uX c #E3CAC5",
"iX c #E0C7C8",
"pX c #E3CCCC",
"aX c #E3D1CF",
"sX c #ECD3CC",
"dX c #E7CFD0",
"fX c #E3D3D3",
"gX c #EAD6D5",
"hX c #E4DAD5",
"jX c #ECDAD5",
"kX c #E3D7DA",
"lX c #E3DCDC",
"zX c #EADBDB",
"xX c #F0DDD6",
"cX c #DDE1DE",
"vX c #E2E0DD",
"bX c #E8E5DE",
"nX c #D7DCE0",
"mX c #E2DEE1",
"MX c #EBDFE1",
"NX c #DEE3E2",
"BX c #DCE3E8",
"VX c #E4E4E3",
"CX c #E9E4E4",
"ZX c #E4E8E6",
"AX c #E3E7E8",
"SX c #E5EBEB",
"DX c #EBEDEC",
"FX c #E8E9E5",
"GX c #EDF1EE",
"HX c #F1F2EE",
"JX c #EBEFF0",
"KX c #EDF3F2",
"LX c #F2F5F3",
"PX c #F4F9F6",
"IX c #F4FAFA",
"UX c #F9FDFD",
/* pixels */
"{.H.H.H.H.H.{.`.^.{.{.{.:X`.'.{.VX&X'.U.I.`.'.'.`.oXyXpX:XyX:X}.}.}.}.[.[.yXyXiXpXpXyXgXgX1XpXkXMXLXwX:XyXdXyXoXXXyXuXoXoXoXXXXX",
"0 q < 3 q f - 0 > q q q e t B m eXO.l B k t t y 6 r r t t k y e B B j y B B B B k k y r B k S k i.KXj S / ` / / S ' ( ~ ( ( ' ' ",
"0 w 2 q 3 1 i V q 2 c 3 e q q I _.3 t r r t q t t t j k k B j C j B B A S A C S k k k k ) C C C 3.SXz ^ ^ ^ g.^ S ^ / / ( ( k.' ",
"< q 0 e 0 3 q q e t 1 < q t q $.&Xr %.t r < 0 y B y y t C Z l k l j j B B B B C A k k k A f.B C <.VXj ^ ~ S ^ ^ S ~ ^ z.^ ( ( ' ",
"9 q i 3 2 2 q q r 3 0 1 e q q &.<Xt j t j 1 6 j l N t B j A t k N B B y j A A S C C k g k A B k 5.NXl ~ ! ! ~ S ^ S S S ~ h.' ' ",
"q 0 < < 1 a c q q i 1 i 3 e i *.<Xq B N V f 6 j j j j j j y g l B B j k j B C g.B S g C E f.E k >.ZXl ! ! ] ~ ! h ) h ^ / ~ ] / ",
"< q 2 1 1 1 q q 1 3 < 1 1 r 3 4.kX6 f r q 6 q r j r j t t C t k j C B B C B f.B k z f C A C A C 6.NXE ^ ~ ) ! D D ^ ^ ~ / ( ^ ( ",
"2 2 < 1 q q < > 3 l d X a < 2 p.9Xr j j r g i r t j k k A A y %.j C y l.B S A C A A j k B g %.k #.AXj z h ! ! z j g D ~ ^ / ( ( ",
"q 9 3 q 1 q 1 q q e < 2 q f Z 4.3X4 f k j r q y f k j f.%.x.j k A C E C z k x.z %.z k z l C j E i.FXz ` ) _ ! S z._ D ( ^ h.( ( ",
"& v K P :.& v P K K P +.r.+.2.W.lX].W.m.A.n.n.q.i.1.6.e.i.@.4.>.>.@.O.I J 8.J J 3.I W 5.8.W @.U b.FX1.C.6.1.6.6.6.6.N.1.7.>.6.W ",
"nXFXNXAXAXDXDXDXLXGXLXLXDXKXGXGXLXDXLXDXHXHXLXLXIXPXPXJXGXLXLXLXLXLXLXHXLXIXLXPXHXPXLXLXIXLXPXHXHXHXGXLXDXLXGXLXLXGXGXDXGXFXbXGX",
">XY.J.B.s.B.J.s.B.Y.J.B.K.B.'.'.B.s.Y.P.P.Q.oXoX'.iXpXpXdXMXzXMXHXDXDXaX:XiXoXyX[.VX#XXXQ.XXXX'.W.'.'.W.P.K.'.oXB.K.P.|.Q.B.[.J.",
"..4 : > q r i r N q r q r j q q 6 q f j f A l C k y j A E k z ;.$XgX6 k j i g h z k A g k S j a l j j Y l z g D z g f z C 5 3 N ",
"..3 > > i 2 q r a > q r 3 f r f j r l i j B r B 1 g l ) f g A E sXgXr C V j z T A k C Q f.B Y c N l V Y l Y ^ C z f 5 Y g f 2 j ",
"F., q q : 1 q q q 1 q 3 q j r q l i 1 f r q r 3 4 r r k r r Q C sX@Xg k i V z j C k A %.C C B N d j d V l l E g h 5 4 h g i 3 7 ",
"F.> a 0 2 2 q 3 3 q 2 f r q t r f i 3 j 6 r f r j r B l i f j y sX@XC C *.a z z k Q c.k C A C V Y a V T Y j z *.z g f E 5 5 f l ",
"R.> q : > q 3 e 1 3 1 $.t r r e r q q 3 5 r q r 5 f r l r r r k xX`.l z a i f k k E %.z z z l V V V E Z V l z z Q 7 %.f f V 5.i ",
"H.r 3 : > < i M d q 3 r j q j q q 1 1 q A j f B f 3 r r r l l r xXP.q l j j g g g A R k z A l V R V Y Q T ;.h j g 5 N r N l 7 g ",
"(.3 2 2 : q q R M x 1 l L q j t 6 q l l C f z Z f 5 3 f k l V y jXi.Y ` j z l C g z f 5 z C R J V l Y V j Y 3 C g 4 5 l i 7 f f ",
"H.3 - e a a c =.=.$.Z c q j t j k j q r j r j f 5 l f f f g C g jXq.*.*.T E z z g l r *.k C h f l T V Y l j l g z l f ) h f z j ",
"-Xb.w.b.S.^.E.(.(.(.E.R.S.E.G.G. .E.b.W.A.E.b.W.n.m.n.e.v.e.2.+.lXE.n.2.2.b.e.b.n.n.w.b.m.v.v.S.T.S.A.T.S.R.D.n.m.R.R.S.T.T.M.!.",
"SXSXBXSXAXBXGXGXDXKXKXGXKXDXKXSXDXZXKXJXIXKXKXIXKXLXLXKXKXKXSXPXPXUXIXKXPXHXKXKXLXKXGXDXKXKXKXGXHXFXVXzXbXCXDXSXDXGXKXLXPXKXLXKX",
": o : 0 < i v #.9.=.v M b b c w hXA.q c a q q d b d c L M R R L &.L L V Z M L R &.R L R *.R &.*.1.hXS.5 j g k k g l B j l V V V ",
"2 i e > q < x 9.M x q q 3 x q 1 vXn.q N d t q r f j j j V j j C Y j z f l z C z C l h z f z T z g @X^.Q k k z z k z z j f A T T ",
": i a = ; 1 u R M 0 x 3 q 0 q 3 hXb.d e 3 r 3 R 5 i f q V i R f V l f z f C z V j z g j ` z z g W >X^.B k l g z g ^ T V z l g h ",
": M - > : 2 a J m b p 0 q i < 1 CXG.t 3 r 3 q N 5 3 j f q R l f j z R N V f f V 7 g f l j z l z = uX;XC g g C z C z j l V k f f ",
": -.: > : > q 0 #.x < e 0 a q K.JXt.V a > q 3 3 3 3 f r 3 5 3 3 j l 5 4 5 7 5 f f l 5 f z f g l 4 aX].5 f 5 z C k f C j V T f g ",
"< < 0 0 > : c 0 b b a x 0 i e d DXt.3 3 j N q 3 3 i f 1 3 4 7 j f 5 3 4 8 r g C g 4 7 7 7 h h T z hX(.C g k 7 C k g f 7 q d 8 7 ",
"b 2 0 -.a > 3 3 a c b i d a i 0 VXt.3 d t b i 3 q l N f 3 5 f 7 f j i f j j i g g f 4 3 f 8 g z z hXW.8 7 f j 7 g 7 z i f g 3 8 ",
"p i e L d 2 L 1 a M =.-.Z a a 0 DXt.V j q r i 6 3 5 f q f j f 3 j T 3 i j 7 5 7 j g f 8 8 h 8.g 5 hXH.g g ! 7 T T z T f V T T g ",
"0 d x c n 0 2 2 x $.M O.p 3.M w CXA.L o e d q d 3 3 i q V 8 r l &.k f i f l z E T h g g l j g g f hXE.d J u + 3 Y l V Y R T *.Q ",
"<X8X2X*X-XOX%X*X&X%X*X2X8XtXeX2XCXrXrXZXDXSXVXVXcXbXlXrXqXqXhXhX2X9X2X3X2XhXrX2X3XvXhXhX<XaX3X3XhXcXGXvXcXcX0XcX0X0XcX2X8XqX2X2X",
"CXSXVXwXrXlX1XkX5XlX1XpX,XiX1XpX:X,X:X:X{.,X:X:X1XfX9X1XkXbXkXMXCXHXSXJXDXCXmXAXDXAXDXLXKXJXmXAXVXVXDXJXlXNXrXVXlXAXcXAXDXDXKXAX",
"P.9Xp 1 3 a Z a b 2 v W c $.d x b j t V B j N l B N C f f c f 7 g  XZ.9 # x =.e M m M a w w p 0 0 c e e w q a a i l N N Z N i L ",
"J.>X0 0 a 0 x 2 q q 1 i M q q b c j c V V Z N f a l l i f i V f E |.H.l u c Z c b v c Z l V N l l Z N V i R N Y Z A Q Q *.E E Z ",
"B.:X< 2 0 < < < a q 2 2 2 i a -.Z e a d $.Z V i q l R j j r R 3 f Q.H.i b i M V d c N u.N l V l u 7 l V c Q T C %.Q Z V l E Y V ",
".X>X< o : O : 2 0 2 a e a q R b i q c q V i V d q V l a u 7 i j 5 |.D.i i i i a c d R *.f f N l l i z N Z R R l *.Q f Y R C V C ",
"V.9XX : < c 0 e w 2 2 a x b 0.p q q q 3 3 a 0 i l e 3 a V a i d f Q.I.i u q 3 f d i V R Z l i j j l l l N A T j C z E R V l Q l.",
"6.9Xn x 2 0 < w : 0 M O 0 p M x 0 a i q q j 7 M a > i j i i i , q Q.G.q i , 7 q 3 i d N y.R l j a j ;.V i z Y l C V j Y j E Y E ",
"<.8XO w < O : : > u : < c M Z a a d M $.d i 3 2 i c a 3 a d 7 i 5 Q.Z.i 7 i i i 3 i j Z y.N l l i i d V Y l f E C V Z h T *.E C ",
"4.rXx < O M - 9 M n < d n 0 b e c c $.Z a a q 3 3 q i N l i 3 i u W.m.g i l a j V i i Y d V f l l l R V M l l f b R V Y Y Q C *.",
"I.nX* O.K K +.& & P K P % +.t.+.P +.e.e.+.[ P +.+.+.+.+.+.J s s L [.^.P & U & v & $ @ $ & & # i O.# M $ s P u u d s i L b s &.u ",
"mXAXKXJXJXSXVXAXSXKXDXKXDXDXDXJXDXJXJXSXSXDXDXAXAXDXSXAXNXrXSXNXVXDXCXeXZXNXZXcX0XeX0X0XNX0X0XNXcXSXNXcXcXcXNXZXvXDXKXGXSXCXZXZX",
"fX1XmXKXSXmX1XwXfXwX5X1XpXwXwXVXDXDX:X5XwX1XwX9XfX<X<XrX9XtXwXVXKXVXVXVXMXVXAXlXrXVXrXvXrXmXlX9XrXFXDXlXbXzXzXfXjXjXkXzXjXaXgXpX",
"a 9 X w M 0 o < 9 q b V q < 3 < 7.VXx d w V i a q i b i a a , q c w u u a i a J i f u j u.l d f l y.AX! ] ^ ^ k.' z.` ` ' ( ] ' ",
"0 : 2 2 < < 0 c a < c c b j j d 4.NXi f j a V 0 3 j i 3 a l f 3 7 a 3 u f f 7 f f j i j f *.g c.V Q CXT ! ! T z l.Q ^ ! ^ g.~ g.",
"n < X 2 < 9 2 c a e x x e e 3 a i.-Xi 3 i l j B j f g f j T Y f f i f : Y l f l j f j j f f 3 E z Y SXT p.h 7 ! ! T E Q z ! T Q ",
"o < 0 < q < q 0 9 a Z b p e a a i.-Xo @.j V V Z l Z 7 Y j R j 7 j g l 3 i l 7 f j f j 7 j Q g 5.T V DXh 8 7 ! h 8 T Q ` T ! T ` ",
"o x 0 x < X < 2 < c n M q 0 x 3 p.4Xi j l u.Y V l E *.j 7 7 V i 7 3 i i f , j i 7 V V 7 3 f E z l 8.DXE g h l g h h T Q T ! h T ",
"p u # #.w q 0 q q n n b q d L l .XeXi j i Q E l $.V f 7 j l Y 7 5 7 , 2 l l 7 4 f h 7 3 3 l l f f *.DXh z T 8 h g ! z h ` h 7 h ",
"w X c 0 w < q q 2 q M 0 a q q q Q.tXp < l V a a j Y j g N Y 7 i i l 7 > a g l j g j V 6 5 f f 5 Y 7.DX*.z ! ` z g z g z 8 T ] T ",
"a e b q 1 e q q q i b 0 3 i r 3 V.tXb V a R b u 3 j i f V l j j l l f l f j f g l T E f f E 7 T k *.FXz z h g T T h h h T ! ` ^ ",
",.{ } { ,.,.r.t.H.A.n.t.n.r.r.e.`.DX| } H { Z.,.{ 1.P I @.<.O.-.P P I J R 8.I O.3.i.i.3.W 8.p.4.p.Q.FXB.N.i.K.4.p.p.p.7.7.N.C.C.",
"LXJXJXnX7X7X4X6X=XeXnXnX6X=XX.=XnXnXtX-XeXeXVXrX0XcXrXeXeXNXSXSXGXUXGXKXIXKXLXIXLXKXKXKXUXUXUXUXUXKXLXIXLXHXLXJXDXDXHXLXGXFXDXGX",
"IXUX^.H.{.I.`.I.`.L.L.A.Y.t.I.;XkX1X:X;X}.fXkXfXCXKXkXDXCXVXDXCXLXKXCXA.L.K.K.'.'.yXoXXX|.yXXX'.}.}.XXoX#XXXoXuXyXpXpXdXfXpXfX9X",
"n nXw 9 . 9 - - - > q 1 1 q q p =.y.c i e a j i 2 a q q a a $.j q i.rXq a i f a r l k l l j j *.C C E C l f g.z ^ z C h z ) h z ",
"p 8Xa.: < e 1 - q 0 0 > < 1 q 0 4.Y.n e 0 b x d < q a a a d $.Z V B.hXq 1 3 a 7 a 7 i i f 7 7 Y i i f f 5 j j 7 z f 7 l 7 h 7 Q ",
"v =XX - q < q < e q e - < c q 0 < O.#.q < x 2 q i e < N 0 d N $.d B.rXo , u 2 a 2 R d 7 3 , f i f 3 7 f a , 7 Y Y 7 l 7 7 7 h 7 ",
"v _.. q < - e < 9 q q 9 : x 0 x : 0 n d 3 e < 0 3 a : c q e $.M 1 K.VX2 , i J d 0 , 4 3 7 j 3 5 i f l 7 u 4 , 7 7 l 7 7 Y , 4 T ",
"m  .  - 3 q q 1 q e n q 1 a 9 X 2 n 0 a e < q : q 2 2 < R q b < i Q.lXp 2 3 3 , , , 7 i i 3 5 i 5 8.j 3 7 4 5 5 l , 7 7 4 8 5 W ",
"O.o.O < 3 > q 9 e 9 x - < b 3 w p < < q q e 0 2 > : 2 e a 0 q a $.L.lXu i R i i > 5 j 5 f 3 i 3 3 N j 7 3 3 3 j 7 4 , 4 f 4 7 7 ",
"u nXx e - q e p q 9 - q 0 9 x w - O 0 0 M 2 q a b q 1 : O.e > : 3 P.rX0 i *.3 q , 5 i l j f , 7 d i V a : *.z 7 7 7 7 7 T , , 7 ",
"v 6XX . - 9 9 w e t c e q M q q q 0 e V e t l Z r t d j 0 R 3 j q P.8Xl f Y f 7 6 > r g f 5 j f T R l h V C i f g l j 7 8 7 7 8 ",
"E.BX&X_.).~.{.+X(.^.~./.~.).(.+X/.R.^.~.{.(.`.H.Z.A.w.Z.n.E.w.A.D.,XCX).(.{.].R.E.W.W.m.E.n.n.n.I.n.w.v.1.:.<.1.:.:.>.P J J W J "
};
