/* XPM */
static char *_____________[] = {
/* columns rows colors chars-per-pixel */
"64 64 256 2",
"   c #000000",
".  c #020202",
"X  c #050505",
"o  c #070707",
"O  c #0A0A0A",
"+  c #0C0C0C",
"@  c #0F0F0F",
"#  c #111111",
"$  c #141414",
"%  c #161616",
"&  c #191919",
"*  c #1B1B1B",
"=  c #1E1E1E",
"-  c #202020",
";  c #232323",
":  c #252525",
">  c #2F2F2F",
",  c #323232",
"<  c #343434",
"1  c #373737",
"2  c #393939",
"3  c #3C3C3C",
"4  c #3E3E3E",
"5  c #414141",
"6  c #434343",
"7  c #464646",
"8  c #484848",
"9  c #4B4B4B",
"0  c #4D4D4D",
"q  c #505050",
"w  c #525252",
"e  c #575757",
"r  c #5A5A5A",
"t  c #5C5C5C",
"y  c #5F5F5F",
"u  c #616161",
"i  c #646464",
"p  c #666666",
"a  c #696969",
"s  c #6B6B6B",
"d  c #6E6E6E",
"f  c #787878",
"g  c #7A7A7A",
"h  c #7D7D7D",
"j  c #7F7F7F",
"k  c #818181",
"l  c #848484",
"z  c #868686",
"x  c #898989",
"c  c #8B8B8B",
"v  c #8E8E8E",
"b  c #909090",
"n  c #939393",
"m  c #959595",
"M  c #989898",
"N  c #9A9A9A",
"B  c #9D9D9D",
"V  c #9F9F9F",
"C  c #A2A2A2",
"Z  c #A4A4A4",
"A  c #A7A7A7",
"S  c #A9A9A9",
"D  c #A9A9AB",
"F  c #ACACAC",
"G  c #AEAEAE",
"H  c #B1B1B1",
"J  c #B3B3B3",
"K  c #B6B6B6",
"L  c #B8B8B8",
"P  c #B8B8B9",
"I  c #BBBBBB",
"U  c #BBBBBC",
"Y  c #BDBDBD",
"T  c #BDBDBF",
"R  c #C0C0C0",
"E  c #C2C2C2",
"W  c #C5C5C5",
"Q  c #C7C7C7",
"!  c #C7C7C9",
"~  c #CACACA",
"^  c #CACACC",
"/  c #CCCCCC",
"(  c #CCCCCE",
")  c #CFCFCF",
"_  c #CFCFD0",
"`  c #D1D1D1",
"'  c #D4D4D4",
"]  c #D4D4D5",
"[  c #D4D4D6",
"{  c #D6D6D6",
"}  c #D6D6D8",
"|  c #D9D9D9",
" . c #D9D9DA",
".. c #D9D9DB",
"X. c #DBDBDB",
"o. c #DBDBDD",
"O. c #DEDEDE",
"+. c #DEDEDF",
"@. c #DEDEE0",
"#. c #E0E0E0",
"$. c #E0E0E1",
"%. c #E0E0E2",
"&. c #E3E3E3",
"*. c #E3E3E4",
"=. c #E3E3E5",
"-. c #E4E4E2",
";. c #E4E4E3",
":. c #E5E5E5",
">. c #E5E5E6",
",. c #E5E5E7",
"<. c #E6E6E4",
"1. c #E8E8E8",
"2. c #E8E8E9",
"3. c #E8E8EA",
"4. c #EAEAEA",
"5. c #EAEAEB",
"6. c #EAEAEC",
"7. c #EDEDED",
"8. c #EDEDEE",
"9. c #EDEDEF",
"0. c #EFEFEF",
"q. c #EFEFF0",
"w. c #EFEFF1",
"e. c #F2F2F2",
"r. c #F2F2F3",
"t. c #F2F2F4",
"y. c #F4F4F4",
"u. c #F4F4F5",
"i. c #F4F4F6",
"p. c #F7F7F7",
"a. c #F7F7F8",
"s. c #F7F7F9",
"d. c #F9F9F9",
"f. c #F9F9FA",
"g. c #F9F9FB",
"h. c #F9F9FC",
"j. c #FCFCFC",
"k. c #FCFCFD",
"l. c #FCFCFE",
"z. c #FEFEFF",
"x. c #000000",
"c. c #000000",
"v. c #000000",
"b. c #000000",
"n. c #000000",
"m. c #000000",
"M. c #000000",
"N. c #000000",
"B. c #000000",
"V. c #000000",
"C. c #000000",
"Z. c #000000",
"A. c #000000",
"S. c #000000",
"D. c #000000",
"F. c #000000",
"G. c #000000",
"H. c #000000",
"J. c #000000",
"K. c #000000",
"L. c #000000",
"P. c #000000",
"I. c #000000",
"U. c #000000",
"Y. c #000000",
"T. c #000000",
"R. c #000000",
"E. c #000000",
"W. c #000000",
"Q. c #000000",
"!. c #000000",
"~. c #000000",
"^. c #000000",
"/. c #000000",
"(. c #000000",
"). c #000000",
"_. c #000000",
"`. c #000000",
"'. c #000000",
"]. c #000000",
"[. c #000000",
"{. c #000000",
"}. c #000000",
"|. c #000000",
" X c #000000",
".X c #000000",
"XX c #000000",
"oX c #000000",
"OX c #000000",
"+X c #000000",
"@X c #000000",
"#X c #000000",
"$X c #000000",
"%X c #000000",
"&X c #000000",
"*X c #000000",
"=X c #000000",
"-X c #000000",
";X c #000000",
":X c #000000",
">X c #000000",
",X c #000000",
"<X c #000000",
"1X c #000000",
"2X c #000000",
"3X c #000000",
"4X c #000000",
"5X c #000000",
"6X c #000000",
"7X c #000000",
"8X c #000000",
"9X c #000000",
"0X c #000000",
"qX c #000000",
"wX c #000000",
"eX c #000000",
"rX c #000000",
"tX c #000000",
"yX c #000000",
"uX c #000000",
"iX c #000000",
"pX c #000000",
"aX c #000000",
"sX c #000000",
"dX c #000000",
"fX c #000000",
"gX c #000000",
"hX c #000000",
"jX c #000000",
"kX c #000000",
"lX c #000000",
"zX c #000000",
"xX c #000000",
"cX c #000000",
"vX c #000000",
"bX c #000000",
"nX c #000000",
"mX c #000000",
"MX c #000000",
"NX c #000000",
"BX c #000000",
"VX c #000000",
"CX c #000000",
"ZX c #000000",
"AX c #000000",
"SX c #000000",
"DX c #000000",
"FX c #000000",
"GX c #000000",
"HX c #000000",
"JX c #000000",
"KX c #000000",
"LX c #000000",
"PX c #000000",
"IX c #000000",
"UX c #000000",
/* pixels */
"h h h h h h g g h j k k k l j h k k k j j j k k j h g g g g g g f g g g j h h f h h h j c n B C M c z l l z l l z l z k l z z l ",
"F H H S S S F F F F G F G H F S S F F F S S F F F S S A Z C C A A Z Z A A S A A Z S S A S S G K Y Q E R I K H G H H G H H H H H ",
"G G H G G G G F F G G H H H G G F F G F F F F F F F F S S A S F F S F F G F F G A A S S G G F G G J Y W Q Q W R Y L L K J J J G ",
"k z x c c x z z z c c c b c c z k k l j k l l l l l l k l z l z l k l z z l l l l h j j l k l k z c x x n N V C A A S A A B M b ",
"                                                                                                                                ",
"                                                                                                                                ",
"    . O O @ % - - ; : ; * @ @ .                     X O # % * = = - * & @ o                       . O * * - * ; - % $ $ # o     ",
"N M N B V V Z Z A A C A A C V N m n c x v v b b M M B V V C Z Z C Z Z A V V M n b v c n c c b n M N V Z C S Z S C Z Z C C B B B ",
"R R E W W Q Q ~ / / / / ~ Q W E Y K K J L L L I Y E R R W W Q W W ~ ~ ~ Q W E I I L K Y K K L I Y R W W Q Q ~ ~ ~ ~ Q W W E R Y ",
"I R W W Q ~ / / / ) ) ) / ~ Q W R L H K K K K K Y E W ~ Q ~ ~ / / / / / ~ Q Q R I K L J K K L I R W Q ~ / / / / / ~ ~ ~ Q W R Y ",
"I E Q / ) ' { | | | { { ' ` / ~ E I L I K L Y Y E Q ~ / ` ' ' { { { ' ` ) ~ Q W E I Y K I L Y E Q Q / ` ' ' ' ' ' ' ` / ~ Q W E ",
"R Q / ` ' | O.#.&.O.X.X.| { ` / Q E Y I I I R E Q / ) ' { | X.{ | | | | { ` ~ ~ W R Y I I Y R Q Q ` ' { O.X.{ ' { | { ` ~ Q W R ",
"W / ) { X.#.O.O.| ' ' X.X.X.{ ` ~ E E R R I E W ~ ) ' | X.O.` W W ` { { | { ` ~ W W R Y I R W ~ ) ' | X.X.` E W ` { | { ' / Q W ",
"Q / { O.#.#.{ Q _ [ ( Q X.#.X.{ ) W W R R W E Q / ' | O.#./ P D D L E ` X.| ` ) Q W E R E W Q / { X.O.| W L C Z L W ' | { ` / Q ",
"/ ' X.&.&.X.] q.i.i.i.3./ O.O.X.' ~ Q W E W W / ` | X.O.` T t.s.g.u.%.U ' O.' ) ~ W E R R Q ~ ' | O.O.~ } w.i.r.w.^ ! X.X.{ ` ~ ",
") | &.4.1.' t.s.l.l.l.g.w.` #.#.| ` / Q W W Q / ' O.#.X.R g.l.l.l.l.s.@./ X.X.' ) ~ W W Q ~ ) | O.#.) _ i.s.s.t.s.s.( ` #.O.| ) ",
"' O.1.4.&.0.g.z.z.z.z.h.s.%.X.&.| ' / ~ Q Q ~ ` { #.&.~ g.l.z.z.z.l.g.g./ X.O.{ ` ) Q Q ~ ~ ' | #.#.E t.s.s.g.l.s.g.i.Q #.#.X.' ",
"| #.4.4.$.a.z.z.z.z.z.z.l.s.O.1.#.| ` / / / / ' | &.>._ z.z.z.z.z.z.z.l.r.| :.X.' ) / / / ) ' X.:.#.6.i.l.l.z.z.l.l.s.&.O.:.#.| ",
"X.:.7.7.1.l.z.z.z.z.z.z.z.g.&.4.-.X.' ) ) ) ` { O.1.#.g.z.z.z.z.z.z.z.z.s./ &.O.| ` ) ) ) ' { #.4. .i.z.l.z.z.z.z.z.l.a.X.1.&.O.",
"O.4.0.7.e.z.z.z.z.z.z.z.z.z.4.7.<.O.' ` ` ` ' X.#.1.:.z.z.z.z.z.z.z.z.z.z.| 4.#.X.' ` ` ) ' X.&.4.O.i.l.z.z.z.z.z.z.l.f.&.7.:.#.",
"O.4.0.7.p.z.z.z.z.z.z.z.z.z.q.0.1.&.{ ' ' ' ' X.&.0.>.l.z.z.z.z.z.z.z.z.z.1.7.:.O.{ ' ' ' { #.1.0.1.l.z.z.z.z.z.z.z.z.g.:.e.1.:.",
"#.4.e.0.g.z.z.z.z.z.z.z.z.z.t.e.7.:.X.' ' ' { #.:.0.4.z.z.z.z.z.z.z.z.z.z.9.0.1.#.| ' ' ' { #.1.e.2.z.z.z.z.z.z.z.z.z.l.5.e.7.1.",
"&.4.y.e.g.z.z.z.z.z.z.z.z.z.t.y.e.:.O.| { { | #.1.e.8.z.z.z.z.z.z.z.z.z.z.9.e.4.&.| { ' { | #.4.y.4.z.z.z.z.z.z.z.z.z.l.9.y.7.1.",
":.4.y.y.g.z.z.z.z.z.z.z.z.z.s.p.e.4.O.X.{ | | &.1.e.8.l.z.z.z.z.z.z.z.z.z.w.y.7.:.O.{ { | X.&.7.y.7.z.z.z.z.z.z.z.z.z.g.q.p.7.4.",
":.7.p.y.g.z.z.z.z.z.z.z.z.z.i.p.y.4.#.O.X.| O.&.7.y.r.l.z.z.z.z.z.z.z.z.z.e.p.0.:.O.| { { X.&.7.p.q.z.z.z.z.z.z.z.z.z.l.u.p.7.4.",
"&.7.p.p.g.z.z.z.z.z.z.z.z.z.i.d.y.7.&.O.X.X.O.:.7.y.r.l.z.z.z.z.z.z.z.z.z.y.p.e.1.#.| | | O.:.0.p.q.z.z.z.z.z.z.z.z.z.l.i.p.0.4.",
"&.7.p.p.g.z.z.z.z.z.z.z.z.z.i.d.e.7.&.#.O.O.O.:.7.y.r.z.z.z.z.z.z.z.z.z.z.y.p.e.4.#.X.| | O.:.0.p.r.z.z.z.z.z.z.z.z.z.l.i.d.0.4.",
"&.7.p.p.p.z.z.z.z.z.z.z.z.z.s.j.y.0.#.O.O.O.#.:.0.p.r.l.z.z.z.z.z.z.z.z.z.e.d.e.4.&.X.X.| O.:.0.d.r.l.z.z.z.z.z.z.z.z.z.p.p.0.4.",
"&.7.p.p.d.z.z.z.z.z.z.z.z.z.s.j.p.0.&.#.O.O.&.1.7.p.u.l.z.z.z.z.z.z.z.z.z.y.d.e.4.&.X.X.X.#.1.0.d.r.l.z.z.z.z.z.z.z.z.z.p.p.0.4.",
"&.7.p.d.d.z.z.z.z.z.z.z.z.z.s.j.y.7.:.#.O.O.&.4.7.p.p.l.z.z.z.z.z.z.z.z.z.y.d.e.4.&.O.X.X.#.1.0.j.r.l.z.z.z.z.z.z.z.z.z.p.p.0.4.",
"&.7.y.j.j.z.z.z.z.z.z.z.z.z.s.d.y.7.:.&.#.#.&.1.7.p.a.z.z.z.z.z.z.z.z.z.z.y.d.0.7.&.O.O.X.#.1.0.d.y.z.z.z.z.z.z.z.z.z.z.p.p.0.4.",
":.4.p.j.j.z.z.z.z.z.z.z.z.z.i.j.y.7.:.&.#.#.&.4.0.p.a.z.z.z.z.z.z.z.z.z.z.y.d.e.4.&.O.O.X.#.1.0.d.y.z.z.z.z.z.z.z.z.z.z.p.p.0.4.",
"&.7.p.j.j.z.z.z.z.z.z.z.z.z.i.j.p.0.:.&.#.&.:.4.e.p.a.z.z.z.z.z.z.z.z.z.z.y.d.y.4.&.O.O.X.#.1.0.d.y.z.z.z.z.z.z.z.z.z.z.p.p.0.1.",
":.0.d.d.k.z.z.z.z.z.z.z.z.z.i.j.p.0.1.#.#.&.:.4.0.p.a.z.z.z.z.z.z.z.z.z.z.y.d.y.4.&.X.X.O.&.1.e.d.y.z.z.z.z.z.z.z.z.z.z.p.d.7.:.",
":.0.p.p.d.z.z.z.z.z.z.z.z.z.i.j.p.0.1.#.#.&.:.4.e.p.a.z.z.z.z.z.z.z.z.z.z.y.d.y.4.&.O.O.O.&.1.e.d.y.z.z.z.z.z.z.z.z.z.z.p.p.0.:.",
":.7.p.p.d.z.z.z.z.z.z.z.z.z.i.j.p.0.4.&.&.:.1.7.e.p.a.z.z.z.z.z.z.z.z.z.z.y.d.y.7.&.O.O.O.&.1.e.d.y.z.z.z.z.z.z.z.z.z.z.p.p.0.:.",
":.7.p.p.g.z.z.z.z.z.z.z.z.z.i.j.p.e.4.:.:.:.1.4.e.d.a.z.z.z.z.z.z.z.z.z.z.y.d.y.7.&.O.O.#.#.1.e.d.y.z.z.z.z.z.z.z.z.z.z.a.d.0.1.",
"&.7.p.p.d.z.z.z.z.z.z.z.z.z.i.j.p.e.4.1.&.&.:.1.0.p.u.z.z.z.z.z.z.z.z.z.z.y.d.e.7.&.O.O.O.#.1.0.p.r.z.z.z.z.z.z.z.z.z.z.a.p.0.1.",
"#.4.p.e.j.z.z.z.z.z.z.z.z.z.i.d.p.e.4.1.&.&.:.1.7.p.u.z.z.z.z.z.z.z.z.z.z.y.p.e.4.&.O.X.O.#.1.7.p.q.z.z.z.z.z.z.z.z.z.z.a.p.0.4.",
"#.1.y.e.l.z.z.z.z.z.z.z.z.z.s.d.y.0.1.&.#.&.&.1.0.y.t.z.z.z.z.z.z.z.z.z.z.0.p.0.4.#.#.| X.O.:.7.y.0.l.z.z.z.z.z.z.z.z.l.r.p.0.4.",
"&.1.e.e.j.z.z.z.z.z.z.z.z.z.s.p.y.7.1.#.#.#.&.4.7.y.e.z.z.z.z.z.z.z.z.z.z.0.y.7.4.#.O.O.| O.:.4.y.7.l.z.z.z.z.z.z.z.z.l.9.y.0.1.",
"O.:.0.7.d.z.z.z.z.z.z.z.z.z.i.y.e.4.:.#.O.#.&.1.7.y.0.z.z.z.z.z.z.z.z.z.z.0.e.7.1.O.X.| | X.&.1.e.4.l.z.z.z.z.z.z.z.z.z.5.e.7.1.",
"#.&.7.7.f.z.z.z.z.z.z.z.z.z.t.y.0.4.&.O.O.#.#.1.7.e.6.z.z.z.z.z.z.z.z.z.z.0.e.7.1.#.| { | X.&.1.0.:.l.z.z.z.z.z.z.z.z.z.:.0.4.:.",
"| #.1.4.p.z.z.z.z.z.z.z.z.z.9.e.0.1.&.O.O.#.#.1.4.e.7.z.z.z.z.z.z.z.z.z.z.:.e.4.&.O.{ { ' | O.:.7.$.l.z.z.z.z.z.z.z.z.l.1.0.4.&.",
"{ #.1.4.7.z.z.z.z.z.z.z.z.z.9.7.4.:.#.X.O.O.O.:.1.y.7.z.z.z.z.z.z.z.z.z.z.X.0.7.&.| ' ' ' { X.&.4.&.z.z.z.z.z.z.z.z.z.z.1.7.1.#.",
"' X.&.4.:.z.z.z.z.z.z.z.z.z.5.7.1.#.O.| X.X.X.#.:.4.0.+.z.z.z.z.z.z.z.z.k.4.e.4.O.| ` ) ` ' { X.:.1.w.z.z.z.z.z.z.z.z.w.0.4.&.O.",
"` | O.#.4.d.z.z.z.z.z.z.z.t.7.:.&.O.| { { | | X.&.4.e.:.z.z.z.z.z.z.z.z.:.7.1.&.X.' ) ) ) ` { X.&.1.| z.z.z.z.z.z.z.z.+.7.1.O.{ ",
"~ ' X.#.1.&.z.z.z.z.z.z.z.:.4.:.O.| { { { | | O.#.1.0.7.#.z.z.z.z.z.z.i.1.0.4.O.{ ' ) / ) ) ' { O.:.:.2.z.z.z.z.z.z.>.4.7.:.X.' ",
"~ ` { X.#.1.2.z.z.z.z.d.&.4.&.#.| ' ` ' ' ` | { X.#.1.7.7.$.z.z.z.z.f.%.7.1.#.{ ` ` ~ ~ ~ ~ / ' X.#.:.#.w.z.z.z.z.3.1.7.;.O.{ ) ",
"Q / ` | X.#.&.&.2.6.,.&.1.:.#.X.' ' ` ) ` ` { ' | O.&.1.7.1.*...@.&.&.7.1.&.X.` ` / ~ Q Q ~ / ` { O.#.:.3.@.} } o.=.1.:.#.| ) / ",
"W / / ' | X.#.#.&.&.&.:.&.O.| ' ) / ~ ~ ~ / ` ` { | O.#.:.1.1.1.1.4.1.:.&.X.{ ` / ~ W W E Q / ) ` { O.&.:.&.1.:.:.1.&.O.| ' / W ",
"R ~ ~ ` ' | X.X.O.O.#.#.X.{ ) / / ~ ~ Q E / / ) ' { | | #.#.1.&.1.&.&.#.O.{ ` ) ~ Q W R E W ~ ~ / ' | X.O.#.#.&.#.O.X.| ` ) ~ W ",
"R W / / ) ) ' { | | { | ' ` / ~ Q E Y W E Q Q / ` ' { { | X.O.O.#.#.O.X.X.' / Q Q E E R W R E Q / ) ` ' | X.O.O.X.| { ` ) / W R ",
"Y E W Q ~ ) ) ) ) ) ) / / / Q E E R Y Y R E E ~ ~ ) ` ` ' | { | | X.| { ' ) ~ Q E E R E R R R Q Q / ) ` ` { | | { ' ` ) / Q Q Y ",
"C A F G J K K K L L J K J H F A Z C B V V C Z S H K L L I R R E W E R Y I J H F S A A S Z Z Z S G K L Y I Y R E R Y I L K G A V ",
"2 5 7 9 w t r u u i u y t e 9 5 4 2 , > , , < 3 6 0 w e i a s s d s a i r w 0 7 2 , , , > < 2 5 9 w e y p a s s p y u e q 8 4 1 ",
"                                                                                                                                ",
"                                                                                                                                ",
"                                                                                                                                ",
"J J H J J K H G H G H G H H H H J J J J K L L I L L L I R R R Y I I L I I L I I L K J L K K J H H K K I I I Y Y I L K J J G G S ",
"K K K K K K J H H H H J J J J K K K L I I Y Y R Y I I R R R Y L L L I L Y Y Y Y Y I L I I K J K K L K L I Y I I Y L K K H H G F ",
"J K L K J H J H H H H J H H J H J K L K L L I Y R I I I Y I L L K J L I L L L I I L L L L K J J J J K K K I K K J J J J H F S F ",
"X X X + X O o O + O + @ @ @ # # % % $ % % & = * * & & $ $ # # % # # % $ # $ $ $ % $ & $ $ $ $ $ # # # # $ $ $ @ # @ @ O o X X X ",
"                                                                                                                                "
};
