/* XPM */
static char *_____________[] = {
/* columns rows colors chars-per-pixel */
"64 64 167 2",
"   c #746D61",
".  c #737164",
"X  c #79766B",
"o  c #7E7C6B",
"O  c #837767",
"+  c #847C6C",
"@  c #8A7F6E",
"#  c #867F72",
"$  c #8F836B",
"%  c #938463",
"&  c #868275",
"*  c #8B8474",
"=  c #8D8876",
"-  c #85857A",
";  c #8D877A",
":  c #8D897D",
">  c #958B75",
",  c #9B8E74",
"<  c #938C7C",
"1  c #998D7A",
"2  c #97907D",
"3  c #9B927E",
"4  c #AC956F",
"5  c #A39475",
"6  c #A79A70",
"7  c #AD9A71",
"8  c #A3967C",
"9  c #A8977A",
"0  c #A49A7D",
"q  c #AC9B7D",
"w  c #B09D79",
"e  c #ADA07E",
"r  c #B8A47F",
"t  c #BAA97F",
"y  c #958D81",
"u  c #988F81",
"i  c #949082",
"p  c #9C9484",
"a  c #9F9886",
"s  c #95948B",
"d  c #9C9589",
"f  c #9D998B",
"g  c #A29683",
"h  c #A49A85",
"j  c #AA9C84",
"k  c #A2968B",
"l  c #A49C8B",
"z  c #AA9E8B",
"x  c #A59E91",
"c  c #AA9F93",
"v  c #ADA285",
"b  c #A7A08C",
"n  c #ACA28C",
"m  c #AEAA8F",
"M  c #B3A485",
"N  c #B8A683",
"B  c #B7A982",
"V  c #BAA985",
"C  c #B3A68C",
"Z  c #BAA78B",
"A  c #B6A98D",
"S  c #BBAB8C",
"D  c #BEB18C",
"F  c #A5A195",
"G  c #ACA493",
"H  c #AFA995",
"J  c #A7A59B",
"K  c #ABA69A",
"L  c #AFAB9B",
"P  c #B2A693",
"I  c #B4AA94",
"U  c #BAAD93",
"Y  c #B3A79E",
"T  c #B4AC9B",
"R  c #BAAE9A",
"E  c #B7B096",
"W  c #BDB195",
"Q  c #B6B19C",
"!  c #BCB29C",
"~  c #B6AEA2",
"^  c #B9AFA3",
"/  c #B5B1A2",
"(  c #BDB4A2",
")  c #BEB8A2",
"_  c #BFB6AB",
"`  c #BFBAAB",
"'  c #C2AE8C",
"]  c #C3B18B",
"[  c #C2AF93",
"{  c #C3B394",
"}  c #C8B694",
"|  c #C6B996",
" . c #CBBA95",
".. c #C2B59C",
"X. c #CAB79A",
"o. c #C5B99D",
"O. c #CBBC9C",
"+. c #D3BE96",
"@. c #D1BE9C",
"#. c #C2B6A2",
"$. c #C9B7A0",
"%. c #C4BAA4",
"&. c #CABDA3",
"*. c #C1B6AB",
"=. c #C4BCAA",
"-. c #CABEAA",
";. c #D2BFA3",
":. c #C4BEB2",
">. c #C9BFB1",
",. c #CEC19D",
"<. c #D4C196",
"1. c #D3C29C",
"2. c #D8C39B",
"3. c #DDCA9F",
"4. c #C6C0A3",
"5. c #CDC1A5",
"6. c #C7C0AC",
"7. c #CDC2AB",
"8. c #CFC8AF",
"9. c #D2C3A4",
"0. c #D9C6A4",
"q. c #D6C9A5",
"w. c #DCCBA4",
"e. c #D2C5AB",
"r. c #D9C6AA",
"t. c #D5C9AC",
"y. c #DBCBAC",
"u. c #DDD2AE",
"i. c #C6C1B4",
"p. c #CCC4B3",
"a. c #CEC9B5",
"s. c #C7C5B8",
"d. c #CDC4B9",
"f. c #CDC9BA",
"g. c #D2C6B2",
"h. c #D9C7B0",
"j. c #D5CAB3",
"k. c #DACDB3",
"l. c #D4CCBA",
"z. c #D9CDBA",
"x. c #DDD1B4",
"c. c #D6D1BE",
"v. c #DCD1BB",
"b. c #E2CCA4",
"n. c #E1CEAC",
"m. c #E3D2AC",
"M. c #E8D5AD",
"N. c #E1CFB2",
"B. c #E2D3B3",
"V. c #E9D6B3",
"C. c #E4D8B4",
"Z. c #EBDAB5",
"A. c #E2D5BA",
"S. c #E7DABC",
"D. c #EBDBBB",
"F. c #F0DDB4",
"G. c #CFCCC0",
"H. c #D4CDC2",
"J. c #D9CEC1",
"K. c #D4D2C5",
"L. c #DCD3C1",
"P. c #DBD8C6",
"I. c #D9D5C8",
"U. c #E0D3C2",
"Y. c #EDDFC4",
"T. c #E5D8C8",
"R. c #F5E2C0",
/* pixels */
"M.b.2.n.n.m.Z.x.k.t.k.e.g.-.-.g.-.=.T ) ) Y ( ~ ! ..&.$...e.9.5.&.&.7.%.-.%.j.t.5.%.-.=.d.d.f.g.8.5.y.q.] { 5.j.| ,.| v v e 5.P.",
"2.+.<.b.m.b.n.k.t.e.9.;.9.%.-.e.%.=.( *.` =.H P #.=.g.-.7.5.t.5.%.%.%...$.%.v.t...=.g.%.p.g.f.z.t.y.y.} 3 o.&.5.q.W | B { ,.k.L.",
"b.<.w.V.n.r.X...e.&.y.&.9.t...$.#.#.%.>.%.%.( H R =.p.g.%.5.r.7.%.%...! O.x.e.W R $.#.#.g.l.j.z.k.B.y.O.v 4.! ! 5.,.,.B } 2.r.&.",
"0.2.r.} &.&.O.&.$.-.&.&.$.k.A.t...%.#.%.*.%.R T z R >.-.p.&.&.7.%.#.$.R 5.x.9...$.R %.$...-.j.v.A.N.y.9.v ) E E o.y.| B 9.b.n.6.",
"9.{ U Z ..%.g.&...5.&.o.R &.y.h.t.R #.=.=.$.( T G T =.l.7.&.&.&.=.%.....5.r.t.9.$.$.U U &.t.5.r.h.r.O.0 h I G m 5.C.w. .0.b.Z.z.",
"y.| 9...-.$.-.=.) ) %.%.&.5.B.u.N.-.U I -.e.&.&.R T T %.%.%.&.R $.&...-.y.A.j.U -.U &.X.5.O.9.@.9.y.A 0 n h h < 4.9.Z.O.0.+.D.z.",
"h.W e.&.-.-.>.=.6.=...W o.e.0.B.B.k.&.-.k.r.9.p.$.P T &.R U g T R -.X.B.S.e.....R | 7.y.r.9.9.9.y.O.A U I E b p ! t.y.9.0.V.D.U.",
"I U 6.g.-.-.&.$.g.9.5.9.9.0.y.x.A.A.z.-.-.e.e.&.! #.( ! R U U I P -.$.g.k.-...U ..9.k.t.9.9.X.O.w.{ A ..! Q K f : W U [ { V [ ( ",
"E E &.Q ( ( %...B.k.D.B.n.n.h.e.t.t.e.g.8.7.7.e.9.g.! P I &.W j P j P =.k.%.R { &.I ..5.&.9.;.O.q.M 5 I %.G l ~ p $ R %.U S U ( ",
"E n %.7.! #.-.k.A.A.N.S.M.r.&.&.8.7.j.7.7.j.7.7.&.&.U U I I C C j j z P v.7.g.&.C I U U ..&.r.;.O.5.D A I H a p < o p P R { Q / ",
"D ,.o.U g.k.z.e.k.k.N.N.r.9...R %.%.8.8.6.j.j.g.-.....P j z b I P C g #.g.%.g.%.E ! U I { 5.j.k.m.9.v v ) H p < i : p l ! ! ! / ",
"q.t.y.k.y.A.k.7.g.9.9.9.r.k.R R %.! 4.6.j.c.j.p.%.$...&.! ! W Q R I P e.j.=.=.T ! ) %.! Q ..9.r.q.r.W W ) I H n 1 < p H m W ! i.",
"x.t.t.o.t.h.g.e.j.k.e.e.k.&.#.U %.) #.p.=.p.g.! O. .O.} o.%.! E ! ..O.y.e.-.G h %.b ..#.n o.9.e.1.m.5.o.! =.! I G T I I D Z &.l.",
"t.4.W ..&.7.-.e.%.&.7.-.&.7.%.! #.#.) %.p.%.&.&.O.&.q.9.O.,.,.,.D 5.A.e.-.=.H ! P I ......$.&.o.1.u.O.4.o.-.&.-.) ! I k.u.y.k.T.",
"&.%.W A %.7.g.7.7.-.&.%.-.%.=.-.%.#.R -.&.&.7.e.5.&.&.5.9.9.y.r.B.D.k.X.%.T Q ! U ! %.%.&.( &.O. .w.1.w.h.&.-.%.-.a.%.h.;.[ $.:.",
"> &.! ! #.7.g.7.%...%.%.! =.-.6.%.! R &.X.r.0.O.5.p.%.| k.w.y.q.,.O.&.R %.I T o...%...%.) %.#.&.<.@.] O.h.r.9.7.j.-.=.$.Z j 1 # ",
"+ n I Q 6.6.) %.%.%.) T T T 6.6.6.%.&.%.r.0.B.;.j.p.*.e.r.y.0.0.0.9.$.$.-.) ) ! &.%.) ) ) %.=.&.<.@.} 0.N.r...&.e.p.T ! U g @   ",
"$ & u h T I z p.6.6.=.) =.T L ( Q &.A A n.n.B.r.e.7.p.j.z.e.&.o.9.0.t.9.-.) ! R ! ) ` ) ( *.6.-.5.5.9.9.r.B.r.9...#.%.#.I 1 @ - ",
"y < ; p ( E %.` ) ` G G ` =./ Q ( ! W U O.w.x.5.&.p.l.-.z.g.j.7.8.5.r.t.g.T ! ( &.( ( Q ( =.p.p.=.-.%.&.n.0.0...C R =.( U T d d ",
"d ; ; * b 2 2 l z k > 1 h b ( 6.6.7.9.9.9.y.x.5.&.h.z.l.U.k.g.9.,.o.O.B.t.-.#.=.a.( ( ` _ =.>.>.*.%.#.| U X.9.[ O.U m I R T l s ",
"P k 1 1 > 3 , g @ z g g G ( p.L.l.-...o. .m.y.o.! t.t.7.v.k.k.k.9.&.;.y.e.k.l.=.a.%.Q ` ( >.d.d.d.h.5.5.&.! $.y.,.q.t.W ( m %.J ",
"g z C z 0 0 v $ , v , 8 j g.:.H.>.=.p.&. .B.x.) ) ! v.e.h.k.9.h.e.z.t.7.&.j.U.7.6.j.6.$.-.p.g.=.>.g.U ! ..%.$...q.y.5.o.%.o.H f ",
"[ X...[ S S Z o.&.&.r.e.9.&.=.p.~ #...R t.B.t.Q Q ! j.x.x.x.t.t.-.>.>.7.#.n 7.k.e.&.t.h.g.e.e.7.&.&.R &.&.-...;.9.A.u.t.4.{ ! ` ",
"X.9.| } S 9 9 9 [ } X.9.e.9.x.e.U $.o.t.x.5.x.6.Q ` l.k.x.x.8.g.d.H.g.f.=.) P 5.j.e.r.t.r.9.X.o...-.&.&.7.g.&.&.r.Y.B.t.| ,.! ( ",
"O.S { } q j M w ..M j S { ;.5.o.t.B.y.A.5.W %.` ` ` l.x.x.x.8.a.J.J.l.f.a.=.T 7.7.7.N.y.9.7.&.S %.$.-.-.7.4.,.,.&.o.&.W x.O.o.) ",
"D } { U C A Z &.@.r.9.9.{ [ ! &.9.o.h.-.C ! %.=.` ` p.z.8.j.t.j.z.J.l.a.6.-.R G %.%.-.%.#.O.x.e.-.*.#.#.m ,.1.,.| O.o.Q W V Z R ",
"C } { ' ] O.| 9.n.N.B.9.e.R T U -.C n z C &.Q ) =./ T / p.j.x.j.h.z.l.f.6.a.p.h Q ! &.4.&.e.e.-.=.g.=.z 5.,.,.D o.5.6.&.-.} { ( ",
"U ..{ ' ] O.} +.b.b.n.[ j j n v C U ..[ ! ! ! ! ~ R / *.=.4.t.y.>.z.j.-.6.6.7.m T E ( ) =.-.6.-.>.>.G I o.w.! 0 b ! ! 6.6.O.U %.",
"S { 7 ] B ,.S +.2.w.w.q.o.S v h j C U ..R I T Q R T ( f.l.9.q.t.u.j.8.7.6.&.6.( G I Q ! %.%.7.7.=.T P ..5.S o.I b b *.H T ;.I T ",
"{ 6 ] 7 B V Z }  .<.w.1.| 5 A W U ..R U n G G T H H T p.j.j.q.9.9.t.x.e.7.&.*.) b b b b 7.j.g.=.Y R R $.O.9.o.p.7.=.%.%.G O.7.T ",
"D <.t r V 9 M [ { 1.w.w.1.} &.....I 8 z j H l P Y T *.*.&.j.q.t.u.u.y.x.8.7.6.6.( H T h %.-.g.g.! &.%.&.t.&...l.6.Q 7.=.#.U -.:.",
"{  .| ] ' W &.X.X.1.q.r.q.4.o.o.! U R n l k c Y T R ) %.%.7.&.t.y.x.k.0.5.k.a.6.=.=.*.T e.&.&.4.z.v.9.k.r.A.%.p.k...h.-.&.&.%.:.",
";.U [ } X...k.e.0.O.,.O.&.o.5.o.! U R g u c c ~ ( ! Q n #.=.7.j.x.k.B.D.&.e.j.p.p.p.=.%.j.g.o.A.v.x.v.C.x.A.g.e.v.t.t.q.5.#.` i.",
"$.Z [ @.r.y.e.y.9.9.&.&.5.4.5.5.W P C U ~ k c ~ T H b G G #.&.7.y.t.y.B.&.9.a.p.>.:./ p.g.v.5.j.j.x.C.C.D.N.g.e.7.t.9.t.,.6.=.i.",
"%.O.} ;. .O.,.2.1.1.y.O.9.k.y.r.r.&.&.5.$.*.k c K b I K T ( ) 4.4.t.k.9.t.t.j.j.g.a.( z.-.z.-.z.x.u.C.F.D.h.h.-.%.&...e.O.8.6.i.",
"7.5.r.+.O.@.9.,.1.9.5.0.r.r.k.k.t.B.O.{ -.h.R I h T ( a p Q Q %.&.t.k.r.x.j.8.j.p.7.d.=.-.#.L.d.8.t.u.C.A.k.k.7.5.&.! e.&.6.p.s.",
"g.e.r. .O.y.t.9.t.t.t.t.t.y.k.h.e.9.O.B.u.A o.! T ( ( Y i p I W %.5.j.k.t.t.t.7.g.g.%.g.%.) ) *.T 5.x.u.B.B.h.j.e.7.9.4.8.5.p.s.",
"6.8.&.O.h.9.7.r.y.k.y.y.x.x.j.j.r.&.5.| ,.u.A 6.) _ L T ( H < b #.%.7.v.x.t.x.8.e.-.&.7.#.) Q H H b 8.k.t.r.j.7.e.e.8.e.e.8.a.f.",
"l.g.B.e.h.t.7.%.-.&.8.e.t.y.t.t.t.5.O.| ..5.7.-.=.*.T Q / T l p ( ( =.8.x.y.S ! ..C ! %.%.I ) K b l z 5.o.5.t.7.6.&.e.5.r.j.a.f.",
"c.z.A.A.A.e.&.! #...U o.t.t.,.,.9.5...&.O.U T ( *./ / K G P G > T Y =.g.t.o.&.U 9.O.5.&.) ) =./ G ; < 3 ! t.5.6.7.&.t.6.t.z.P.K.",
"K.c.v.k.7.7.-.#.! #.! o.t.5.9.9.9.&.g C j n $.P ( ~ Y H l b c < u c R g.j.o.Z U 9.k.{ 5.7.%.=.( G < = > , o.! 8.e.j.v.j.y.j.c.K.",
"v.v.v.j.=.6.%.! ) o...o.y.9.r.0.9.5.v U P P &.>.T ! l T L G x x u : G *.p.t.o.A q r.r.o.P ! =.:.Q 2 < < p b O.v.j.k.k.k.v.x.v.I.",
"z.j.j.p.&.7.=.Q Q ) ....t.t.9.5.5.&.U U U A -.-.o.a.H b H G F x d y l Q ( -.9.U X.q y.{ M G c T G F < * 2 p ! t.k.7.e.e.g.t.j.H.",
"7.7.j.p.7.6.! ` ( =.-.=.5.a.j.e.t.e.&.9.5.9.0.r.D ..4.) ) G P G y * 2 K T R t.9.{ X.V.&.9.g z k p : ; * f : H ! k.j.8.e.t.t.t.K.",
"k.-.-.e.&.&.%.#.~ #.#.( *.p.j.j.j.h.-.;.9.y.B.q.9.,.5.j.j.7.P z 1 + * a Q T $.&.O.7 Z.B.@.y.g z l d < # f - d Q 4.8.8.8.8.t.8.f.",
"-.9.-.-.7.7.-.-.%.#.Y ( ) =.p.j.g.9.N.r.n.m.B.9.t.B.t.o.6.t.R P U c 2 k Y / -.U q ' n.V.S.t.g.R h x : # s i = =.` ! %.4.&.5.6.i.",
"9.e.7.9.&.-.&.-.7.&.! L %.` 6.t.7.r.V.n.B.V.Z.y.0.x.O.o...&.%.%.R R T T F _ $.Z { ' 3.m.V.B...%.U j k + . i : < H Q ! 4.4.4.&.i.",
"e.e.9.h.t.t.9.;.7.7.6.%.Q ( ) 5.5.r.y.m.n.B.u.0.y.k.x...&...7.%.-.#.Q / c ~ ^ U ' 4 3.M.D.D.U ..U P H * o - & + 2 n Q ! o.5.7.i.",
"&.e.e.j.h.t.e.7.7.7.7.7.R ! &.%.&.7.5.8.u.u.k.k.A.k.k.;.&.O.&.4.7.7.` ( J L ) I 5 % } y.Z.F.2.] #.I n z o & : X : i L Q ( &.p.:.",
"&.-.t.e.j.v.j.e.7.7.-.-.%.-.5.W e.6.&.%.4.j.-.j.g.g.j.r.W { o.#.4.6.7.%.L x T R 8 6 S 1.b.F.3.} O.U j k 1 * f - - k b T R ( f.i.",
"e.7.g.e.z.e.e.h.e.-.7.-.7.e.j.-.g.#.#.$.W %.! #.R g.g.5.5.o.! #.6.p.` =.( L g j 5.v v { 1.Z.w.w.} } U A ^ O l c f < n l I H ` i.",
"7.7.g.e.9.g.g.e.g.j.9.7.7.7.j.p.g.7.R #.! ) ^ =.*.d.p.x.O.5.o.%.7.a.7.E o.n ....O.5...{ 9.1.w.n.w.} S S R %.h h I p a p p j *.K.",
"e.e.g.g.-.-.g.g.e.h.j.j.&.e.l.p.L.-.( %.) ) *./ *.:.:.x.5.8.o.&.-.-.7.&...X.r.y.t.7.P ..&.X.0.}  .n.B U C [ $.c Q G k p a h H G.",
"-.g.j.j.g.-.-.-.g.g.g.j.g.g.-.-.g.%.^ R I H T / ^ ^ p.v.j.o.&.5.&.e.&.&.X.n.B.m.t.-.#.$.$.S &.M 9.1.O.{ S ..U I I T ! l l > 2 :.",
"( p.g.l.g.g.>.-.7.g.j.7.e.j.#.f.l.g.%.R I l n Y Y T =.6.c.j.8.&.&.O.&.5.;.b.n.y.9.-.#.! &.%.t.o.U q.4.{ 9.M { U R U R l G h i G ",
"~ p.l.z.l.l.j.l.a.l.g.g.&.&.&.r.7.%.G G Q T f l / >.i.*.k.k.e.5.;.;.9.9.y.r.0.9.9.-.R $.| O.r.,.S ! 8.t.| @.O.o.....! L x d < J ",
"K ` f.z.z.f.l.a.p.f.l.7.S 0.t.O.W E m b b F d f _ ` =.a.t.8.,.,.r.r.h.g.h.r.y.9.0.7...| { ;.w.9.B E %.O.S n.C.q M ! ! T L a & s ",
"x ` :.f.l.g.l.g.f.p.p...S y.q.| v M v I G P l l ( =.=.a.c.8.5.y.k.N.N.h.k.k.;.X.&.9.W O.O.9.w.,.| W ! o.e Z.D.[ j U ) T L a : i ",
"J / _ i.p.l.p.p.p.p.%.o.' B.y.O.W E W I z f l G ( s.6.c.x.l.5.u.A.A.A.B.k.k.O.&.{ 5.|  .] u.b.t A o.I ! W m.R.% , v ! %.H k * s ",
"s x ~ ) 6.:.p.g.p.p.7...@.w.u.,.D 4.o.A p = f Q _ =.i.f.c.t.j.5.S.r.B.z.t.t.7.{ U { &.U M w.m.D A E P ! U m.Z.S 0.U n T H p - y ",
": 2 f L _ 6.6.7.=.-.-.e.0.0.S.5.o.&.6.I = p T / ( =.i.f.j.l.j.8.A.h.U.j.t.7.5.&.5.U %.[ Z 9. .S W ! %.I C } B.r S U I g H l p s ",
"s < i H H #.*.P R R ! y.0.0.o.o...$.=.z < i F ( ) ` i.i.c.l.j.q.t.h.j.&...#.4...A U ..&.5 1.} V ,.I #.m ..] 0.} } S M P p G y s ",
"f p < < b T I C A ..9.9.O.O.o.A W o.#.g 1 f T T ( %.6.j.z.v.k.k.k.j.e.%.R $.%.| W O.&.5.&.W S %.R | S j } | y.1.w. .S j b z i f ",
"F f i l n P j &.&.O.9.9.w.A.g.| W A P P c K Y T T #.6.p.j.7.x.9...&.&.-.! R ! #.&.9.0.5.o.S ! $...W S | } O.} O.M.M.@.A z P G F "
};
