/* XPM */
static char *_____________[] = {
/* columns rows colors chars-per-pixel */
"64 64 207 2",
"   c #9E7105",
".  c #A46601",
"X  c #A66A04",
"o  c #AB6C03",
"O  c #AD6E09",
"+  c #B26F05",
"@  c #B16D0F",
"#  c #A47202",
"$  c #AE7305",
"%  c #A77F06",
"&  c #AB7A05",
"*  c #AC750A",
"=  c #AA7D09",
"-  c #B27404",
";  c #B87607",
":  c #B47D04",
">  c #BA7C05",
",  c #B5760A",
"<  c #B87708",
"1  c #B37D0B",
"2  c #B97C0A",
"3  c #B26B14",
"4  c #AF7410",
"5  c #BA7B10",
"6  c #C37F13",
"7  c #A68105",
"8  c #AC8505",
"9  c #AF8903",
"0  c #A78408",
"q  c #AD850A",
"w  c #A78908",
"e  c #AC8A0A",
"r  c #B48405",
"t  c #BB8404",
"y  c #B38C05",
"u  c #BC8B05",
"i  c #B3850B",
"p  c #BC840B",
"a  c #B58C0B",
"s  c #BA8C0B",
"d  c #B69206",
"f  c #BC9405",
"g  c #B69A05",
"h  c #BD9B05",
"j  c #B4920A",
"k  c #BB940B",
"l  c #B59B0A",
"z  c #BC9B0B",
"x  c #AB8310",
"c  c #BD8111",
"v  c #B48D12",
"b  c #BC8D12",
"n  c #B49111",
"m  c #BC9512",
"M  c #BE9A11",
"N  c #BF9A19",
"B  c #BBA104",
"V  c #BEA20C",
"C  c #BDA90D",
"Z  c #BDA211",
"A  c #C18505",
"S  c #C38C06",
"D  c #C1860A",
"F  c #C28C0B",
"G  c #C88E0B",
"H  c #C39405",
"J  c #CA9304",
"K  c #C49C04",
"L  c #CA9C04",
"P  c #C3930B",
"I  c #CA940B",
"U  c #C39C0C",
"Y  c #CB9C0B",
"T  c #D19B0D",
"R  c #C38613",
"E  c #C38D12",
"W  c #C98F12",
"Q  c #C29312",
"!  c #CB9513",
"~  c #C39C13",
"^  c #CB9D13",
"/  c #C29E1A",
"(  c #D29C12",
")  c #C4A305",
"_  c #CBA304",
"`  c #C7A804",
"'  c #CAAA04",
"]  c #C4A30C",
"[  c #CBA40C",
"{  c #C5AA0C",
"}  c #CBAB0D",
"|  c #D1A505",
" . c #D2AB04",
".. c #D2A50C",
"X. c #D8A70F",
"o. c #D3AC0C",
"O. c #D8AE0E",
"+. c #CAB204",
"@. c #CCBA06",
"#. c #C4B30E",
"$. c #CCB30C",
"%. c #CEBB0D",
"&. c #D4B404",
"*. c #D8B506",
"=. c #D4BA05",
"-. c #DCBB05",
";. c #D4B30C",
":. c #DAB50C",
">. c #D4BA0C",
",. c #DBBB0C",
"<. c #C4A312",
"1. c #CAA412",
"2. c #C5AB12",
"3. c #CCAC12",
"4. c #C6A118",
"5. c #CAA41B",
"6. c #C6A91A",
"7. c #CBAE19",
"8. c #D3A412",
"9. c #D9A611",
"0. c #D3AC13",
"q. c #DAAB13",
"w. c #D0A01F",
"e. c #D3AD1B",
"r. c #C7B312",
"t. c #CDB213",
"y. c #CCBB12",
"u. c #CEB219",
"i. c #D3B413",
"p. c #DAB413",
"a. c #D4BA12",
"s. c #DCBC14",
"d. c #D3B41A",
"f. c #D8B319",
"g. c #D4BB19",
"h. c #DBBC19",
"j. c #E2BC0D",
"k. c #E3BC12",
"l. c #E0B61B",
"z. c #E5BA1E",
"x. c #CC9D20",
"c. c #C9A222",
"v. c #D4A529",
"b. c #D3A539",
"n. c #E1B920",
"m. c #CDC204",
"M. c #CCC00B",
"N. c #D2C303",
"B. c #DCC405",
"V. c #D4C807",
"C. c #DCCA04",
"Z. c #D4C30B",
"A. c #DCC30C",
"S. c #D6CC0C",
"D. c #DBCB0C",
"F. c #D7D207",
"G. c #DBD305",
"H. c #D6D10C",
"J. c #DDD30B",
"K. c #DED90D",
"L. c #D5C414",
"P. c #DAC214",
"I. c #D6CB11",
"U. c #DAC913",
"Y. c #DCC41D",
"T. c #DECD1A",
"R. c #DBD312",
"E. c #E1C505",
"W. c #E3CC05",
"Q. c #E9CA07",
"!. c #E2C40C",
"~. c #E9C609",
"^. c #E3CB0D",
"/. c #E3D404",
"(. c #EBD204",
"). c #E1DD05",
"_. c #EADD02",
"`. c #E4D40B",
"'. c #EAD30A",
"]. c #E3DB0A",
"[. c #EBDB0A",
"{. c #F3D80E",
"}. c #E3C313",
"|. c #E8C015",
" X c #E4CB12",
".X c #EBCD12",
"XX c #E1CB1C",
"oX c #E7D513",
"OX c #EAD311",
"+X c #E5DC12",
"@X c #EFD811",
"#X c #E6D61B",
"$X c #EFD31A",
"%X c #E5D81A",
"&X c #F1D214",
"*X c #F4DA10",
"=X c #E0E000",
"-X c #ECE105",
";X c #E7E20D",
":X c #EAE40C",
">X c #F5EB06",
",X c #F3E50B",
"<X c #F5EA08",
"1X c #EEE615",
"2X c #F5E212",
"3X c #F1E915",
"4X c #E6D125",
/* pixels */
"%X]./.B.C.C./.OX=.E.'.~.:.L H :.~.&.-.{.{.C.A.j.E.j.:.k.O.*.B.D.+X[.].'.].W.C.B.Q.'.B.&.-.!.j.a. X/._.>X-X`.!. .' O._ L p.j.L P ",
"G.J.`.'.'.`./.C.B.'.(.B.&.-.!.!.p. X/._.>X-X`.!. ._ O.L &.}.!.S.T.[.W. X].D.C./.`.'.B.=.~.j.L _ '.{._.>XG.B.$X&. ...L Y q.:.:.O.",
"m.y.`.B.A.`.D.C./.'.'.A.=.~.k.Y L '.[._.>X).C.$X;. ...L o.s.:.U.U.D.C.D./.J./.[.,X,.) !.-.H y ,./.W.'.'.A.=.:.&._ Y [ O.| O.:.j.",
"#.T.[.C.D.D.`.G.[.,X>.K A.-.H u -././.'.'.A.&.:.*._ L T :. .o.a.A.^.`.OX]./.[.[.'.>.q.E.B. ..XOXC.W.2X_.'.o.t Y Y U [ ..L | X.L ",
"I.:X).+X+X].G.[.[.(.,.q.E.B. ..X`.B.W.{._.`.o.r Y Y U [ O. .;.;.>.A.S.S.:X:X+X`.oX X,.B.!..X[.+.N.E.=.^.A._ P f o.A.k...T Y ....",
"3X].=XR.S.;XF.].`.oX X-.B.^.OX{.+.Z.C.=.^.-._ P P o.,. XO.p.;.;.>.S.C.S.H.H.R.U.%.} ;. X@.2.z z P.}._ *.B.P.p.=.Q.(.Q.*.I _ L X.",
"].#.+X=XG.S.J.R.U.y.+.a. X=.2.z z A. X' *.A.}.p.&.W.(.(.B.j.-.&.a.L.S.@.=.=.Z.#.) =.D.P.%.] u i.,.q.] >.'.E.C.,X*X-.o.[ H ;...J ",
"%.M.R.K.N.@.R.Z.$.B >.A.I.%.] a i.,.8.Y >./.C.B.,X2X-.:.&.&.~.a.>.>.y.z } #.$.] } ;.,.y.y.=.o.[ K # # Y ^.W._.[.=.o.0...[  .q.I ",
"%.S.R.U.{ } >.$.] 3.:.-.y.%.=.o.[ K # # 1.!./.[.:X=.O. XP.s.E.} ] ] U j } ) ] q a ^ e 2.I.@.i.Q * & 1 i r K @X2X,.0.' *.,.| Y D ",
"{ r.>.} l r.] [ q a 4.q 2.L.@.i.Q * & 1 i r K @X,X,.,.N.'.{.:.3.] ` z f ' g Q q   = e 7.Z.@.t.m v Q E X = a >.>.o.p.|.!. .T F r ",
"3.z h y j [ ) ~ q   = e 7.Z.@.t.m c Q F X = j ,.A.,.!.@XQ.B.i.3.} } 2.v m y M M y M V { B 2.d.` u & s K _ k x = u L .X}.Y T S A ",
"{ Z 3.~ v U h <.Q y V Z { B 2.u.` j & s U _ k i 7 H ` *X^. .} ] { { { j Z V j j C u.M { $.d.e.] d 8 U f.3.} m 1 p P o.K q.q.L J ",
"2.Z 2.V j 2.{ B l V u.M { $.t.d.] d 9 K f.3.<.z i s z ;.` 0.P 2.] { C M { g.Y.a w n e ] a.} y 9 V a.} 3.] a.s.P & c ^ T L J I J ",
"z j B h Z } a.a.j w n e { ;.1.y 8 V a.} 3.] }.OXU i c [ L K z U 2.{ Z 6.M f k c.a w a [ 1.y w ~ ] 3.7.B ) 2.~ : 2 G F T T S I G ",
"n Z 2.r.7.V B z c.e 8 a <.1.a w U ] 7.3.B ) 3.3.r s P u 8.Y M ] 2.{ 2.l j z 7 a Q q k / M z 3.Y.} } 3.{ 3.P & $ 1 t Y I T T J G ",
"M <.r.y.l l V w k M q z 4.M f 3.Y.} 3.3.C } s 8 i a u U ....1.P U 3.2.Z M <.N M <.y z 4.j U 1.t.' } $.V ` U s : : S ( R > A > > ",
"N 2.u.y.C V 2.N ~ ~ y z 4.j z 7.t.' } r.) ` ~ ^ u s H ( c t U t k <.{ Z Z z n m k M <.~ a a <.U ] 7.C g i.O.H : : Y G 2 I D 2 p ",
"a z 2.y.#.2.V N ~ z M <.~ a a ^ z U 7.C g i.;.L s s 8.^ G ..P j z <.<.M g d x i d / <.a k m 4.U 3.d.h i.e.f H P E Y J : I 9.F > ",
"a j { u.V V l v q y / <.d m M 4.U t.i.B u.e.k P ~ Q T Y S ..Y H U z Z <.7.2.0 8 9 a z 9 a N y h { g B u.U h :.,.l.O.S - D I A > ",
"i z z 4.6.g.6.q 7 9 a k y a M y h <.g V t.K h o. Xn.q.I i P 8.^ U k z z a.} 7 q k k k a s d 2.i.] z t.{ z k.A.,.o.L T D I G < > ",
"m z U ] 2.Y.{ 7 q M k a a m j ] a.] z t.{ K Y.!.P...L Y G [ I Y ^ P y a ] d n n e M ] M a i ~ 7.3.4X%X@.t.d.o.;. ._ L T F o o , ",
"b m ~ y z r.9 v v w m ] Q a i Q 3.t.4X%X@.t.i.0.>.[ _ _ 9.H t U U 2.1.k [ y m b 7 M ] M & # i k h $.N.Z.XX) f L o.O.9.F : , . o ",
"q q M ~ z U 9 v v q M ] ~ & # i k z $.N.Z.T.] H _ i.;.f.Y F F Q K ) i.$.a.] y m a M / s 1 1 s j { } ;.h.h.p.) U q.q.^ > < ; + o ",
"= y h i.i.3.j q b a / M s i 1 s s ] } $.P.h.p.K U p.s.q.H P G I U [ 3.{ a.] d M m y i r p b k ~ e.i.} } 1.[ o.8.9.P u G > - + - ",
"i s f <.] o.z e / M i : i r s k Q f.i.3.} [ [ q.i.p._ _ 1.A u u P 0.r.] [ 3.3.] d k a b m m k k U } ] U f H [ [ P t s p > 2 ; , ",
"1 v z j y ] <.<.z y s e s k U z U z 8.} } U K [ o...Y 1.Y I J H k _ } { ) } } ] f ~ 6.3.1.U ] 0.U { o.o.[ H Y I s p - O R > + O ",
"= i j z j f z <.U f P m U U U ] e.k 3.a.a.0.` 0.8.Y ~ P s ! s P ~ [ ] t.;.$.%.h.d.y.Z l { f.3.z k [ a.) U u ! Q - , o o - - X X ",
"v k d <.<.[ 2.{ 3.2.<.9 9 ] 0.0.k a } p.[ U ^ 8.e.P s s i t s P 0.f.s.3.{ } } i.$.i.2.z t.$.i.P j i.[ _ f t F t 2 : p F ; o $ < ",
"Q d.3.V h U U ] h ] ] y z { $.:.u a i. .[ K ^ H U P u H ^ P F F U 0.i.} 3.3.8.i.3.i.3.y.t.i.s.p.] g.;.[ ~ k r I F u D G > - o O ",
"9 1.0.t.z U <.<.] i.z <.i.3.;.s.s.] h.p.i.8.^ U Y H F P ^ P I P U ~ 2.] 2.1.3.h.h.{ { t.6.m s ~ 1.1.o.U U P K ( s D P D < 2 3 , ",
"j ~ 1.M z k M z 3.d.) { t.2.k j 1.e.} o.[ _ ^ H Y ^ P H k P ^ Y [ 1.2.2.3.3.] _ o.} } } ] k a i P U [ Y H _ o.S H Y [ Y q.q.^ x.",
"<.j d y k U U U ] ' ` { } ) k s s k _ [ o.[ Y o...F Q [ H Y [ 1.z t.a.i.3.2.1.1.1.] 2.~ 3.3.i.g.s.o.1.1.U 1.[ Y 1.9.o.] 1.U ..^ ",
"h z z Z 3.} ] ] ] 1.] ~ U 3.1.1.l.s.p.o.q.[ Y 1.1.P U Y [ 1.U 1.z u.P.g.2.3.3.3.} U z k k <.o.i.;.[ U P ~ U [ U [ k.q.} =.p.o.I ",
"+.2.2.y.L.I.t.y.t.r.{ U P k Y a.>.>.;.o.[ L ..[ L _ ..1.[ 1.k U t.u.g.i.2.y.2.2.2.<.~ [ U ~ <.<.] ~ k P P U [ [ [ :.p.k.a.o. ...",
"y.a.y.L.T.P.y.L.$.y.{ [ e.U U ] [ 3.} [ _ U _ ..;.o.;.} } 3.k k <.<.{ 2.t.$.t.{ <.<.{ <.1.2.3.1.{ P U Y U ] $.0.[ [ ;.;.O.:.*.,.",
"Z.L.L.%.%.%.I.Z.a.r.3.[ 3.` [ 1.i.} ;.[ _ .._ :.,.&.&.o.o.[ U ] i.s.g.} t.3.] V z U t.$.<.3.} 1.U U P 1.f 2.i.0.L L  .L T ;. .L ",
"I.I.Z.I.M.M.I.I.$.#.} } { ` 1.<.;.i.;.' o.O.) :.-.&.o.O.:.o.o.i.s.P.a.a.{ t.} V z z 2.d.z p.h } [ k P U U <.0.~ P ^ ..I Y [ ..L ",
"g.;XF.+XR.V.M.U.>.$.2.$.} >.{ s.$.3.;.o. .s.O.f j.,.o. .-.*.,.a.>.$.a.a.} ] 0.~ d ] { 2.2.g.U n s s k z 0.1.[ _ j.~.O.L L L X.9.",
"1X;X=XK.S.J.m.D.Z.a.a.;.=.a.a.&X) >.,.} -.`. .f o.*.-.s.p.o.a.&.>.Z.M.$.>.$.] U 3.=.a.$.] <.3.[ U k ] K ] } ,.}.-.:.Y K :...L T ",
"].#.;XK.S.S.Z.L.t.{ { 3.D.>.3.] g P.}._ -.D.k.p.&.W.'.(.-.O.&.o.i.P.{ { { } ] } :.N.u.y.@.o...H # # Y &.&.A.].=.} 8.1... .O.I S ",
"%.M.R.K.m.%.D.Z.3.h } A.U.%.] d 0.,.i.U *./.W.C.:X2X-.;._ ) ,.0.$.$.l <.z { q a ^ q 2.I.@.g.P * * 1 p r K '.2X:.i.' *.,.| Y D p ",
"%.S.R.U.{ { %.$.] 3.&.>.y.y.=.o.[ K # # 1.!.W.[.-X=.o.p.i.8.*.] ] ] z z f Q q   = e t.>.@.t.m i M Q X = a a.>...:.|.!. .T P t : ",
"{ y.>.{ h t.` 1.q a ^ w 2.U.@.g.Q * * = i r K @X2X:.i. .-.~.' { C <.v s 9 k M 9 M Z C B 2.u.` s & s K _ k q q s L .Xk.Y Y J t G ",
"} z h y j [ ) ~ x   = e 3.>.@.3.k b Q E X & a >.>.o.q.s. .' [ <.] V e M { B l V d.M { $.i.d.1.d 9 f f.3.1.M = p P o.L q.q.J J ( ",
"] <.1./ b k h <.N 9 V <.{ B 2.u.} s & s K ` k x = F _ !.O.K z z z g M V y.g.j w n e [ ,.} 9 8 B a.} 3.] a.k.F & c ^ T J J J T T ",
"2.Z 2.V j 2.{ B l V d.Z { 3.y.d.] d 9 f f.0.1.M = p F H u ^ y Q z C 4.l ] z c.q 0 j <.1.y w ] ] 7.7.h ) 3.~ 1 2 G F ..T S I G A ",
"z j B B C ' a.d.j w n e ] ,.{ y 9 z >.$.} ] a.k.k $ c W u t a j ~ 2.l e k 0 k ~ q z / U k 3.Y.[ [ u.` { z & O 1 t Y I T T I S > ",
"k / { r.7.] B V c.e 7 a <.1.9 8 ] ] 7.7.h ) 3.~ 1 2 E u I S s d ~ 2.Z n z / / ~ y j 5.j z 3.7.} $.$.V { P F : : S ( R > A t > > ",
"M Z r.y.V l l w k N q k 4.Q z 3.Y.} 1.7.{ } k = + : t Y Y J 4.s <.r.Z Z z N Q f M <.~ d a <.z ] 7.<.g i.O.H : 2 Y P > G D : p D ",
"m <.g.y.C C 2.N ~ ] y j 5.j U 3.t.` } r.V } U D : : S ! p : f u z u.Z V z m e y / <.d m m 4.U 0.y.h i.7.f H P F Y I : T 9.G t D ",
"n z r.y.C 2.z N N z M <.~ a y <.z ] 7.{ g i.O.K : 2 Y I A ..k z z <.2.g.u.n w i a k y a M a z { g ) 7.U h *.j.l.9.J $ p T A > A ",
"a j Z u.Z V l v 9 a ~ ~ g m m 4.~ 0.t.B i.7.k H P P T J t ..Y H z <.2.T.y.e n z j s a s j <.i.{ z t.{ h h.!.,.[ L T p I G ; 2 A ",
"y k z <.6.y.6.q % 9 a z y a m j h ] g B t.z h ;.,.l.X.J : U [ 1.] j ] i.d M n 9 M { M a i ~ 7.3.4X%X@.>.e.o.;.o._ L T F o X , R ",
"Q k z <.r.Y.2.% q M k a a s s 2.i.2.z t.{ K s.!.,.o.L ..F [ Y U <.U U [ d N m 0 M <.M = # i s h $.N.Z.XX) f K O.O.X.G - ; . o 2 ",
"n N ~ y U 3.y v v w z <.U v i Q 0.t.4X%X@.>.f.o.o.o.L | q.L u U K i.i.t.z j m a m ~ s 1 = s s ] } $.s.g.p.K U 0.q.Y > > ; + + + ",
"q i k <.z U 9 v v & M ] N & # y j h $.Z.Z.Y.] f ) o.O.X.T A F U g <.] a.z g N M s i 8 i s u M 5.i.t.} 2._ 8.q.8.H D F > - + + - ",
"8 y f a.i.7.z a m a M <.b 1 : a j ] } $.P.g.p.L Y 0.0.Y H F G ~ K m g } t.t.z 9 b q a m a 8 y d [ } [ U K [ [ Y u F p > ; , < O ",
"2 a f 2.g.i.B g ~ M r i & a b k ~ e.p.0.3.[ [ o.8.q.F P ^ D u P V V j h ] r.{ y M Z 2.U ] K 3.f ] 3.i.3.L 8.Y u F - + 6 + , < $ ",
"q s U M h $.i.t.V u d r j ^ U k k U 3.[ K f H [ Y H u G I F P U z V { } } { 3.1.<.Z g { i.} U j ] i.] _ U 8.1.t p - O ; ; p P P ",
"q m <.Z g ) $.t.{ g U 2.3.3.} ` i.z [ o.3.1.K Y Y D 2 : > W F 3.1.U z U ] ] 3.] 3.] j r.3.} a s 3.' ` f F I F p p D W D ; - p ^ ",
"m Q h { $.;.i.$.g.$.3.{ h $.g.>.U k ] ;.) U F ! E $ 1 $ - : t 1.0.0.d d k P 1.] } ] 2.a.$.:.q.U i.;.} 4.P u S F D F ! A ; < + - ",
"1.f.} ) } } } } ;.} a.} g >.i.;.k s } [ Y u t p 2 * - p ! D p Q <.k f r i i ^ i.) ) 3.0.3.d U ( U _ h Y U K 8.F F I G D < 5 3 4 ",
"h f.g.;.[ b P ] 0.[ >.} 3.s.>.,.p.U f.o.[ ~ p : p t t F I D F k u 9 y & & u u K K K ' ) f 8 t Q # r H f o.p.H I T X.O.X.k.z.v.b.",
"h 1.1.] P i k P i.}.' ` a.i.t.f Y 8.U Y u P s u ! p D P F D P U z a u u f f s s p s 1.[ 0.H I e.] ` K U o.q.H Y Y Y Y 9.j._ ! Y "
};
