/* XPM */
static char *_____________[] = {
/* columns rows colors chars-per-pixel */
"64 64 200 2",
"   c #050304",
".  c #090605",
"X  c #0D0906",
"o  c #0F0A09",
"O  c #120B07",
"+  c #130D0A",
"@  c #190F0A",
"#  c #16110A",
"$  c #1C130D",
"%  c #1C1510",
"&  c #1E1812",
"*  c #21160E",
"=  c #24190F",
"-  c #2B1C0F",
";  c #211611",
":  c #241A12",
">  c #2B1E13",
",  c #301E14",
"<  c #2D2115",
"1  c #262118",
"2  c #2E241B",
"3  c #332316",
"4  c #392617",
"5  c #372916",
"6  c #3B2917",
"7  c #342519",
"8  c #392718",
"9  c #35291B",
"0  c #3C2A1B",
"q  c #363217",
"w  c #3F311E",
"e  c #332B23",
"r  c #3B2D21",
"t  c #3F3322",
"y  c #402A17",
"u  c #422E1C",
"i  c #482F1D",
"p  c #45311E",
"a  c #4A331E",
"s  c #50341F",
"d  c #51391F",
"f  c #442F20",
"g  c #443321",
"h  c #4B3521",
"j  c #453B21",
"k  c #4D3A24",
"l  c #453628",
"z  c #453928",
"x  c #4D3D29",
"c  c #503721",
"v  c #533B24",
"b  c #5A3E25",
"n  c #553E29",
"m  c #5A3F28",
"M  c #413A36",
"N  c #4F461D",
"B  c #4D4529",
"V  c #564127",
"C  c #5B4126",
"Z  c #544A27",
"A  c #54422A",
"S  c #5C432A",
"D  c #5E492E",
"F  c #555420",
"G  c #5A5222",
"H  c #534432",
"J  c #5E4730",
"K  c #5D4A32",
"L  c #5D4D39",
"P  c #614326",
"I  c #63452A",
"U  c #68462A",
"Y  c #644A2D",
"T  c #6B4C2D",
"R  c #714E2E",
"E  c #65502F",
"W  c #6D532E",
"Q  c #65582B",
"!  c #73512F",
"~  c #7A552F",
"^  c #634C31",
"/  c #6B4E31",
"(  c #714E31",
")  c #655134",
"_  c #6C5233",
"`  c #6B5932",
"'  c #64533A",
"]  c #6D5638",
"[  c #6B5A3B",
"{  c #745332",
"}  c #795633",
"|  c #745836",
" . c #7B5A35",
".. c #735638",
"X. c #745A39",
"o. c #7C5D3A",
"O. c #6A672C",
"+. c #6B653B",
"@. c #7D613D",
"#. c #726E3E",
"$. c #5E5A46",
"%. c #655648",
"&. c #6C5D49",
"*. c #745D41",
"=. c #755D49",
"-. c #7B6340",
";. c #776749",
":. c #7A6B4E",
">. c #676350",
",. c #7B6A57",
"<. c #766A5C",
"1. c #7B6F59",
"2. c #736D68",
"3. c #75716D",
"4. c #7D7871",
"5. c #825B37",
"6. c #825E39",
"7. c #84633C",
"8. c #89623C",
"9. c #87693F",
"0. c #88683D",
"q. c #836541",
"w. c #8F6540",
"e. c #856A43",
"r. c #8C6B43",
"t. c #816748",
"y. c #896748",
"u. c #876B4A",
"i. c #926C43",
"p. c #986F42",
"a. c #8D7145",
"s. c #8C724A",
"d. c #937145",
"f. c #947449",
"g. c #9D754C",
"h. c #937A4E",
"j. c #9B7B4D",
"k. c #826A54",
"l. c #897754",
"z. c #8B755C",
"x. c #947C52",
"c. c #997E51",
"v. c #997E5E",
"b. c #A37D4F",
"n. c #A07D52",
"m. c #847965",
"M. c #937B61",
"N. c #997D60",
"B. c #847B71",
"V. c #9B8256",
"C. c #9C8058",
"Z. c #A2814E",
"A. c #AA814D",
"S. c #A38355",
"D. c #A88352",
"F. c #A68759",
"G. c #AB8D5D",
"H. c #AB905D",
"J. c #BF9B5F",
"K. c #97836A",
"L. c #99916E",
"P. c #8C8174",
"I. c #8E897D",
"U. c #948D72",
"Y. c #9A8A7B",
"T. c #97987B",
"R. c #BB9E6B",
"E. c #C19760",
"W. c #98918A",
"Q. c #9FA58E",
"!. c #AFA089",
"~. c #A2A395",
"^. c #ABA596",
"/. c #A7AF90",
"(. c #A3A299",
"). c #AEA79D",
"_. c #AEA89E",
"`. c #B0AA98",
"'. c #B7B598",
"]. c #BFB59A",
"[. c #ADAFA1",
"{. c #ACAEAC",
"}. c #B3B4A7",
"|. c #B4B2AB",
" X c #B5B6B3",
".X c #B6B8B7",
"XX c #BBBBB4",
"oX c #BCBEBD",
"OX c #BDC0B5",
"+X c #BEC0BF",
"@X c #C1C3BD",
"#X c #BFC1C0",
"$X c #C3C5C4",
"%X c #C6C8C7",
"&X c #C8CAC7",
"*X c #C7C9C8",
"=X c #C9CBCA",
"-X c #CED0CF",
";X c #CFD1D0",
":X c #D1D3D2",
/* pixels */
"$X$XoX$X$X=X%X%X%X%X%X%X%X=X%X+X#X=X*X%X%X%X%X*X*X%X%X$X=X#X-X=X#X+X#X*X#X#X=X=X*X=X;X;X$X=X=X=X$X$X*X=X$X%X*X%X#X*X-X=X%X%X%X=X",
"$X$X=X=X#X%X$X%X$X$X=X%X%X%X%X%X%X=X=X#X*X$X+X%X%X=X=X=X=X%X=X#X=X=X#X%X-X=X-X=X=X*X=X=X#X=X$X-X-X#X$X$X*X-X*X#X*X=X%X#X*X%X*X%X",
"=X=X=XoX$X%X$X+X%X$X$X$X%X%X=X=X$X$X=X#X=X*X$X=X%X=X=X*X=X#X-X%X-X=X#X=X#X=X=X#X=X$X=X$X=X=X=X$X#X=X%X*X*X#X#X%X#X#X*X*X*X*X$X%X",
"$X#X%X*X=XoX#X=X=X%X=X=X=X%X%X%X=X=X*X=X*X#X#X=X*X*X*X=X%X#X%X%X#X=X=X#X+X=X=X#X=X*X-X=X$X$X$X$X%X$X#X#X#X#X*X#X-X*X*X*X=X%X#X*X",
"$X=X=XoX$X$X$X$X=X#X#X+X=X%X%X=X=X=X$X=X=X$X$X*X%X=X*X-X=X#X#X%X-X#X#X=X*X=X#X#X$X*X=X#X*X$X$X$X+X*X*X#X*X$X#X-X#X*X*X-X%X=X;X#X",
"$X-X#XXX=X$X$X$X$X%X=X=X=X=X%X=X%X%X=X#X$X$X$X=X=X=X=X-X#X-X=X*X=X#X#X#X%X#X=X=X*X=X=X=X#X+X$X$X#X=X*X*X=X$X;X-X-X=X*X-X*X*X*X-X",
"=X$X$X=X$X=X%X-X:X$X#X=X=X%X=X$X$X#X$X$X$X$X=X*X%X-X#X#X=X*X#X#X#X=X=X-X=X*X%X=X-X#X$X$X$X*X$X#X*X*X=X=X$X%X#X#X#X#X#X*X%X*X*X#X",
"oX=X%X*X=X=X#X=X=X%X$X=X%X%X=X$X=X$X#X$X#X=X#X+X%X#X#X;X#X%X*X#X#X-X=X#X#X#X#X%XoXoX$X+X$X$X$X*X#X$X*X=X=X%X#X%X*X=X*X*X%X*X#X*X",
"=X$XXX$X$X$X$X=X$X=X*X*X#X$X*X$X$X$X$X*X=X*X*X=X$X%X=X#X%X%X*X%X=X=X%X#X=X%X=X#X#X#X#X-X$X$X*X*X$X*X*X*X$X*X=X*X%X*X#X-X=X:X=X#X",
"#X$X$X#X*X=X*X$X#X=X*X$X$X$X*X#X#X$X$X=X$X$X$X#X=X$X%X=X#X;X$XoX%X#X=X=X=X#X#X#X#X=X=X#X*X=X*X-X+X*X$X=X=X*X*X*X*X*X*X-X=X%X#X#X",
"$X$X*X%X=X*XoX*X=X*X%X$X$X$X*X*X*X*X-X$X=X=X=X$X=X=X%X=X=X#X*X$X#X=X=X#X#X=X%X=X=X=X-X#X$X=X=X$X$X=X#X+X$X*X*X*X=X*X*X#X#X%X#X#X",
"$X$X%X=XoX*X$X%X=X%X*X$X$X$X*X*X$X=XoX+X$X$X$X#X$X=X;X#X#X*X$X*X=X#X=X=X-X=X#X=X#X#X=X=X=X*X$X*X#X$X*X$X*X*X=X*X=X=X*X=X#X*X*X=X",
"$X$X$X=X=X%X$X%X%X$X$X%X*X=X$X$X=X$X*X*X$X*X$X=X=X#X*X#X*X$X*X=X-X#X=X=X#X+X#X#X#X=X%X%X-X-X*X=X=X$X-X$X*X$X$X*X=X*X$X=X=X*X=X%X",
"$X=X=X=X$X=X%X%X$X=X$X+X$X=X*X*X=X=X+X$X$X*X=X=X%X%X$X*X;X;X$X$X=X=X#X%X;X=X%X#X:X=X%X+X}.Q.[.$X-X#X$X=X*X=X=X-X+X#X=X=X-X=X#X#X",
"!.(.oX%X%X*X$X*XXXY.>.N.k.W.).oX*X*X$X$X+X*X=X=X$X=X;X.X(.].I.|.%X=X%X=X#X#X%X-XOX#X'.&.L r.r.m.}.+X-X$XoX$X=X*X#X#X{. X X XOX#X",
"| b N.$X%X*X%X^.l.d.} m m 8 , ,.XX=X*X*X=X*X*X$X=X=X~.K.g $ 3 *.W.#X%X%X#X%X#X#X#XL.e Z S ) u k &.M.).+X*X*X-X=XXXU.' 9 L t.e 1.",
"j ^ ^ |.%X#X{.=./ v Y > q G < X.m..X-X=X$X$X$X*X=X|.q.} 0 c ] q.n ^.$X.X$X%X$X X1.v n _ 6.B ] j.H Z H 3.B.`.@X@XB.> > 8 -.8 k g ",
"v r.d.=.m.k.y.6.b g e.+.;.F  .w T %.Y.Y.P.B.P.3.2.M f.7 W X.n ^ G.] N.4.B.!.Y.L > g h S.;.$.s.` Z # Y 7 k ^ L z.l : v x S k I k ",
"_ v A ( m o.i 8 P _ : h V F.I $ D | m 7 8 ^ T 0 D / 0 V a T R 8 o ^ Y 8 S r v / ^ % m 0 8.6.g.+ p N Q 8 X.@ 8 { h I m n < m I ^ ",
"I } . 8 T r.I } c k k A & 0 a W S m A g > X.: v : v C U A S I { c f 8 } x.f ] k k I P d.V.6.S f * = k C 9 } P 0 ^ P I > r 0 A 7 ",
"} a 6 5.f A y.R I   k h P 6.v a ( q., c V : 3 k X.k 8 _ k T 8.} v  .( / x = 7.6.R.~ o.} w.o.* + 0 v { S c.i.7 q.n./ T a u a o.a ",
"v V.t.  A m a h / } } 7 v : e.s.c @ f ^ I 6./ q.g v T p S 0 T 3 o.m } / / H > i.v.b f ( g @ * + 8 ) o.b < g m q./ 8 0 m c { 7 T ",
"d.S ^ ^ o.| o.g v I v v i.C / * g , h c 6.m } u I r.r.( ] T p 8.o.c n 6.S @ d.( :.v Y I h 7 : 7 7 ' ^ e.o.h a 8 0 u 0 S u n k o.",
"1 t ^ o.X.{ .. .{ c g T I A h I Y } P Y v c i.v 6.w.c { T = % T g u 6.r p.5.% 8.i I n { = 2 3 S 0 v H 0 h a P } m { ..6.b 7 v % ",
"{ g.u C S 6.( m R g m {  .@.j.S } q.r.U ( b.8 ( ( T 6.i.x. .U I h a o.S P v < n 0 ..3 @ 3 0 A S ( P f  .h 6.w.S v g I S u , f.v ",
"X.= @.U 8.v -.8 T > u 7 X.x 0 e.6...S 8.} n.i.5.7.{ ( R I / p.v 5 / I G.3 8 n x o.< > 3 3 c y j.c  .I c _ T S h g P g < I I 0 ( ",
"u ^ O b.g m g , r 6 S b v 0 o.9 l o.I } |   k I S v v } c.] n Y ^ ! } 3 0 7 . S A 3 % 7 A @.q.k ^ P $ h 0 8.6.a / , f.I y.f._ x ",
"3 > T X.b E.y h I Y S 6._ a ; + > ; > i n U k v 0 v  .I u n c V v a $ g 0 T e.I $ > 3 < ; x g d.R n 8.A v } 8.h O U ; : < f l v ",
": i./ T b 0 h v ^ u Y n u Y / u I R P p l 5.h X.I 8.g v q.a b X.8 0 Y u S o.u X 7 a T / P x X.3 ^ S 8 ^ u { b c c } / m v I v S ",
"h y Y ^ c a A 9 0 k g 0 I k 2 8.h b 7.@.a u c C 7 H ^ { J a o.C h u b P 9 r x 0 u : U 0 P v ; T v m r.V T  ./ h v ^ I / 5  .g h ",
"| m 3 u u S 8 3 @ + } c 3 I o.0 h q.= 8 b v c P v u : T S 8.I T f b } g c x o O k 7 0 } } n v h < I l 2 w.7.c I T e.0 g 7.C u g ",
"g h a u v V 3 > m S R ( b.D.a 6 } k b > h { Y S g v a k n / 6 u ..v h u > u 0 3 9 ) k u 7 S v 3 v s.3 k h n _ I 8 h c v H , ( c ",
"Y a ] 0 p ; c 7 v b T / 0 7 d H.} } 9.I 3 4 k c C a 0 > } g _ c u : b c I r 3 u 7 > k 0 v I k T g < T S I A B p 0 p c V v k v Y ",
"h h 0 v S I a P S h g I } T C a P S a b 3 3 3 u m S ( _ v | v h 8 h 3 g 7 n k p _ c k > *.h T I T ^ c 7 8 c l a X.{ A v g k / 7 ",
"8 : * u 0 A m T T T A 4 v I C p { _ T 8 0 - k v T h  .b a @.c 3 h u 3 g 0 g h h ; Y ] 7.t.g a A g K S g > g > S p f.C v 3 { e g ",
"a { a a v b I k d.q.8 / u b I _ a 0 c > ! R 7.v c a 3 n 6.A g 3 a 3 3 8 q.I c u 0 0 7 S x g 6.I T m : > k { { I Y : % I m | Y u ",
"T X.7 / A  .u { : n P 9 p 9 5 v T a 3 g a C i c v c h { > p = a u } k v g k h 8 a ] a k V _ a h { T _ W P > h / T / 8 S | 0 3 v ",
"> > 7 ; I a >  .{ 7 S u 8 > Y 9.a a v 0 = e.{ 7.4 v 0 : X.v u k - u 4 y 8 0 > a a u k g n q._ S Y h a 9 c _ I a A g S Y 0 b } P ",
"f 0 c.S r.T 7.v 3 8 ^ 0 ] c { 9 b A ( T V.0 o.+ a k 7.c 4 0 A h v z h u u 0 b 7 C c v 0 / p 8 U { v ; h S 3 3 : 8 r _ o.S } c f ",
"a 7.9 7 > A < S ; k $ > ; f n I v g  .T u V p ] u.u C ! @.= 0 d m 0 h u h k a 7 k u 0 v _ f S S 0 u 3 a 3 y , : u u 3 a V T a a ",
"Y S 8 u T u u f m ^ 6.u k u : 7 ^ I ..g h t 0 $ a T V K > 8 V q.c a 5 k < W u n a v c a V.> # 3 @ > u : 0 0 T T v 3 h $ u 8 v L ",
"i g : 8 > 9 j.$ : r { g 7.X.8.S b b 7 b 0 0 > 0 9 < 0 0 > p a *.S > U 0 x S b A 6.a .. .> 3 3 < k u S v o.{ d.3 6 k h f / m $ 8 ",
"b 8 n > u c > u k g y V > % x. .I U U v > T { 0 > > & $ = 0 v p g [ ^ v S k 3 V S 0 A 0 % < < c 3 v 3 X.I u I ^ 3 8 h c 3 v m a ",
"0 W V Y u / ^ m h ..A 3 7 p > * 3 i x C C -.k c 8 V k a 7 8 k 3 0 p 6 T d > k 0 3 X.^ A 8 D 7 3 C c k < k @.c + 6 u g m I e 3 a ",
"C 0 n v a A 3 T k v v k p I U u.k < < > g 3 A S c a _ d.| j.U 0 < = D a # a 0 3 c u 9 0 0 * 6 0 0 u k 9 3 C < < v I g S : 3 > ^ ",
"u A v a I 0 k 3 9 | a 8 < < C 3 a a 3 ^ v g h } x.q.8 D T V < } A 5 $ 0 3 0 k V o.n : 7 2 _ : 0 8 0 3 b @.: : k 0 < , c } 8.I u ",
"g g 3 8 2 a V S a u r v 8 D c k V g / a h h 8 o + $ $ > k P 3 h a b p < a k { I k % X : 3 * > 3 ; v h h > 3 k > g S } v p 0 v u ",
"h k u E > $ C I p 9 p a 9.7.g p * 3 a Y u 7 + 3 < > l : r > B V C p p p 8 a 8 a g $ 3 8.k > : $ g 7 g $ ; 9 7 h X.D S T v h 8 a ",
"a 0 b g k r.k m a A 7 b 8 p u v 9 c k 8 0 = 0 . < 0 < Y a 6.v a o < 8 V | 0 k ' b 4 a : 0 5 3 $ 8.Y u u 3 5 0 I h A g y u : 3 h ",
"v / 8 a a 8 > > ^ > 3 v l # a g I 0 3 p p < 7 + + $ u * 3 * a a < > $ < 5 ) ! I T A g h S > a - 5 * _ c.z 7 k o.) p [ ..7 T R 8 ",
"7 g 0 8 8 8 a a 0 v : @ > V h : g v _ 0 $ o # 7 V v 8 0 5 v p < > $ f k b p I 5 3 0 0 v < h > 0.A 8 3 - p < T V > c 0 u a g a 0 ",
"v 0 a # $ j a 9 K u R _ k V 7 7.3 7 3 # c p < a : 0 I 6.u A 5 S a _ p 3 3 r I u P a < 3 h w o.k 4 v d.P v 0 O V a ; A 3 p I 3 v ",
"8 p 5 p a > I a _ S h u g V > 3 9 O S 3 9 h V k P y ! a b { < p 5 5 8 0 3 w 9 k k C a l 5 u C 8 O > Y T c 8 v A a 3 > t k a > x ",
"0 c 3 0 p 0 < O o 7 # 3 > $ g < a J.u $ % $ 3 { _ h < 0 u $ U I 5 3 ) W y k < g x c h p e.> 3 3 :  .@.| U a s 4 C 9 0 S ; < E < ",
"! : a p 8 5 a a g $ 3 7 9 k g 0 3 # 3 < > u $ h g u a 7 5 u - | u = 4 a c h c k 3 = X.- * ] D 0 4 } 6.S ! 0 ) C h 0 T V a a 7 $ ",
"Y ) b a 3 k 3 p ; t 6 5 v 0 > 8 $ C v _ h v v d v b u > I ! _ - I 0.a > 8 < a > 7 v 0 5 v 7 = 3 a P P 0 5 0 k 3 c a 0 3 t p S U ",
"= u < > 0 8 = u u 3 h 7 c 3 0 c I k v 3 8 V v c ! W c R W u y u I 4 3 a | P f.V 0 x a b < 0 S w I o.k g i C y 4 c g 7 > u < > V ",
"a w a k < 0 a u b $ * 5 b 3 p 0 < U k k _ T I a $ O u 5 3 u 0 C Y S 0 r.# ! 9 8 v a g h 9 > & $ 5 0 Y { k * 3 3 > 6 3 3 > h h 7 ",
"8 < k 0 < u 3 u a h T u f.k D 0 v 3 > U R P o.W k v y a 7 a P 0.I S V T 3 < 0 0 $ g 0 u b p C v z P # $ p R p h.i 8 u a a $ a k ",
"k a $ k v 9 u s 0 } U P u 5 b T g c R } D C 6 ~ T A ! a c b 0 a ! a c C 5 $ < < 7 $ 3 > $ p < v d $ 3 p P S = = 8 a v v a C p > ",
"> $ 8 < $ 3 s k T 5 < u u C v T I } a 6 S < c c W h a b C k 9 p : a < 3 y z # X < > 5 > $ 7 8 0 > a ! 3 b . } p = : - _ o $ > < ",
"v a u 0 k 9.P 6 # T ! 0 0 y | u p # X a 3 c v 3 + 7 p 3 5 + 3 c a a 6 0 p $ : < b 0 I R } h 7 : p g a c h p $ $ p 5 8 * > 9 : B ",
"a 0 v k } p 2 # p u C > > $ X O $ = k 7 & a 5 a k D > 8 c = v $ V 0 0 6 ) > > 0 C 6 5 c 9 w V S 1 I 7 w 3 8 i v & h P U m 5 Y 8 ",
"a d v 6 < g < d  .v 5 3 0 * < - p P a A 0 a a k > < < - 4 9 u u 3 3 3 a 3 < $ X > 0 c d w p p 7.y u > 3 c a a P u d g b h s k C "
};
