/* XPM */
static char *_____________[] = {
/* columns rows colors chars-per-pixel */
"64 64 256 2",
"   c #040201",
".  c #0B0400",
"X  c #060A05",
"o  c #0C0A02",
"O  c #060709",
"+  c #0C0B0B",
"@  c #120601",
"#  c #1A0603",
"$  c #130B03",
"%  c #1B0D02",
"&  c #130D0B",
"*  c #1D0B09",
"=  c #0C110D",
"-  c #161003",
";  c #1D1204",
":  c #14120B",
">  c #1B140B",
",  c #1E180A",
"<  c #0E0F10",
"1  c #131414",
"2  c #1C1512",
"3  c #131814",
"4  c #1C1B13",
"5  c #151618",
"6  c #191718",
"7  c #1A1A1C",
"8  c #17181A",
"9  c #0F1012",
"0  c #210E02",
"q  c #221403",
"w  c #281605",
"e  c #241C02",
"r  c #2B1A06",
"t  c #22140C",
"y  c #29150C",
"u  c #241B0C",
"i  c #2C1D0B",
"p  c #321E0D",
"a  c #321C05",
"s  c #231B14",
"d  c #2C1D1B",
"f  c #281914",
"g  c #311E10",
"h  c #311D1B",
"j  c #2A2205",
"k  c #2D240C",
"l  c #272003",
"z  c #34210E",
"x  c #38240B",
"c  c #262115",
"v  c #2D2313",
"b  c #242219",
"n  c #2B241B",
"m  c #2D291E",
"M  c #342413",
"N  c #392614",
"B  c #3B2917",
"V  c #34241A",
"C  c #332B1D",
"Z  c #3B2C1B",
"A  c #382619",
"S  c #3C311E",
"D  c #3B3417",
"F  c #211F22",
"G  c #1F2420",
"H  c #2E2420",
"J  c #2D2A24",
"K  c #262926",
"L  c #342C23",
"P  c #3C2D23",
"I  c #322D2A",
"U  c #392C2A",
"Y  c #2B302C",
"T  c #363226",
"R  c #3D3424",
"E  c #33312A",
"W  c #3C342C",
"Q  c #3D3A2C",
"!  c #3B3931",
"~  c #3B3630",
"^  c #432C15",
"/  c #412D1A",
"(  c #43321E",
")  c #4B3A1E",
"_  c #4A341B",
"`  c #422E23",
"'  c #433424",
"]  c #493623",
"[  c #443925",
"{  c #4C3B25",
"}  c #43352A",
"|  c #453A2C",
" . c #4B3C2B",
".. c #49352A",
"X. c #523F25",
"o. c #513E2B",
"O. c #433533",
"+. c #443C33",
"@. c #4A3D32",
"#. c #4B3C3B",
"$. c #473C38",
"%. c #523F30",
"&. c #4A4324",
"*. c #4E4629",
"=. c #54412C",
"-. c #5D452C",
";. c #5C482E",
":. c #534527",
">. c #57512F",
",. c #464134",
"<. c #4B4333",
"1. c #414139",
"2. c #4E443B",
"3. c #4F483E",
"4. c #534333",
"5. c #594634",
"6. c #554835",
"7. c #5C4B35",
"8. c #53453A",
"9. c #544B3C",
"0. c #5C4B3B",
"q. c #5A4738",
"w. c #5D5636",
"e. c #63492E",
"r. c #624D34",
"t. c #624D3A",
"y. c #665137",
"u. c #64523D",
"i. c #6B553C",
"p. c #6D5A3E",
"a. c #66583A",
"s. c #74593D",
"d. c #785D3F",
"f. c #524442",
"g. c #544C42",
"h. c #5B4A40",
"j. c #5C5344",
"k. c #5C5449",
"l. c #545044",
"z. c #614F42",
"x. c #645443",
"c. c #6A5542",
"v. c #665945",
"b. c #6C5944",
"n. c #63574D",
"m. c #695749",
"M. c #655B4B",
"N. c #6C5C4B",
"B. c #745C43",
"V. c #795E42",
"C. c #715D4A",
"Z. c #795E49",
"A. c #725742",
"S. c #665D52",
"D. c #6A5E53",
"F. c #715F51",
"G. c #6C6141",
"H. c #6F604C",
"J. c #766346",
"K. c #7C6246",
"L. c #73624D",
"P. c #7B654B",
"I. c #786B4B",
"U. c #7E714F",
"Y. c #6B6253",
"T. c #6D6659",
"R. c #6B6558",
"E. c #746553",
"W. c #7A6654",
"Q. c #776955",
"!. c #7A6A55",
"~. c #74655A",
"^. c #756A5A",
"/. c #7C6C5B",
"(. c #7C6658",
"). c #7E7154",
"_. c #7F755A",
"`. c #7B6F61",
"'. c #756D62",
"]. c #7D7263",
"[. c #7E776A",
"{. c #826446",
"}. c #81664A",
"|. c #856B4D",
" X c #8B6C4D",
".X c #836C54",
"XX c #846F5C",
"oX c #896F56",
"OX c #847355",
"+X c #8C7255",
"@X c #84725C",
"#X c #8B735B",
"$X c #8A7D5D",
"%X c #877A58",
"&X c #947A5E",
"*X c #957558",
"=X c #826E62",
"-X c #837464",
";X c #8A7665",
":X c #8B7964",
">X c #8B7768",
",X c #857A6B",
"<X c #8B7B6B",
"1X c #867B64",
"2X c #947C62",
"3X c #917D6C",
"4X c #9A7E63",
"5X c #8B7E71",
"6X c #877F72",
"7X c #917F72",
"8X c #8B815F",
"9X c #8D8263",
"0X c #9B8367",
"qX c #92826D",
"wX c #9D836B",
"eX c #978868",
"rX c #8C8172",
"tX c #878173",
"yX c #948473",
"uX c #998475",
"iX c #9A8974",
"pX c #938A7A",
"aX c #9C8C7C",
"sX c #978873",
"dX c #9F9270",
"fX c #A48364",
"gX c #A3876D",
"hX c #A7896B",
"jX c #A58C72",
"kX c #A58B75",
"lX c #A2927E",
"zX c #AE937B",
"xX c #A89677",
"cX c #B1947C",
"vX c #9B8D81",
"bX c #9A9384",
"nX c #979181",
"mX c #A49384",
"MX c #AA9B89",
"NX c #AA998A",
"BX c #B69A83",
"VX c #BB9D86",
"CX c #BA9E89",
"ZX c #A79D91",
"AX c #BCA38C",
"SX c #B4A48D",
"DX c #ACA092",
"FX c #B3A394",
"GX c #BBAC9C",
"HX c #C2A38C",
"JX c #C2A691",
"KX c #C5A993",
"LX c #C9AA94",
"PX c #C9AE99",
"IX c #CDB39C",
"UX c #C4B8AA",
/* pixels */
"LXIXuXM   C g.Q v.;X) # !.8.W P t.mX&Xr.u.v.@ - C aXMX:X+X{.d.y.q w N.:X=. .8.#   1   L @.v.C.J.b.C   2 x.2XgXJ.R E 4 f P.&X:X7.",
"LXPXyXM   m l.<.6.<X5.; /.8.U } t.wX.Xr.v.m.$ @ Z sXMX0XOXK.d.e.e w E.3X=.o.q.$ . :   C | N.P.P.v.C   4 u.4XfXK.E K : c |.&X:Xq.",
"LXJX3XA   c l.3.S sXL.w (.#.I @.t.P.p.q.N.H.; o ' rXMXiX.X{.{.-.w k ^.sXr.4.q.% & &   n } L.2XJ.6.C   4 c.2XfXJ.Q K 3 C +X&X@X4.",
"LXCX;XL   : ,.9.M lXqXz C.} H 8.t.i.7.=.N.N.s . | 1XMXlX+XK. Xe.i k /.iXt.q.h.> *     s R L.0Xi.{ m   b b.4X*Xs.+.Y b R +X|.H.[ ",
"LXVX>X`   @ m C M qXlX( x.P s P 5.i.r.( N.n.i . +.<XaXiX.XK.|.K.S M L.3Xr.t.z.* .     n 9.C.%X;.] C o ! qXwX*XK.1.K b <.&XK.7.Z ",
"LXCX7X} @ : m v S W.qX( m.@.2 * ( b.b.B N.h., . <.pXmXsXoXB.}.#X] v v.@Xq.q.x.# .     m N.L..Xi.( m X 1.aXgX XP.1.G 4 9.jX X7.v ",
"LXJXuX@.$ s C c R u.@X' F.8.>   a b.L.C Y.9.$ . 3.bXNXsX#XJ.}.0X[ v x.!.-.0.z.$ .   . m ^.E.oXP.( c   1.lX0X{.K.Q 3 = 6.zX|.=.% ",
"JXJXNX%.o , b c D x.0.=.m.@.* . q p.u.N 6.<.. @ <.ZXpX/.:XP.K.jX .k m./.] q.z.% . o   b rX:X$XP. .C o 1.qXjXhXs.L 3 : 6.jX{.{ ; ",
"JXJXmX .. : c n [ x.7.6.x.O.*   r t.q.M | | . o +.nX<X!.:XK.K.jX6.C L.@X_ %.z.t . &   b 5X-X.Xp.{ C X ! :XhXfXe.m 3 4 9.0Xs._ % ",
"LXHXuXP   - c C 6.6.=.0.v.%.s % ' ;. .i C C .   O.6X].!.:Xp.i.wX0.[ Q.@X/ ` z.t @ &   4 ,X:X|.p. .C   E :XjXfX_ : = 4 9.0Xy.B @ ",
"LXCX>XV   $ c Q 0.) [ b.F.n.U P q.o.] q ; c o   +.[.^.`.:Xr.-.:X7. ./.-X/ N h.t @     $ ].<XOXP.4.Q X J :XcXfX^ . X 4 l.0Xs._ @ ",
"JXVX/.q   o n Y.T.z Z !.m.`.$.W D.t.*.%   ; .   T R.].<XXXX.-.oXM.| H.lXt./ D.P @     : -XiXP.i.;.Q X J %XcXfX^ . = b k.BXfXv.u ",
"CXBX(.*   @ C [.m.0 N /.m.5Xf.W D.C.0.% . , o   T T.[.-XC._ -.XXH.S 5.aXi.Z F. .&     o ^.uXJ.y.o.R X E @XwX*Xx o 3 b 9.zX0Xp.w ",
"VXBX(.0   @ L tX6.  k ^.m.vXn.2.N..Xx.% . 4 .   ! '.,X-Xx./ =..XM.k S sXt.N D.O.f       S.qXB.p.{ R o ~ -X0X}.a $ 3 b <.eX+Xu.q ",
"BXkXi.a   . ,.,XR o u Y.].<X8.' C.=X0.@   1 &   ~ '.yX<XC.] %.>X].w $ b.c.M ..8.I +     j.-X!.i.o.M > O.^.9XI.j   s u | OXJ. .t ",
"VXBXA.p @   <.tXQ o u T.,X5Xq.A m..X<..   5 + O I D.5X7X/.q.4.-X-Xi w W.u.g @.f.I +     k.,X).b.{ p t #.].$XG.r . f , { U.b...y ",
"HXBXZ.^ # $ 8.tXQ o , T.,XtX4.g oX;X8.$ + 5 O   H D.>X7X=Xz.0.`.^.w B @Xq.p 8.g.E +     k.1X.Xb.) a * #.-X_.>.l - s ; | OXa.Z y ",
"cXcXZ.] r r j.pXR X , R.].1X<.A 3X>X4.: : 5 O   I D.<X>X(.t.h.,X/.i 4.:X{ y 8.2.E < O   g.-X!.p.X.z * f.tXQ.*.j ; n $ { 8XJ.A 0 ",
"hXhXZ.o.S C R.bXT   > S.'.-X9.' .X(.} . + 5 + O F D.7X>XC.o.%.-X].Z b.>X/ # } O.I 9 X   g.'.L.y.-.B * f.rXU.&.l , d @ | eXU.V # ",
"cXcX.Xt.*.&.^.aXQ   - Y.tXaXm.=.(.;X8.@ + 5 <   + n.yX>XC...%.=Xx.' (..Xp 0 ` g.I 9 O   3.E.x.:.=./ * O.pX8X&.l t ~ % R jX$X` y ",
"HXVXoXy. .[ R.pXQ   $ Y.rXmXm...C.XX2..   7 9   1 n.7X;XC.%.z.yXY.6.@XE.p 0 V f.I 9 + . 3.E.u.X.) B # O.vXqX*.; > O.u S dX$X..V ",
"HXzX#Xo.=.C j.pXT   - j.].ZX/.` q.m.} $   8 1   2 8.~.7X;X .q.5XE.| -XL.p r V h.H 6     2.Y.L.;.) { @ O.yX:X>.l s W % ( dX8X` V ",
"zXzX#X{ 6.D j.aX| X - 9.'.DX-X .t.A.@.$   5 <   & 8.(.uX;X%.z.yX/.| !.L.p y V f.I 5 O   <.R.L.;.{ { # U ].).w.j > U s <.xX:XA t ",
"gXcX2X=.6.R 9.pX,.X o 2.'.GXyXz.c.C.} o O 5 9   & 2.=XmX;X%.m.pX<X*.E.L.N q V 2.I 5     3.~.I.;.) =.t d j.v.w.k ; U C 7.xX$Xp # ",
"gXHXgXo.5.R <.^.<.X . 2.,XUXbXC.t.c.} @ O 7 8 X 2 <.`.mX;X%.m.<XrX6.E.W.N q V 8.I 7     f.^.W.;.{ %.f h | >.G.k $ H n  .9X$XA y ",
"4XCXkXo.=.' <.Y.3.X o 9.,XUXmXN.c.C.} .   5 5   s O.~.mX>Xq.m.-XtX0.!./.B 0 P 2.I 5     3.^.Q.r.) ] h U R >.I.D @ s C [ $X8X..Z ",
"A.4XzXq.B S M.n.R X - j.rXUXbXm.Z.(.8.&   + <     n ~.FXuXm.F././.x./.)./ w ` U d 5 O   ,.Y.E.r.) p h f.6.v.9X*., H 8. .J.OXA g ",
"A.wXVXi.r M m.k.m   o k.rXUXmXL.b.(.8.$   + 1 +   d `.KXuXc.m.L./.x.Q.W./ i } d K 5 O   ,.M.L.y.X.r f g.6.w.1X&.# > } Z a.-X..` ",
"A.KXMX-.a z %.@.n   . ! [.GXGX;Xu.v.H., o X o o $ d T.FXuXC..Xm.L.H.c.c...' @.s 7 5 O   9.^..XZ.X.A M M S a.^.x.q % v k 6.^.<.} ",
"L.AXkX-.p ^ %.@.s     E '.FXSXOXL.E.^.C - X o = > s k.NXuX!.#XW.L.H.c.x.o.} O.s F 7 O   g./.@XU.7./ i w B N.].v.q % v i @.S.R C ",
"L.AXxX-.^ ^ %.@.s     E '.FXFX@XJ.L.^.C - o o o , s k.NXuXW.#XP.W.L.c.c. .` @.s G 7 O   g.^.#XP.7.( a w N N.].x.q ; v f @.M.R C ",
"b.KXzX;.a p o.@.n     ! [.GXGX:Xu.v.H., o   o o o n ~.FXuXC..Xb.L.H.c.c. .} #.s 7 5     g.^..XJ.{ M M M S a.Q.x.q % v k 6./.<.' ",
"A.wXVXi.j k G.l.m   o k.5XUXmX~.b.(.8.$   + 1 +   d `.KXkXz.N.F.Q.x.W.!./ i } d K 1 O   +.N.L.y.X.r f q.<.a.9X*.o , [ Z x.%X[ P ",
"B.4XzX7.N T S.M.R   - k.rXUXlXm.Z.(.8.&   + < X . d F.FX7Xm.F./._.x.!././ w } U H 8 O   2.Y.E.r.) z h f.<.G.9X*., H 8. .I._.B f ",
"|.kXkXo.{ | j.Y.,.o - k.6XUXvXc.C.W.<.$   < 9   * I F.NX3Xz.F.`.[.v._.XXA 0 P @.J 5     2.Y.Q.r._ / h #.<.a.8X&.* d O. .OX$X` h ",
"4XCXkX=.=.[ <.Y.<.o $ g.,XUXmXN.c.N.} o   5 5   s | F.mX;Xt.m.-X<X0.^./.^ 0 P 2.I 8     3.~.I.7.{ ..h U Q >.I.D . s C [ %X2X..P ",
"gXHX4X%.6.S <.'.<.X . 2.[.UXvXN.t.A.} . O 7 5   2 #.=XmX;X%.x.5XqX6.E.W.N q V 8.I 7     3.^.W.;.{ =.f F ..q.G.k % H V *.9X%XB y ",
"gXBX4Xo.6.S 9.sX1.o o 2.`.GXyXx.c.m.} @ O 5 1   & 2.=XmX>X%.x.pX<X .E.L.g y V 8.I 5     3.^.I.;.) =.0 d z.b.w.k > U n 6.xX8Xg # ",
"zXzX#Xo.4.S j.bXQ   - 9.].DX-X .t.N.@.$   5 <   & 2.(.aX;X%.x.yX`. .!.C.p y V 8.I 5     2.Y.L.;.) *.# U =X).w.j > U u <.xX2XA t ",
"HXcXoXo.*.D j.pXT   - j.'.NX^.` q.c.O.$   5 1   > 2.~.yX;X .q.5X~.[ -XE.p i V f.I 5     2.H.L.;.) { @ O.yX1X>.e s U ; R xX$X` V ",
"HXVXoXt.o...R.pXQ   - Y.tXbXN.] B.XX8.  O 7 9   1 n.7X;Xm.%.z.yXN.6.-XL.p 0 V f.I 9 +   3.R.u.X.) Z # O.aXeX&.; > +.t S eX$X..V ",
"cXzX|.t.o...^.nXR   - Y.tXnXM.%..X;X8.$ o 7 +   & n.yX>XC...4.`.x.' Q.!.p q ` g.I & +   3.E.a.=.:./ * $.pX8X&., t U % ( dX8X} y ",
"4XgX}.q.&.| ^.bXT X > Y.].5Xx.%.(.(.... + 5 <   * n.7X5XC.....E.E.S E.@Xz 0 ` $.I & O   3.^.b.7.-.( # #.pX_.&.l s H # [ xX@XA # ",
"kXhXZ.%./ C Y.nXC X > Y.].,X6.' .X(.} . + 5 + O F D.7X>XC.%.q.-X/.Z N.<XB # } O.I <     g./.L.y.;.B * 3.tXI.&.l t n @ | eXU.N # ",
"cXcXZ.] i r j.pXQ   , R.].,X%.M >X;X8.> < 5     I D.>X>X(.0.0.-X/.k 4.:X{ w 8.f.I < O   g.-X!.p.{ z # f.,X).*.l > d $ | 8XG.M 0 ",
"HXBXZ.^ # $ 9.tX| o u T.,X<X4.V XX;X8.$ + 5 +   I n.>X7X;Xz.0.`.^.w N @Xq.g q.g.I 9     k.,X).b.) z * 2.-X_.w.l $ f ; | OXG.Z y ",
"HXcXA.p .   <.tXQ o u T.[.5Xq.Z A..X<..   5 <   I D.7X7X.X4.8.-X-Xi w I.x.p @.8.I +     k.1X/.p.{ z * #.].9XG.j . s t &.OXb...f ",
"cXzXc.a     &.tXR . u Y.[.,Xq.` m.-X9.o   5 +   ~ '.7X5XC.] %.>X].u # H.m.p ..f.I +     l.,X!.i.:.A * O./.9XJ.i   f t  .U.J.o.0 ",
"BXVXZ.0   $ L tX6.. k /.v.vXn.#.N./.x.$ . s . . Q '.1X-Xv.B o..XN.i ( qXt.g N.@.s       Y.qXC.s.{ R o ~ @XqX}.a $ : b <.eX+Xu.u ",
"VXVX(.t   o C ].M.% N !.x.5Xf.} N.L.q.;   , o   E T.].,XL._ -.oXH.S 6.kXc.Z F.O.& .   @ ^.qXd.y.=.R X E @XgX*Xx o 3 b 9.zX&Xv.r ",
"HXVX(.t   o n Y.E.j ( /.m.`.$.W N.u. .; . ; o   E T.'.<XXXX.-.oXM.| N.lXt./ D.P @     : ].iXP.p.6.Q   J #XcXfX^ . + b k.BX0Xb.q ",
"LXCX=Xy   o c 9.Y.N ( E.F.^.$.@.c.=.[ ; @ , .   W '.'.1X;X-.:.oX0.<.(.uX{ A z.f .     o ].sXOXP.7.| X J $XcXhX_   X b j.cX+X;.; ",
"LXAX>XV   @ s Q j.] [ b.D.n.U U q.=.] q q s .   O.[.`./.:Xr.-.:X7.| !.:X/ N 0.t @     $ `.<XOXP.=.} X J 1XcXfX^   X b 9.0Xs._ # ",
"LXAXuX`   : c L 6.5.=.7.m.%.f % ' =.{ i C C o . | tX].Q.:Xc.p.wX9.[ Q.@X/ ] z.t + @   s ,X:X.Xp.{ L   E :XxXfX_ > = 4 6.4Xy.B @ ",
"JXJXmX@.. > c v | u.q.4.z.@.& . i u.q.v | [ . . +.nX,XQ.2XP.J.jX6.C E.@X_ %.z.t . +   b rX#X.Xp.{ C X ! :XjXfX-.m 3 4 9.wXs.) % ",
"HXJXNX%.@ , c c S x.t.o.m.@.t   q p.x.N 6.<.  o ,.DXaX^.:X}.K.jX .k m.).] 5.z.* . &   b tX:X#XP. .C o 1.qXjXhXs.T 3 : 9.jX{.{ ; ",
"LXKXuX| - 4 C c S u.@X( C.8.2   a b.L.N Y.j.% . 9.bXMXsX#XB.{.eX .v 0./.=.0.x.$ .     m ^.F.OXP.( c   1.lXgX{.K.! 3 = 6.xX|.o.% ",
"LXAX3X..o ; m b S I.qX( m.@.t % ( A.b.B H.h.; . <.pXmXqX#XV.}.+X] v v.@X7.t.x.# .   . m D.C.OXp.) n X 1.aXgX XK.1.G 4 9.jX|.7.v ",
"LXCX>XP   o m T M yXlX( x.U s U 4.i.t./ N.k.u @ O.,XlXiX.XB.|.K.Z M E.qX7.t.z.% .     n 0.N.#Xe.( C X ! qXgX*XK.! K b <.&XK.r.B ",
"KXCX;XZ   @ T | v aXmXD m.P f 8.u.y.;.] N.M.c . ,.-XlXlXoXP. Xi.z v ).yXt.0.z.> $     b | L.2X;.( C o m W.0X*XB.1.Y b R +XB.r.C ",
"KXVX>XP   > +.3.v lXqXx C...m 8.u.i.7.=.N.S.i . | <XMXlX+X}.|.e.i v /.iXt.q.t.* &     f R E.0Xp.{ C X b v.4X*XB.1.Y 4 R +X XL.' ",
"LXJX3XV   c 9.9.R sXL.q ~.#.I @.0.P.c.7.N.H.; . [ rXMXiX.X{.{.-.w k !.uXq.4.0.% & &   n R L.2XJ.6.C   4 c.2XfXK.W K 4 C +X&X#X<.",
"LXLX7XV   m l.<.6.:X6.0 (.8.U } t.0X.X7.x.M.$ $ Z sXMX3XoXK.d.e.q e E.<X%.o.q.$   > . J | N.}.P.x.C   4 u.2XfXK.E K : v }.&X-X6.",
"LXIXuXV   L l.R M.:X] # (.8.O.P x.zX&Xy.a.x.@ - m aXMX&X+X{.d.y.q u L.>Xo. .4.#   >   L | v.b.J.H.n   4 x.2XgXJ.Q E 4 f P.&X:Xy."
};
