/* XPM */
static char *_____________[] = {
/* columns rows colors chars-per-pixel */
"64 64 240 2",
"   c #0A0000",
".  c #150E00",
"X  c #1B0A00",
"o  c #191200",
"O  c #251400",
"+  c #281600",
"@  c #251F01",
"#  c #2B1C01",
"$  c #2A1E08",
"%  c #272403",
"&  c #2C2301",
"*  c #2B2800",
"=  c #2B2809",
"-  c #332401",
";  c #382500",
":  c #3B2B01",
">  c #32200A",
",  c #342C0A",
"<  c #3D2D0C",
"1  c #3E3102",
"2  c #37330D",
"3  c #3C330D",
"4  c #3C390C",
"5  c #302412",
"6  c #372F1A",
"7  c #3C3616",
"8  c #3D3913",
"9  c #3F3019",
"0  c #3E3B1C",
"q  c #422700",
"w  c #412D01",
"e  c #433302",
"r  c #493603",
"t  c #453801",
"y  c #4C3A04",
"u  c #443509",
"i  c #48350B",
"p  c #44390C",
"a  c #4C3C0B",
"s  c #523C02",
"d  c #523C0A",
"f  c #453613",
"g  c #4E3717",
"h  c #433C13",
"j  c #4C3D12",
"k  c #45341A",
"l  c #413819",
"z  c #4A3C1A",
"x  c #503E12",
"c  c #593E11",
"v  c #4A3D24",
"b  c #4E420B",
"n  c #554203",
"m  c #5A4405",
"M  c #5C4906",
"N  c #53430B",
"B  c #5A450B",
"V  c #52480C",
"C  c #5E4A0B",
"Z  c #444317",
"A  c #4D4114",
"S  c #45421C",
"D  c #4C441C",
"F  c #4A4919",
"G  c #554413",
"H  c #594414",
"J  c #564912",
"K  c #5B4B14",
"L  c #54441A",
"P  c #54491D",
"I  c #5C4C1B",
"U  c #5C5014",
"Y  c #5C531C",
"T  c #614E0C",
"R  c #65530E",
"E  c #624D12",
"W  c #634D1A",
"Q  c #684E1F",
"!  c #665211",
"~  c #695514",
"^  c #6C5916",
"/  c #63531C",
"(  c #6A561B",
")  c #6D5A1B",
"_  c #725E1C",
"`  c #785F1D",
"'  c #75631E",
"]  c #464322",
"[  c #4C4422",
"{  c #4C4920",
"}  c #4F4629",
"|  c #524425",
" . c #544B23",
".. c #5B4C23",
"X. c #544629",
"o. c #534D2C",
"O. c #5D4F2D",
"+. c #545024",
"@. c #5C5124",
"#. c #5E5826",
"$. c #5C552B",
"%. c #544E33",
"&. c #5D5333",
"*. c #5E5C33",
"=. c #644F20",
"-. c #645323",
";. c #6A5621",
":. c #625B24",
">. c #6D5A22",
",. c #63552A",
"<. c #6A5629",
"1. c #645B2E",
"2. c #6B5B2B",
"3. c #735E23",
"4. c #725E2B",
"5. c #625433",
"6. c #655C33",
"7. c #6B5E31",
"8. c #605039",
"9. c #615839",
"0. c #715E32",
"q. c #68612D",
"w. c #766223",
"e. c #796523",
"r. c #7C6A25",
"t. c #75622A",
"y. c #7A652B",
"u. c #72682D",
"i. c #7E6B2A",
"p. c #666030",
"a. c #6C6433",
"s. c #6E653A",
"d. c #6E6B38",
"f. c #736334",
"g. c #7A6635",
"h. c #746A35",
"j. c #7B6B33",
"k. c #73643A",
"l. c #79663A",
"z. c #746A3D",
"x. c #7B6A3C",
"c. c #7E713C",
"v. c #766645",
"b. c #766D41",
"n. c #7C6D43",
"m. c #75674A",
"M. c #7C6E4B",
"N. c #7D7145",
"B. c #7D7A47",
"V. c #7E734A",
"C. c #816F23",
"Z. c #80672E",
"A. c #816D2C",
"S. c #85722E",
"D. c #816D33",
"F. c #81693B",
"G. c #867233",
"H. c #8A7533",
"J. c #8C7A35",
"K. c #84733B",
"L. c #8A763A",
"P. c #8C7A3B",
"I. c #907C33",
"U. c #927E3C",
"Y. c #816E43",
"T. c #827244",
"R. c #8B7645",
"E. c #8E7B42",
"W. c #84744B",
"Q. c #85784B",
"!. c #8C7B4E",
"~. c #927C44",
"^. c #857B53",
"/. c #8C7E53",
"(. c #927D50",
"). c #8E8037",
"_. c #95823E",
"`. c #958144",
"'. c #9A8444",
"]. c #9C8945",
"[. c #96824C",
"{. c #9A8649",
"}. c #9E8A4C",
"|. c #8E8155",
" X c #8B8359",
".X c #948154",
"XX c #9B8451",
"oX c #9C8953",
"OX c #95845C",
"+X c #92895D",
"@X c #9E8F5B",
"#X c #A28D4E",
"$X c #A5924D",
"%X c #A38E53",
"&X c #A79352",
"*X c #AA9754",
"=X c #AD9A56",
"-X c #AB9659",
";X c #AE9A5B",
":X c #B09D59",
">X c #B6A35B",
",X c #968A60",
"<X c #9B8C63",
"1X c #A08E66",
"2X c #A49664",
"3X c #A59668",
"4X c #A8976B",
"5X c #AC9E6F",
"6X c #B19D60",
"7X c #AC9E71",
"8X c #AFA26B",
"9X c #B6A262",
"0X c #B9A664",
"qX c #BCAE63",
"wX c #B2A26F",
"eX c #BBA66B",
"rX c #BFAB6C",
"tX c #B2A271",
"yX c #B4A27C",
"uX c #BCAB7E",
"iX c #C2AE6A",
"pX c #C3B06C",
"aX c #C8B66E",
"sX c #C1AD70",
"dX c #CCBB75",
"fX c #D1BE79",
"gX c #BEB081",
"hX c #C3B586",
"jX c #C9B381",
"kX c #C6B985",
"lX c #CFBE86",
"zX c #C5B38B",
"xX c #C8B58A",
"cX c #CABC8B",
"vX c #DBC68D",
"bX c #CFC192",
"nX c #DBC691",
"mX c #FDEAA6",
"MX c #FBE9A9",
"NX c #F5E7BA",
/* pixels */
"8 S o.% @ 7 2 @ S a.U : h D : J 1 5.: a p y y G b a N H a I ..a H N t a N G t y a a I : 5.e P 1 A f : b U a.Z @ 2 7 o = * o.Z 8 ",
"8 S } ] % o.7 & 6.:.U - 2 f u a u ..b a I I d G N J W K N -.-.G H W N B N G a I I y L a  .t a u f 3 - J U #.p.* 7 %.% 0 ] } ] 8 ",
"8 S S o.% &., & N.#.b : : # ..Y u P G P g./ J U W J / I G ;.;.V I / V I I U J / l.I -.x  .p I I & : : J b #.N.& , &.% 8 o.] S 8 ",
"{ Z +.F 2 S , & s.F & ..u u ,.,.u u 2.;.-.L G I I J J / a Y W a / J / H I I G G -.-.G 2.p u ,.,.3 u @.A & P s.& , S 2 % F +.S F ",
"{ 8 $.*.F +.D D T.a.# I p : G u L P 4.K N 2.J J I V u.U e K K 1 K j./ J I V J 4.a K K 4.P L i j : a I I # a.V.D [ +.F +.*.#.8 F ",
"S * 6.d.p. . .h z.a.1 L u a @.-.,.=.4.W y oXa e e J >.b N L H V b >.:.K e 1 b oXy / D.4.=.,.-.=.a u L L : a.z.h  . .6.4 d.*.* { ",
"*.Z +.B.+.$.: ..2.a.-.L e w 0.a I x t.C e oX: N e Y / b K f.f.K a ( :.Y 1 N : oXe V W 4.x I a 0.: u H H -.a.7..., ,. .b B.+.Z *.",
"D  .8 a.Q.1.D k.a.G I r 2.w <.I e a V / ( / J @.t J / N e y.u.e N / >.J t @.G ;.) / m B a r I 2.e ;.i 2.I N 7.k.A 1.Q.+.a.h { D ",
"z &.$.Y #.& ..z.-.P - i -.w H w L d B ( K.N K : a K.q./ b c.K.b / w.I c.a : K N K.( w.V d L w H w =.y W - K -.z...& #.a.Y $.$.S ",
"& h 6.q.@ u A |.L 2.r y g.d G ; / t w.r.P.`./ / p / B y.;./ -.>.u.N j./ y W / E.E.r.n w.r / ; N d l.y a y 2.L |.D u & +.p.6.h & ",
"- 3 $.p.@.+X@.: A A - N 4.c -.>.h.Y n H.#X}.j.>.s 4.3.>.j.:./ j.) w.n 4.d >.Z.#X$XH.~ M Y h.<.=.d 4.N f.& A A : @.+X@.p.p.,.u > ",
"# # A z.A 1.L 1 a 1 T.N 4./ H y.u.V T A.-X{.) L./ / r.G./ e e / L.r.D.! ( L.;.'.-Xi.r.C V g.y.E / 4.N ;.T.1 a : L 1.A h.z.z # + ",
"+ u 5.u /.N.j u ..u Y : U.E E >.D.N A.S.sX-X~.;.3.>.L.L.b e 1 b L.L.E >.4._ E.-XrXi.S.S.n j.3.T E ~.; I / u I u A N.|.f.p ,.< + ",
"< # z W.T.x.7...u w K.N D.B d ` M T _.*XU.:X~.3.E B %Xs ( e e ( s #XH.c E >.E.6X_.=Xr._.R M ` s T Z.N g.N.w u ..2.z.V.e Q.z # < ",
"| < ..7.!./.w 0.; a F.E.r ` T U.s R ^ y.3.-XL.4.W R.U.E N K I B K `.e.~.W 4.L.-Xw.r.M ^ R y '.T ` s E.e K.a : k.: |.!.< 7...< | ",
"k v...1.7.n.,.x.; w ; fXc T Z.` m I.e.^ Z.#X6XZ.E #X:XD./ Y / K D.-X3.#XT Z.6X#Xj.) ' e.J.m ' ' B m bXt - w ; x.-.x.7.P 1...v.g ",
"# 5.V.n.T.l.<.R.Q c # %X: L T U.s I.C.'.A.:X6XE y.( H._ 4.( ( t.) H.Z.( y.E ;X;XC.#Xs A.H.s U.E H : %XP # c Q ~.<.l.T.,.T.V.5.# ",
"k X.M...x.T.l.XXd =.H 2XX -.E _.s S.I.T e.;X'.4.E e.H.3.3.3.>.3.t.H.` y.T t.[.-Xe.T R U.S.s _.E -.X 3XU H =.d (.F.Y.x.k...M.X.k ",
"v v v OXu Y.(.(.F.q y tX+ <.( _ T #Xs Z.^ `.-XB B c _ e.y.K T y.e.` y m B C -X`.^ A.J.s #Xm _ ( <.+ 7Xb r q F.(.(.Y.w 1.,Xv v v ",
"%.. X.b.z.=.n.(.=.L N cXX x.H 3.s d L.#XA.n eXE T e.J.~ E L.L.E ! H.iXr.T E 0Xn Z.#X_ P.d s 3.E l.X bX:.G H =.!.x.=.v.n.b.} . %.",
"v , [ ^./.T.k...0.c T.2XO L ;.~.s c K.iX`.n ~.T m ' ~ s B D.D.B n ~ C.3.m T `.n `.sX`.K.c s ~.;.G O 2Xb c.L l...k.V. Xs.^.[ , v ",
"m.z > +X^.M.(.x !.<.wXhXO 2.H eXs Q oX}.m G.3.' r.U.' e.3.E E 3.3.e.^ U.e.' ' G.n }.eX#XQ s eXH <.O hXN wX;.!.x .XT.^.m.,X- z m.",
"&.# &.^.<X,.^.1Xi 7.%X3X: x t.(.w W vXeX;Xi.~ e.J.e._ T 4.n B 3.T _ _ e.I.e.~ Z.-XeXD.vXW ; [.t.j : 4XK @X0.u 1X^.,.<X^.^.5.# &.",
"v O f /./.v.W.W.j f Q.3X+ L W R.w jX&X0X].A.^ ' s Z.S.T Z.E E Z.T S.I.A.y ' ^ r.#X9XiX%XjXe R.W L + 4Xf.Q.u j W.W.k.^.V./.f O v ",
"8.O O././.5.OXyXW.; <XgX# I d W q nXy.#Xr.S.M *XT J.' ^ A.s s Z.~ 3.J.I.T &XT S.r.$X$Xi.nX: W d I + uXf.<X: M.yX/.6./.M. XO.O &.",
"5 $ 9.$.,.n.OXzXOXu 7XtX; x.c 4.d L.( C._ pXr.S.>X=X^ T m m B m T ^ ^ :X>XS.e.pX' r.$X^ L.d 4.B x.; tXx.5Xu OXzX(.Y.,.,X$.9.$ 5 ",
"X $ } b.Q.f.W.4X-.j cXwXN / Q [.r y.J.$X$Xe.S._.' $XJ.C.S.w.e.S.C.H.J.$X' _.S.' $X$X' J.y.r [.Q / N tX: cXj ,.4XW.k.W.|.b.X.+ X ",
"> k  .b.Q.i xXx.T.u 8X2Xe j.t.( ; oX'.&X=Xe.U.e.H.pXr.H.e ^ ^ e H.C.R iXH.r.).r.=X&X_.'.oX; / y.j.e 2Xb 8Xu T.x.xXg Q.V.b.X.k > ",
"g g L z.z.P 4XuXW.A kXg.K.( y.W r D.S.:X=Xe.T r.' dXr.).M M T M ).r.qXdX' r.R e.=X:X^ S.D.r W y.( K.g.2.kXj Q.uX4XL z.6.z.P z g ",
"i j < <X-...<XQ.Q.A ; C C D.<.4.r %XmXMXL.( L.r._ ' >XaXR b t R aX>XC.' ^ r.L.( L.MXm mX%Xr 4.>.D.C E w : b Q.Q.<X..,.s.<X1 g a ",
"i g u <X@...1XQ.Q.b : E C j.4.4.r %XmXMXJ.( L.r._ ' >XaXR b t R aX>Xr.' ^ r.J.( P.mXm mX%Xr 4.<.D.C C w : b W.Q.1X..-.0.<Xu i i ",
"g c L z.z.L 4XuXT.A kXh.K.;.y.E r D.S.:X=Xe.R e.' dXr.).M M T M ).r.qXdXe.e.R e.=X=X^ H.Z.r E j.( K.g.2.kXA W.uX4XL z.5.b.P c g ",
"> k o.z.W.f zXY.T.u wX2Xe j.t./ : oX'.&X=Xe.U.r.S.iXC.S.r ^ ~ r ).r.R qXS.C.).' =X$X_.'.}.; ( t.j.e 2XN 8Xu T.x.zXp Q.N.z. .k > ",
"X $ | z.W.v.W.7X@.j cXwXN / Q [.r t.J.$X$Xe.S._.' &XJ.C.A.3.Z.A.r.).).$X' _.I.' $X$X' U.y.r [.Q / N wX: cXj ,.4XW.k.W. Xb.| $ X ",
"  5 X.s.(.5.(.1XOXu gX!.- XXs W r #X_.0X].e.C.J.H.fXC._ ! ~ ~ E ^ r.).fXS.J.r.r.'.0XC._.{.r E y XX- !.# gXu OX<XOX,.(.,Xs.} 5   ",
"5 $ 8.,.,.v./.zX+Xu 5XtX- x.H 4.d L.~ r.' pXr.S.>X:XR T m c m T T R ^ =X>XS.r.pX_ i.&X^ R.d 4.H x.; tXx.5X3 OXzXOXn.,.<X$.9.$ 5 ",
"8.O O. X/.6./.gXT.: <XgX# I d W q nXy.$Xr.C.T *XM I.' ^ D.s s Z.^ ' H.J.T *XT C.r.#X$Xe.nXq Q d I # sXk.<X: W.yXOX5./.b. XO.O &.",
"v O f  X/.0./.W.z u Q.3X+ H Q T.w jX&X>X#XZ.^ ' y A.S.T Z.E E Z.T S.H.A.y ' ) C.#X9XiX&XjXr P.Q L + 3Xf.Q.f g W.W.v./.V. Xf O v ",
"&.# &.^.<X5.W.1Xu 7.@X3X; x 4.[.q W vXeX-Xi.~ e.I.e.` T w.n m 3.T ` _ e.J.e.~ Z.;XeXD.vXW q (.4.d : 4XI @X0.u 1X^.,.<X^.^.,.# &.",
"m.z - +X^.W.(.x !.<.8XhX+ 7.H eXs Q oX#XN G.` 3.e.U.e.3.>.E K >.3.e.^ U.r.' ' G.d {.eXoXQ s 5XE <.O hXb 8X-.!.x .Xn.^.m.+X> z m.",
"v , | ^.|.V.k.I 0.c T.4X+ g ( ~.r H G.iX~.n `.T m 3.~ m B G.G.B n ! Z.' m T ~.n `.iX`.L.B s ~.=.G + 2XN T.c l.=.z.M. Xs.^.[ , v ",
"%.. o.b.z.=.x./.,.c V cXX x.K 3.s c P.#XZ.n 0X! T e.J.E E P.L.E ! J.iXe.T E 0Xn Z.#X3.P.c s 3.E x.X bX:.N H =.(.x.=.b.n.v.o.. %.",
"6 . 0 b.0.x Y.0.4.d b NXX OXr s s 3.~.#XA.H.0X~ m M '.e.E E T W e.`.^ m d ~ 0XS.A.#Xy.`.Z.r s r .XX NXu.N d 4.0.Y.j 7.,.b.l o 6 ",
"v v v OXu Y.(.(.Y.q t 7X# <.( _ m #Xs S._ ~.-XB B B ` 3.j.H E y.3.` s B T B -X~.^ A.J.s U.T _ ( <.+ 7Xa r q F.(.(.Y.u <.OXv v v ",
"k X.M...v.T.g.XXd =.H 3XX =.T U.s H.U.M e.;X~.y.E 4.J.3.3.>.) >.e.H.e.4.T y.[.:Xr.M R U.S.s U.! -.X 3XU J =.d (.g.T.x.z...M.X.k ",
"+ 8.V.T.Y.g.<.R.Q c # %Xw H E U.s H.A.].A.:X6XE 4._ H._ w.( ( w._ H.Z.( y.E ;X;XG.'.n S.H.s U.T H : <XJ # c Q R.<.l.Y.,.N.V.5.+ ",
"f v...5.7.Y.,.x.; w ; xXB T ` ` m I.r.^ D.#X6XD.K {.-XG.U -.U / D.=X_ {.E D.6X{.A.^ _ e.I.n ' ` C B lXt - w ; x.-.Y.7.P 7...v.f ",
"| < ..7.!./.w 0.: d x.~.s _ T '.s R ^ y.w.&XL.4./ E.`.B G K I N H ~.Z.~.W 4.L.-Xr.y.M ^ R s #Xm 3.s E.e x.a w f.: /.!.< 7...< | ",
"< - z Q.N.x.q.Y u w c.N D.B B 3.M T _.*X_.;X~.>.K c #Xs / t t ( s %XH.c K >.E.6X_.=Xr._.T C w.m M D.d j.c.1 u ..7.x.V.u Q.z - : ",
"+ < ,.u |.N.A u I u Y : E.E T 3.c.n i.S.rX;XP.>.w.3.J.L.N 1 e b L.H.! 3.4.) E.;XrXi.S.i.m j.3.C W E.: K -.e I u A n./.a.t &.< + ",
"# + z z.A p.L : j < K.N 4.W B g.u.V C i.-X{.>.K./ Q w.L.( 1 1 / L.e.A.Q ( L.) {.-Xi.r.T V h.y.H / 4.N ;.T.e A : L p.A z.z.D + # ",
"f : < d.1 V.@.p w a K e g.B W oXc.U ! R {.#XL.( B >.! >.B q.>.J _ ! A.>.B / L.%X}.R H.! J c.oXW B y.e x.K p 1 p @.T.1 d.a.< < f ",
"> u ,.a.@. X@.: A A ; x 4.c ;.2.h.Y m G.oX}.D.) s 3.e.) j.:.;.j.;.w.m 4.d >.D.}.#XH.~ M Y h.2.;.N 4.d f.- j A : Y +X@.p.p.O.< - ",
"# h 6.q.& u L /.L 2.r y g.r N ; / r w.u.P.`./ / y -.N t.>./ / ;.y.N j.W y Y / `.P.u.n _ e -.- G d g.d d e 2.L |.A 3 & @.p.a.h & ",
"z *.$.Y #.&  .b.@.K ; r =.w L w L d V ) K.N J : a K.q./ b K.K.N Y t.K T.a 1 K V K.) w.V a c w H w -.y =.; K -.z...& $.d.Y $.&.z ",
"D { 4 p.V.1.A k.f.A I r <.e 2.H e y C / >.( J -.e L ( N e f.f.e N / >.V t @.G / ( ~ V C a y H 2.w ;.i 2.I A a.k.A 1.B.P a.4  .D ",
"*.Z +.B. .1.: ..1.f.;.G u : 0.a I x 4.C e oX: N 1 Y ( b J y.u.K a / >.@.1 V 1 oXe B W w.j I a 0.w u L H -.f.1.@.: &. .p B.+.Z 6.",
"[ * p.d.6. . .h z.a.1 L e a -.-.2...4.K y oXa 1 t J >.N J G G N a w./ I t 1 b oXy I D.4.W ,.-.-.a r L G 1 a.z.p  . .1.Z d.p.* ] ",
"{ 8 $.*.D +.D D V.a.# ..p 1 j p L P 4.I a 4.L J K J u.U 1 K I 1 U u./ J I J L 2.d E K 4...L u A : a ..P # a.V.D D o.D  .*.$.8 F ",
"*.+.Z a.8 8 2 3 z.+.: i ..< <...- : -.y G I J N Y I y I -.>.>./ I y C J K b K K L y L -.: - ..,.< ..p A - @.z.3 2 h 4 4 d.Z +.*.",
"F Z +.F 2 h , % s.F & ..u u ,.,.u i 2.-.-.G L U J P K Y a / U a / J ( J I K P J ;.-.G 2.i u ,.<.e u ..j & F s.& = S 2 % F +.Z ] ",
"7 S ] o.% &.2 & N.#.b : : & ..I a  .j I l./ J I K K / K G -.>.G K ;.N K K Y L I l.I -.j P p Y  .& : : K b #.N.* 2 &.@ 7 o.S S 8 ",
"8 S ] ] % %.8 & 1.#.U - < h u a t  .j a W K a G N B W K G -.-.L K I N J N G N K I a L b  .u a u f < & J U :.*.& 8 %.% 0 ] { S 8 ",
"8 S o.% @ 7 2 % Z a.U : f D : P 1 5.: a t a y J b d N L d I I a H d e a N J e y y a I : 5.1 J : D h 1 b Y q.Z % 2 7 % = % o.S 8 "
};
