/* XPM */
static char *_____________[] = {
/* columns rows colors chars-per-pixel */
"64 64 74 1",
"  c #150B03",
". c #1C0E03",
"X c #1C1106",
"o c #1E140A",
"O c #231406",
"+ c #281707",
"@ c #22160B",
"# c #25190D",
"$ c #2A1C0D",
"% c #301F0C",
"& c #251C12",
"* c #2A1E12",
"= c #301F12",
"- c #2D200F",
"; c #33230D",
": c #2D2114",
"> c #2D2319",
", c #322415",
"< c #382714",
"1 c #362815",
"2 c #3B2A16",
"3 c #33261A",
"4 c #38271A",
"5 c #36291B",
"6 c #3B2C1C",
"7 c #3D301D",
"8 c #352B21",
"9 c #3B2E21",
"0 c #3E3123",
"q c #3D3028",
"w c #402F1D",
"e c #43321D",
"r c #49371F",
"t c #402F22",
"y c #433424",
"u c #483724",
"i c #463925",
"p c #4B3A24",
"a c #443629",
"s c #48352A",
"d c #46392A",
"f c #4B3C2C",
"g c #513B26",
"h c #513F2C",
"j c #4C3E31",
"k c #503E33",
"l c #4E412D",
"z c #53422D",
"x c #4E4132",
"c c #534433",
"v c #594633",
"b c #574937",
"n c #5B4A34",
"m c #534539",
"M c #564939",
"N c #5C4C3A",
"B c #5F5033",
"V c #5B503C",
"C c #604836",
"Z c #604E3A",
"A c #635437",
"S c #63523D",
"D c #69573F",
"F c #5D4E41",
"G c #5D5040",
"H c #645342",
"J c #695742",
"K c #6B5A45",
"L c #6C5C4B",
"P c #765F4D",
"I c #71624F",
"U c #7B6A55",
"Y c #7F6E5A",
"T c #836C58",
/* pixels */
">.o&#X>59>&8:b-1i05X>-#X0q5:*3o:dO3u,3xdmi>3$3#93>$0*2*39*#ooo&o",
"ooo&&&&o38>x3>0d:3:75#:o3383q8313$dy+u92x61>O3O,>O35:6&8>:o>&ooo",
"ooo>&o>*>5>q--70G3o5:::&03#53*x3$1x1<y#x07O:.6693*>iauo55#5&&&&o",
"oo&o>X>&53>xa5d1xx,5d##9:0o&$a>1+o116y#d-663,63ya163d63*q#9:&&o&",
"&o&ooX>:o5-iX-79O63x*=3*00oo>953-73-#7q73536iy&y2fi3,O365#::o&&o",
"&oo&>o>:85:o-o05$dyxa9#t>3X&9#j6d:3V:-:+M6X$l1>-30:$o+396>::>&&&",
"&ooo8oo&#>3-$>:>9f9m9=6y:5o9yayaV0-i$-3id3,1fi6:f:77:3a6d,3o&&>&",
">o&&&o8>X35d337:6fuy98>,15o:a*mcli317i50fcu2n:7,i::1>,9yd>o>&o&o",
"8&o&> >83#>m>00:*bdd#$j>d9@8t,@s3M6c2z1lbNu2z,107y+>66#y@3>55o&&",
"&&o>> :8@#3G-7d37dlx85c9ms83*#1&:V6l2S1ciLwuu32-3x:y*,y3,9o8o#>:",
">& >: >q:#0a:0i51l7x3,c9O,3O6y31OczueZkuHNl2fyv+0l3,69a0,6,a>,::",
"oXo>&o5q&:d#>575:d$0y359#8333jjb%$p2eNN6uf-ynk,,3,1t=+y:666+38o9",
"&o&>oo89-59>7q706c1:,&j393O3&3af$OwCrg4f$1;,fiy4fO36426y,7y>*$:>",
"&&o >o:8&55x::aaoM07f,j,34s=,3js6;fzrSfc:vfpN6*y-$il:+69736,3363",
"&ooX>o>->0Xl607a,c33aam=86x*fjm,+ubzevebVKy1ux$1d76:y,f600y9*3a:",
">&&&> >o#8551::7,fy,jO4,*99,ft6#ctygN2NbHLc2c2y+75l:677y3-fy3389",
"&&&X&X&o&9*,5#:,+;mOl+1:i:O-f0O,f2rze2lvuDh=;w6y37:04yyfdO&996*=",
"&o&&>&&>*a93f#f$+;iOl1,*1:0-N7z,fure2z;2NuN,gw+6>i0l6yffd649943*",
">&&:> 8>,933a*m,:z>Xvy#*33:yquI$<fez-KDHkKZ=p2y2y7@7s,y6M6*k9*4y",
">&>&>o-&333jjaH3mp$$v1##ii6#yfI+<jlzVAzAzKf,N6$$6r,iN<fZ6yF3,#*,",
"8o &>&>-,83jajN61vy=eM5&fy+O*vf6jceu6plzcp2$zw4+pN%N+,9ftt4*t=d&",
">&&o>&8o359jj@H*6<8=pM336jy:t6$f<fnZ2DS2uzw$p1,yv2ez,+vNgsk3yj3#",
"8o>&&o>8aq#3>@949y=Op41O9aa1,6+v2KyCpIugSAJ+uu=4gfw$<6fvF2fytw4=",
"&o&&>>dqy$*j*6*3mv=6,w4*j*y6w,$h=HenfvgnvBU+zw6wc;f226h2f#cfsvt#",
"oo&o&8&>x55m#ay*9c,f46=ys=99y1yg2ghvwgZz2Bz22u4whzi12twZf$yuf6w=",
"&X&o&q>88>5l3Of>fd*c+$=t96a649$w6HwpwTngNBp2ev#pcuH6ew6Zc2c46y6#",
"&&oo>88qqo50:f9yj=,Lt4$6*a9:262fupgC;CvvUBv2pz#fS<li<6,Jb1,fsys,",
"8&&o>888q955:3xc93uh9ykbt,ayy6;z=hkS+ZvvKBp22D>uh<6ipNyCc,bfw4yd",
"&&o&>o>>l33M@@a8=m9da3s+369s,6XuevwD;BDrUTpfpN,ny=;epp4kg2hyst6,",
"o&>&>&8>855:-Xf*,q6=atk.c3,yu22l2S%eeBZgKr;i2v1fh%$we+fvktK6utk1",
">&o&>>8&q85a:6,5Oy3$c,4.53*a92v0u<nAgepZDzeewz:cu;%zp=tvuuc6u66,",
">o>>>o>>5-q03Oaf,66tF,Z+39@46fnub,eDrrDnZSewuzOvyie2Z$ZvZwu,h$y=",
">o8>*o3*3&at4Oyj,6wwF4N+49@37fNin,eKrrDvNDe2rzOnyue2D+NvFwp=h$y=",
"&&o&>*8&a36a*838Ot4$v=4.61*a62zyi1vAprpAKzeeez;zy,$cp%yvesv4y6t,",
"o&*&>&88854&=.d*,y8=atf.k519p22g2S-eeZCzLu;p2v3fl--2e+fchyKwuwk,",
">&o&>&*8d34b@Od6*m9aa4s+339a,6.u7v2D;NJrUYpppB:Ne;;epu4vg4hysww,",
"8&&o>898q958*8cx93ah9ykNy3dtyw%c;hzAOZvnDAu22D=sz<2dpbyvc,bkt6ys",
"&&oo&888a@89*s9uj=,L94$6*a9*466fuugC;CvvUBv2rk#fS<hf26,Kv1,fuys,",
"&o&o&q839*4j,Of,js*c+$=w99a616$w6SwreTCrCBp<en$pvuH2y62Zh5j6wy6#",
"oo&o&8&8d68c#aa=tc,f46,ya,96y<uf2fzv2gAvwnz<wu3whku12e0Np:ypf4t*",
"& &&>>qqq-$f>6*3mb=9,64*j*q67,$z,HenpngnnnU+zw6wh;f2wwf6f+cuuct&",
"8o>&&o>qaq#3:@889e=Op6<+0iy3<6+v<KyCpIezZAD$uu*6hfe$<6fvS3fst64,",
">o&o>&8&359fj#H*8<2$pb,36li-99$f<fCC7DD2pz2$p<,yv6ez,+cCfsk4yk,#",
"8& &>&>&>93jujM61vy>tN8#d0$O$bp6hcuu1rlzzg6$v6<+pC$n+,9pwy8*9*s*",
">&>&>o&&35>jx0H1br$$v3@#di6$thI+3kgzVSzBcKf,C6*$6u,uN3fZ4yF,,@*,",
">&&>> 9>>953a:M:-z>Xvt#=3,:0ysI$,fez$KDDzKF%p<y2yw@ws,y6N8=c9,3y",
"&o>&:&&>*a0,d#f$+;aOf24*1,y=F6h%pywu2z;2NiN=ze+61yyf6yffs849943*",
"&&oX&o&o$9*>6#:,+;b@h+3*y:O#jtO,fwggi2lvuDf,;62y37:069uffO#996*,",
">&&&> >o&8>53->71l03lO5>$9q,d99*xyigN2NmHKc6v6t$75x:6wty3$fy5350",
"o&XX>o>-:qXl5000:c31ayc,65c*fjm,+uvzevtcGKy1yh$,f73:y,f2yy09*3q:",
"&&oX>o-9-35x>-alXb77l:x334y>14js6,pzrSfc,vpuN6*y--ix=#66616,3395",
"&o&>oo80&8037q777m3:>$j>63@,#3af%.eCug2c$1,<fuy2iO36362y>6i>**&:",
"XoX>>o>q&>d-:566,d$y9649@6333jkb=+pwynN6uf-ebl,,3,10-$y>063#35#9",
"&& >& >q-&0q-q063l6x3,m9O33O8y3<OchueBhaHMl6leb+0l1:26u0:7,a,,*>",
"&&o&> >8oo1G-0x>9dfj66j9md83*&3#,V6g2S1cyLeep37$5x:0>>03:0o5@#>*",
"8&o>> >8>-:M>0q-$Mfs#&j=d9#3t=#s3M6v2l3lbNuez:1070-:29$y@,38>o&*",
"&o&&&o>>X55d5>7-5l0095,3,3@*a:Mxly127077dby2n:7,i::1,30qd,O>&o&o",
">oooqoo-#>1-->:>7f0M9:8y>8o9ya0aNy-a--5id6,<fd6:d-07:3a2f:8o&&>&",
"&oo&>o>-55>##@06-i0xa6#t,,.#0#f6d>3M:--@N5X$f1>-3e$:OO3q6,,*>&&&",
"&o&oo >>o5-qX#70@16x*>6*q9oO>061:73--70033,6iy$y6dd3,O,95#**o&&o",
"oo&o>o>-8>>mi6i5ml>5d#&0>qO#&a>3+X3,50-i-653>93ia163f63&q&8&&&o&",
"ooo>oo>&>8>d:-77V>o6>#:#q3#33:x3-3c137@xy0O>.5963:,aiyX56#5&&&&o",
"ooo&:&-o>8&q1300:3-76#>O3>93085,,$fe$y06x63,X1o,:+,8:6&6>>@>>ooo",
"> o&&X>59>-0-M-5i03o3##o0q5:$3o:d@1y,3xica,2#3#95,#0,5&>9$&ooooo"
};
