/* XPM */
static char *_____________[] = {
/* columns rows colors chars-per-pixel */
"64 64 46 1",
"  c #A28246",
". c #A6854B",
"X c #A78A4E",
"o c #AA8A4F",
"O c #AD8C52",
"+ c #AF8E58",
"@ c #B18E54",
"# c #B08F59",
"$ c #AF9056",
"% c #AE905A",
"& c #B29256",
"* c #B5955A",
"= c #B9965C",
"- c #B6985E",
"; c #BA9A5E",
": c #BA9761",
"> c #B69863",
", c #BD9D62",
"< c #BD9E68",
"1 c #BFA065",
"2 c #BEA169",
"3 c #C19E64",
"4 c #C19F68",
"5 c #C2A266",
"6 c #C4A46A",
"7 c #C9A66C",
"8 c #C7A96E",
"9 c #CAAA6E",
"0 c #D2AF6F",
"q c #CAA770",
"w c #C7A972",
"e c #CBAD72",
"r c #CCAF79",
"t c #D2AF72",
"y c #CEB176",
"u c #CEB27A",
"i c #D2B174",
"p c #D3B47B",
"a c #DBB77C",
"s c #D5B87E",
"d c #DCB97B",
"f c #D3B781",
"g c #D5BA82",
"h c #DABB81",
"j c #DFC086",
"k c #E0C586",
/* pixels */
"=;;53;553;555555;1;5111;;1;565;;565;5;;;,1,5;,;555555;5555;15;;*",
",**&&&==;=;;;155515*=;11,5,;;&51&;;,5,,;5,*;15551,;;;=;;**&****1",
"*;,,;;=&&==;;5551,,*=;1-;;1;;&,,&;;;,;;;2*=-;,55551;;=&&&&;;5;;&",
"=;1;;;;;;&;;;;551,-*;&-*-,;;,,,,,1;;,-*->*-*;;115;=;;&;;;;;;;3;;",
"&;;;===;556900e0ppdpyeuwywuruuffuuruwyeupeephppyy9e96,5;3;==;;;&",
"&;===;3;566950518866268suywwufwwff2ryuur826669656959675;;;;====&",
"&&==&;=35,5;1168*16i;16y6222fgffgf2226y61,;i51=675;;555;3==&===&",
"&3&&==&@=,&911506*5ey5;8sy222ryur222ys61,6ie5*697559&,=;@&==@&3@",
"==@@@o,O;;===6,8i516y51yupy%,wyy6,$uupy8159611i8,6==-=,&o5@@@&==",
"=&3@&3#.;;-=1,9q,5e*pi5ue,1eppppppe2>ru;5pp;95,9q,5*=,=,o@3&@;&=",
"@@@&o@+OoO.O.&$=$O;&&**;,2,&&,,,,&*-,,,,**&&;$+*&#.O.OO.o@@o&&@@",
"73:,,,56;;5,61,61116566yywq626q96666eee2571715,5,56,<,;575;;3;37",
"t6,=&+&-,,,6<55,*OXO@##,,-&&$122<+***:,*&$+oX@=,553631;&&$&$=370",
"5-O.O ..,tyry,,-,,,iafre8que262266wrwweqyssy1;,-<,ryrr,+XX.O.o*5",
"q55wew8q6,5qq,,,6wqe8rwqwwwwew68werwrqw9eeweq85<,,795265968e9250",
"6,&,6586q6,,1q656q2q855q6w<w2222<<6<q6wq65qe5w65595,,6q566551&;7",
"6666655,998112ey95,52,,651w22222221w,661,,15158yw6,,889w15666666",
"686555w621828ypur5;5,,,,1-112651811,>,,;,,11-79uprq6855668155696",
"iyee9e66psyespshpppyiyrq88;;2156151-868pripyspsgpppeyspe65y99yyi",
"6e9ipie69e89y868ee9qq8eee99ey0eeeye68yy5e8e898e8wwyq8e956eypi696",
"91;*&*=$;;,2y999eeuppspyy8y25;,,-5609yyupsypuye999y5;;;****$*;19",
"0789=O&;190e8898yuuyyuuyypy55$;-O52yuuueuuyyyyy8886yy91;,&O*776e",
";599yp99911189y9yeyqe55816855116116865655699yy0eyw81159070p0ee51",
"*$o  X&&***$O&=;&o*$&&&-1;&&***=-*&&;,;$$&&$*O&;**O$***&&$X  o&&",
"OOO@&=**;51*;*51;&*&*=;$*&;1;;;;;,1;=*&1;**&*&;11*;;11-1*==&&X@X",
"$$$$Oo&$;;1;;=&***X=;5;;;1;;,,53;,;-,-;*;1;*o*&&*;;;,,;=$&XX&&$&",
"$@O&$O+,*;1***$=1=;;;,;,;&-15;,,;11;*;1&;,;;;=5=&&**;;-=;&@$&X@&",
"=&$=;;5,15,,,**;;;;;6,3,5551,5365,1551115,5;;;;;-=;1,5,,;5;;-&&=",
"=;1168,601,51$,,1;*1;,<<,-,<7,<,,6<,=-25,,,,;,1;;&11,6e56,865;,=",
"*&*>=-:*&-*$O,,555yussgusggffrrrugfgssujgfpry5551;O&&:&,*,--=*&*",
"&X$X. OXX*$&,,,-,;*$$>><%$$#,,>:<:$+$%2>>>++&,,-11;-@#..XO .X$X$",
"**$*OX.XO*-,,,,*1;*$*-**++&,,:==:,,*$O-*=>&$*,1*>;1;>*+#XXXO*$-*",
"&&*&&&&$&=-,,,,*;=;,;=;;&&==3===:,==&&,-;*,,;;;-,,,,-=&o&&&&&&&&",
"=@&;&;;;;==-,,15131=;1153;57=3==;:55,,,,55;;;335,,,-==;=;;;*;&@=",
"@&&;*;=;;;;156;*;;=&;;;;=@=37333553;&===;;*==;;&,551;;;&;==&;&&@",
";&=;;5,1;;,;;-;5;;;;;555333=3=333=33,15555=;;;;3;-;;,;;3535;==&;",
"OO&&$$ *oooo$o$&=;&=*=*o@&===@=@&;;&&+o&*****;*&&o&OXoOO- O$&*OX",
"**,=-,*-o.O&OO.Oo=*=;;=;=&=&@=@==&=&=*;=;;;***o$.OO&oXo+-*---,*=",
"X$O*%$&+&*& &*&,&&*&@o@&&==&===@;=;===$oOo$***&;*=& &*$ $&$$-O&O",
"*$O$X.O&OO;&&*+&&*&*@@oo&;=&@@@@@@&&;&oOOOO*&*&*O*&$;+o&*OXX$O$&",
"--&X&-$$.=&o$,,,1;;*,;;&@@.@.@33@.@ @@@===:=,,>,,,&X+=..O$-&X**-",
"$XO***$$#O.OO&-=;-****&;@@=@@@@@&&@=@@====@=*=;;*&OO.+&-&$***XX$",
"$$&-&**-&-.++*--&*=*&*&&@@====@=====@@@=&=@==&&***&OO=&,-**&*&$$",
"-;;-1;62,,,,,;;,1;,153557773==33==57773:3333,,33->,,-,,<29-;;1--",
"*-1;1,;;,<<:,,3<qq440353334333;33533333377q33q74,,,,2,,:;;;1,,;*",
"1,;11;11,,56w6q57433707744333=33=3=3737770q74444q6655,,,11;11-,1",
";11-;*&*=:,&:,,23:3#*3=3qt0304335030003:=3@@3334>,,*>,;****;;;,,",
"$*;;;-,->,w,w66433373q333=@=037750=@==333q3q433366w,8,,--,-1;;&$",
"$&*OO*-;X&1,2-1-175733====3009770073:;;;=;37551;:,5,1$$$*-*$O*@&",
";560e858691e08e8797007iiii7t60007707tiiit0009799qqww296e9560985,",
";6159e88e1ypi70i00000009003757707357i0900t00000i07ppe2e9e7905,8;",
"5,,16880eyyy600i070000ditttti000ititttida0000900i98iy0yyy86611,1",
"5512122089i0009099ii00iit007ad00di079iiitt0iie9e9999i968e21,1155",
"01-280e1195515ee9ii0565737767755705775795550i0000757595;1e096-10",
"su,0jjee8670e0ipipy0iepiaa9950779600apptpett0upsi9099771e0kke,ys",
"$O&&OO$XXOXX.&@-o$;&&=*1,,;=&;;;;&&=,,,,=&=&;@O*&&.O.oooXX@X&*X$",
"==3@*;&X;;-*5,9915e*pp6uw,,rppfpair,,wu16ip*y519715*;;;;X*,*@5&*",
"@;&@=;&@=1$01,796*5ey5;8py222epye122us8;,5y95*697110&;;;&*;*@&3@",
"@===&;=15,5;,177*15p;,5y622wfgffggw222y621;y61*955;;555;,;;&==&&",
"@====;1;577859758956568suuwwpfwwfp6wuupy955868615050595;-,;;===&",
"=;;;;=;;55679y9yppdseryyy2urypffupeywyyys9yphpu00ee6955;;;;;=;;=",
"==3;;;;=;&;;;,555;-*-$,*-1->,,,,,,>,1-$-;&-*-11511*;;&==;;;;=3;=",
";=&&&*=*;=;;;5;5551;*,51,51;;&,5&,;;112-51*;1555,,;;;=;;;&&&&&=3",
";;=7,;551;555555;;;511,;;1;575;;365;1,;*;5;5;,;557555;5555;55==="
};
