/* XPM */
static char *_____________[] = {
/* columns rows colors chars-per-pixel */
"64 64 117 2",
"   c #6C3B03",
".  c #703F07",
"X  c #703E0C",
"o  c #73410C",
"O  c #7A440C",
"+  c #764411",
"@  c #794712",
"#  c #7C4B15",
"$  c #7E4C19",
"%  c #7F511C",
"&  c #824D17",
"*  c #814D1B",
"=  c #815016",
"-  c #84531C",
";  c #8A541E",
":  c #865521",
">  c #8A5622",
",  c #865824",
"<  c #8C5B23",
"1  c #895629",
"2  c #87582C",
"3  c #8E5C29",
"4  c #915D25",
"5  c #925E2A",
"6  c #985F2A",
"7  c #8C5D31",
"8  c #955F30",
"9  c #8E602B",
"0  c #926027",
"q  c #95632B",
"w  c #9A652D",
"e  c #9B692F",
"r  c #966431",
"t  c #9A6632",
"y  c #976832",
"u  c #9D6B33",
"i  c #9D6738",
"p  c #97683C",
"a  c #9D6C39",
"s  c #9F723B",
"d  c #A06634",
"f  c #A16D35",
"g  c #A16E3A",
"h  c #A86F3B",
"j  c #A37037",
"k  c #A4723B",
"l  c #A9753D",
"z  c #AB783F",
"x  c #B0723F",
"c  c #B17B3F",
"v  c #A57442",
"b  c #AA7642",
"n  c #A57946",
"m  c #AC7B44",
"M  c #A67A49",
"N  c #AD7D4A",
"B  c #B17743",
"V  c #B27D45",
"C  c #B27E4A",
"Z  c #B87F4A",
"A  c #AC7D51",
"S  c #AF8149",
"D  c #B48045",
"F  c #BC8447",
"G  c #B4834C",
"H  c #BB844D",
"J  c #B6884E",
"K  c #BC894E",
"L  c #AE8151",
"P  c #B58552",
"I  c #BA8653",
"U  c #B68954",
"Y  c #BC8B54",
"T  c #B7885C",
"R  c #BC8C5A",
"E  c #BC9157",
"W  c #BE915C",
"Q  c #BF8F61",
"!  c #BF9160",
"~  c #BD9468",
"^  c #C18B4E",
"/  c #C08752",
"(  c #C28D54",
")  c #CA8F57",
"_  c #C18E5A",
"`  c #C39156",
"'  c #CA9355",
"]  c #C3935C",
"[  c #CB955B",
"{  c #CE995C",
"}  c #D19757",
"|  c #D39B5C",
" . c #C39462",
".. c #CA9562",
"X. c #C69A64",
"o. c #CB9B65",
"O. c #C79769",
"+. c #C1986C",
"@. c #CA9C6A",
"#. c #D09762",
"$. c #D39D64",
"%. c #D09E69",
"&. c #CC9E72",
"*. c #CEA16C",
"=. c #D3A165",
"-. c #D2A36C",
";. c #DBA56A",
":. c #DEA86C",
">. c #CEA579",
",. c #D3A472",
"<. c #D3A977",
"1. c #DBAC76",
"2. c #D6AE7C",
"3. c #D8AC7B",
"4. c #D6AD81",
"5. c #E2B782",
"6. c #E8BD86",
/* pixels */
"w u e S j f z c z j V z z D D D j j f c l l j s j l u D D m f f m D D u l j j e j l l z j j j S c D z c m j l b D z j j S e e e ",
"k e 0 0 4 4 0 w e e e j j j k k m b z e 0 j N k j b j u j ; z l < f u j b k k u m s 0 e z z b l k j j j u e e e w q < 0 0 0 e j ",
"0 f j k f f 0 4 0 w w u j l D D l j f q e u v u u s l e u 9 k j 0 e e k a u u u n u w q j j b D N l j a w w 0 0 4 0 f j l j f 0 ",
"e e l e f j f e e 0 j y r s l b n k y y u 9 a 9 u s u u v s s s j n u a s p 9 y p 9 u r u j n b l j w e f 0 e w e e j f e l e e ",
"0 j h d w e e j b b C K _ ] ] ] o.*.1.@.W W @.! ! T ~ ! ~ @.,.*.O.+.W ~ U ! ! X.@.R ! @.1.-.=.] ] _ ] G C l z k h e e w f j f 4 ",
"4 e w w w f j f V D G I C _ C b U J m G S S U *.~ *.T L &.*.T T &.&.L T *.X.*.! U S S G S G U b G R V I G G V u f j f d w w e 4 ",
"4 6 e 6 ; h e x z l m f k z D K q k G o.a j N ] S S L L >.2.>.,.3.<.L L n J ~ S m k s [ G j w J D b k j V l z e h e f ; 6 e 6 4 ",
"; h 4 4 6 e 4 ; e j 4 ( l l K Y G w m E ..m a U -.! S s M ! @.@.W n n S W -.U s f m ] E N w G Y K l l ( 4 k e f ; 0 e 6 4 4 h ; ",
"d 6 > ; > & k & f u t w t G l G *.z j J ] m k ] X.X.X.3 a U O.O.U a 3 X.*.X.W J k m ] G k z o.G l G t t w u f q = l & ; ; > w d ",
"w 4 l - 6 h 3 $ u a u r b k Y _ k D E y o.o.G X.E v v _ *.=.-.,.*.*.W k v R X.k S o.@.w E S k Y Y k b w u f t g & 4 k 6 ; l 6 6 ",
"> ; 4 4 & - : * $ * + * + 4 > r ; - u 4 0 0 r k s k a 5 3 a g g a 4 0 a k s v a r 0 0 < u ; ; q > 3 + * + $ $ $ & > ; & 4 4 - ; ",
"H b g h g g m G u u m k C b v C l z l G l G G R  .W I C m G I I A m C U _ ] R N G G z G z b z G v b C v m a u m C b g g h g b K ",
"..G v t < < < 5 u b v C b b m a q ; @ # ; > 3 a a r 5 3 : v b m b : 5 3 r a a q 3 , ; = @ ; q a m m v C b v a 3 5 3 < < r k G ..",
"m 6 $ + & X @ # g ..]  .] v v t g g v o.,.,..._ R Y @.R N L M M A C Q O.R R _ R ..,.,.O.n j a t b k ]  .] ..g > @ @ o * + $ q m ",
"R m m Y Y I G Y G v b Y I g k v C T T _ I ] R P U _ P Q ! T L P T  .Q L _ I I I R  .I _ Y T C v k k I I b v C m Y P I Y I m m R ",
"G b < g G N I G I G k k b Y G m N I b _ T m N I P T v A v v M M n v A v T C I R C b I R b U C m C Y b k k G I m C I N G g < b P ",
"N C G G G S m v I J I v k N _ ] I N g C b k v A N s R M S M N M M S M E k N G v v k b N g C I ] _ N k v I I Y Y v m S G G G G m ",
"I G G m b b G G N S I S R  .@.X._ C u m b a k g k s k s M G m b G M s k a k a j k a b m u m ] O.@. .T C U m m S G P b b m G G G ",
"[ ] ] W Y ` N S o.-.X.W @.@.,.1.-.%.%.] o...] I G U u s S z G G n m s y Y G I o. ...o.] @.%.-.1.,.o.-.R X.-.=.E S N ] Y ` ] ] o.",
"G E K [ -.o.Y G ( Y U U ] Y U I ] R R Y Y Y R ] E E J E ] E Y ( E ] E P Y R W J R Y Y R Y _ ] J Y U  .Y U ( Y m G Y [ -.[ J Y G ",
"Y z u q ; q 0 0 f j u D ] Y E Y ] W X.o.o.*.*.] ] E E S m y k l e m D E E W ] X.-.*.o.o.o.W W E Y Y ] m s j f w 0 0 q ; q u z Y ",
"Y G G J y - 4 l z Y ` E J J J J ! X.X.X.X.X.*.X.W *.] S S ; u e - S S ] *.] X.E X.X.X.X.X.X.] E J J J W ` Y z j j 0 - q J G G Y ",
"l S K ` ] =.K J I m m v I Y ] W ] ] X.Y E S N G z J J D z m S m z S S J J z G S S G R Y X.] W E ] Y I v b m Y Y J E =.] ` E S l ",
"0 ; # o o # < 0 3 q r < - 0 y u 3 - 0 : 3 0 ; e j u 9 - y q q q q y - 0 u s u ; > < < : 9 - 0 u r 5 - < w q 9 < 0 4 O o o % ; 9 ",
"- - % - 9 0 e q u z z y j 0 z z a < q 0 0 q s < 0 q u z j u u u s u z a 0 q < k u q q 9 q ; e z z 0 j y z z e N q e q 0 - # - % ",
"- 0 < < - = < < u s k e s e 0 0 0 q % q e b s u u k u u j u m m u j u u k u u y s b e q = q 0 q 0 e s e j s u e < < = - 0 0 0 - ",
"0 - - - ; - < u e u j e q 0 0 q z 0 e u u k u l a q u z b a g g j m z y q a k 0 u k e f u q z q 0 0 q e k u w 0 u < - ; - - - 0 ",
"9 0 0 e u s m a k S j j j 0 w a e f e f D l v k l m z l k V V V D j z z m z k z l l D u e j e j e 0 j k j m n k u S u u e < 0 9 ",
"y s k m I G k I E D k m z < s f z j u f a j a v s q a v P h v k h G b g y s l N g v u g e j k f s ; z S l S Y m I j I G S j s q ",
"9 0 3 u r r a 3 3 u 9 < - u l C D m ] X.<.<.2.&.<.2.4.>.>.~ +.+.~ >.>.4.2.<.*.3.4.<.<...] m G C j s % < 3 i 3 u 9 a r r y 9 9 q ",
"9 # : $ + X $ $ + 9 3 r s k k y s a 9 1 1 p 7 M 7 2 3 3 a v r r s p 3 2 2 7 v p 7 p 1 1 q a s y k k s q 3 3 + $ $ $ X + * , # 3 ",
"9 y ; 0 $ $ # # - 9 r a j k a r k s 9 3 3 t i 8 $ 1 4 f l t t d d b f 5 1 * r 7 i t 3 3 7 a k r s k k u r 3 : < $ @ $ - 0 : r q ",
"0 ; 0 ; ; 4 0 ; w w r u a v v y f u u g s y u a < 4 w e h d w w i g i w 3 3 u y u w a k u u a t v v a a y w w & ; q 4 ; 0 q < 0 ",
"e ; 0 e 0 f j f w e y u j j j l l h l w k b z b k f c c d f f e f f c V f g m j z b k w k h l l j j a u w e w e f j f 4 w ; ; e ",
"; 0 0 j 0 f q f e e u n G m s q g u 0 q 4 f u w 0 4 h c F c x x B Z l j 5 0 t t u a 0 q 5 f h q j m G b u w u 4 f 0 e 0 f 0 0 ; ",
"j < q w f D k b u f k u u u u z f t t h w C D b l l h h d d h f h d j j l l m m V C t j t t u l u u u u k f u b z k V h e q < f ",
"- - 9 9 3 : o q ; * # = < % > 0 w u 0 q q q q - > < q w e ; 6 6 4 d e 0 < < ; < 0 w q q q e w 9 < # < % # % - - y o % 9 < 0 - % ",
"9 q s y y s 3 y $ o - < - - @ - - q q w u f w u w 0 q q 6 w 4 4 6 4 w 0 0 q u q e s u q q q - - @ - - 0 = o # ; y 9 s y e s q y ",
"% , % y , , 5 : 3 q <   < 0 0 a < 9 q 3 < - - ; 0 w w w 6 h 6 6 h 0 q w w 0 > ; - = < 0 q 0 3 a 0 q 0   < q < X - 9 9 % y % 9 % ",
"9 9 % - $ + - 0 $ - a > 3 w : q 0 q 3 0 - - ; # 4 h 0 4 ; 4 ; ; 4 ; 4 q a < $ ; - - - 0 < q 0 0 : y 3 ; a - $ 9 9 - # % % % % 9 ",
"y 9 9 @ 9 y < ; @ u > $ < k g g j j s q j e u 4 ; > O ; & ; h f ; & ; & > ; 4 d d d g w s j s f a k > $ < y + $ : < y 3 # 9 9 y ",
"- % % q 9 9 3 9 < * @ $ * 5 r u u y q q 9 w 4 f 4 ; 6 ; ; 4 ; ; 4 ; ; 4 ; 4 d 6 4 6 4 5 w t u a r < - $ @ - < 5 9 < 9 q q % # , ",
"0 - 0 q < 0 3 u 3 q & * > 5 r r 9 9 q 0 4 w > ; ; ; d 6 e 6 6 6 6 e 6 6 > ; ; 6 4 w < 0 w < 4 t r 0 > - $ q 5 g a < q > w 9 - : ",
"s y s y k a S m v b y v v u u k k j j z D x B B Z Z H B w w c c e e c F Z Z B h B l G b g g k v u u b k i v k N m G a k t j y k ",
"q u k j l j a a a v b i g v v b A A A B I Z B b B B B h V x l l c c x x x x B v B C Z A B A A b v v a a b v g g u s s l s j a w ",
"k j s j k s k k v v N N A C I C A B B B / _ Z Z Z Z v d x d h h d x d x Z Z Z Z Z ) / C A B C N I P C N N v a a l l u l j s j k ",
"k j u s u q q q r a a 5 g k a N B i d 6 6 b d B / ) ^ Z / Z B B c / Z / [ / B d d v 6 6 8 d b N i g g 5 a a y y 0 q q u u s j k ",
"; q s e s u j e u v I h I A A m h B Z Z B Z B v d d - d / B Z Z c ) d & t d h B B / B Z Z B b m P P I a U k u u e s u u u s q : ",
"0 ; 0 - ; q u w - : v a N a a g z V B H B h t d d d B Z ) / H H / ) H x d d d f 6 h x / B C b j a u N a n : - 3 w u q ; - 0 ; 0 ",
"s S J E ` J S J S Y S W Y Y Y K F ^ ^ ' [ Z ) $.#.[ / #.H ( ) ( / H [ ^ #.#.#.[ [ / ' ) ^ ^ H F Y Y _ _ S U S R J N Y ` E J S s ",
"u J j c K ( D Y R J W =.[ ^ } | ' ' ' ' } | ^ ^ ' ' B c z D F F Z c V V [ ' ^ ` / | } ' ' ' ' | } F [ @.W J Y ] Y D ( K S j F u ",
"z j l z J J I ] W ] W X.H ( } | ' F ' ` [ ) ;.$.[ ' [ | { { { [ { | [ [ ' [ | ;.;.' ' ' ^ ^ ' | } ` J ..] ] E ] ] K I G z l j z ",
"D D k S z S S E J Y o.] ` K ^ ' ` ` { [ _ [ [ [ [ ( ^ ^ =.:.{ { :.=.^ ^ ( ' [ $.[ [ ' [ { ` ` ' ^ ^ ` ] o.J U U E D S m z z S S ",
"E n y G U E Y N m G c D l D ` ` J [ { ` D V V K V H ^ D ^ V c c V ^ F F H V H _ B V V ) { ] J ` ` D z D V H m u m E E Y S y z E ",
"*.X.s W 5.6.E Y K D ^ ) ` ] =.=.=.=.] [ [ ) $.$.$.;.( ( D ^ H H K D ` ( ;.-.=.[ $._ ] [ [ =.=.-.o.] ` ) F D I k Y E 6.2.W s ~ *.",
"; - 9 4 % - ; $ $ * + * o 3 , w ; ; a < < 5 y k k k g 5 4 f g f f 4 0 a k s v s t 0 0 < u ; - e < 4 + * @ * $ & - : ; = 0 9 - ; ",
"6 4 l ; 6 l < & i f u w b l I Y k m ` w o.o.S X.E s k W *.*.,.,.@.-.W k v E ] z C o.o.w ] m k Y I l b q u a u j # < l 6 - h 6 6 ",
"; h 4 < q w 0 ; w k < ( z l K Y G y S E [ m a U *.X.M n n W @.@.W n n M ~ -.U s a m [ W m w G K K l z ( 4 k w f > 4 e 6 4 6 h ; ",
"6 6 d 6 > f e l z k V f k b D G q k G o.a k m  .J n L L <.3.,.,.3.<.P L n L ] J N j a X.G k q J D b k f V k z e k e f > 6 w 6 4 ",
"; e w w w f j f m H G I D _ G m J P S G S S U *.X.X.T A &.&.T T &.&.A T *.X.*.W U S S G S P U b C ] N K G H V j j j f e w w e < ",
"6 f h f w e e j b l C K _ ] ] ] *.=.1.X.W W @.! ~ T O.R O.@.&.&.O.O.! O.U ! ! ~ O.E ] o.1.-.o.] ] ] _ I G k z j j e e w d h f 4 ",
"e d h e f j f e u 0 a e t j b b b k y q y 9 a q y s a y v k s v s n y u s y 9 y s 0 y r y s b z l g r w s 0 e w e f j f e l e e ",
"l e 0 0 0 < q q e e u j j j k l z z z u 0 k m k k z k u f < l l < f u j z j k a m k 0 e z z l l k k f f u e e f q w 0 < 4 w e l ",
"w e e D j j z V l j c m z D m V j j f z l b j j j l a V D m f f V D V u z j s e j z z z f k j V D D z m c j l z c z j j c e e w "
};
