/* XPM */
static char *_____________[] = {
/* columns rows colors chars-per-pixel */
"64 64 256 2",
"   c #0C0201",
".  c #170100",
"X  c #250301",
"o  c #2C0201",
"O  c #2A0706",
"+  c #340201",
"@  c #3C0201",
"#  c #330907",
"$  c #3C0902",
"%  c #350409",
"&  c #39070A",
"*  c #430202",
"=  c #4B0202",
"-  c #4B0901",
";  c #4A0309",
":  c #440708",
">  c #530301",
",  c #5B0301",
"<  c #5B0A02",
"1  c #520708",
"2  c #561300",
"3  c #630301",
"4  c #6B0402",
"5  c #630903",
"6  c #6B0A03",
"7  c #64040B",
"8  c #66090A",
"9  c #730402",
"0  c #7C0401",
"q  c #740901",
"w  c #7B0A02",
"e  c #760709",
"r  c #6E1303",
"t  c #721801",
"y  c #731403",
"u  c #78280A",
"i  c #6D2511",
"p  c #830401",
"a  c #8C0601",
"s  c #830B01",
"d  c #8B0C02",
"f  c #880B09",
"g  c #940302",
"h  c #930B01",
"j  c #9C0E01",
"k  c #990705",
"l  c #841403",
"z  c #881804",
"x  c #941201",
"c  c #9E1400",
"v  c #9D1A04",
"b  c #981908",
"n  c #A30903",
"m  c #A21200",
"M  c #AB1501",
"N  c #A21A01",
"B  c #AB1C00",
"V  c #AF1E08",
"C  c #B91101",
"Z  c #B11A01",
"A  c #B41907",
"S  c #862808",
"D  c #992501",
"F  c #99270B",
"G  c #812010",
"H  c #8D3510",
"J  c #923B02",
"K  c #A32504",
"L  c #AA2302",
"P  c #A42D0A",
"I  c #AA2607",
"U  c #BD2302",
"Y  c #BB2E02",
"T  c #B52608",
"R  c #A73102",
"E  c #A93002",
"W  c #B83806",
"Q  c #A83A12",
"!  c #BA3814",
"~  c #C51704",
"^  c #C32A00",
"/  c #CA2C04",
"(  c #D82D03",
")  c #C5320A",
"_  c #CA3705",
"`  c #DC3401",
"'  c #DB3B01",
"]  c #D73100",
"[  c #C93813",
"{  c #DE3114",
"}  c #EB3C00",
"|  c #E63A02",
" . c #8F480F",
".. c #A14F1E",
"X. c #BB4B18",
"o. c #A45D1F",
"O. c #B34B0B",
"+. c #B66305",
"@. c #C7450A",
"#. c #DE4103",
"$. c #D64809",
"%. c #D65C0A",
"&. c #C94414",
"*. c #C1561C",
"=. c #D65819",
"-. c #D44E12",
";. c #E54201",
":. c #EA4304",
">. c #EC4B03",
",. c #E44A07",
"<. c #FA4503",
"1. c #F54C04",
"2. c #FB4D03",
"3. c #F14807",
"4. c #EE5604",
"5. c #EC500B",
"6. c #E85A07",
"7. c #F55205",
"8. c #FD5201",
"9. c #FD5C02",
"0. c #FB5C0A",
"q. c #F8570B",
"w. c #ED5C11",
"e. c #E25011",
"r. c #F65A14",
"t. c #E64C1A",
"y. c #C76A0E",
"u. c #C46916",
"i. c #CB7713",
"p. c #CD7210",
"a. c #EA660D",
"s. c #FD6302",
"d. c #FD6C02",
"f. c #FC630A",
"g. c #F9690D",
"h. c #F56507",
"j. c #FD7401",
"k. c #FD7B01",
"l. c #FE750C",
"z. c #FD7A0C",
"x. c #F57D05",
"c. c #EA6616",
"v. c #FB6A12",
"b. c #FC7311",
"n. c #FC7219",
"m. c #FA7917",
"M. c #EC700A",
"N. c #EC5822",
"B. c #F56922",
"V. c #C86F32",
"C. c #F58201",
"Z. c #FD8302",
"A. c #F58B02",
"S. c #FD8B02",
"D. c #FF840B",
"F. c #FD9301",
"G. c #FD9C02",
"H. c #FD910B",
"J. c #FD9C08",
"K. c #FC8D12",
"L. c #FB8C18",
"P. c #F89E15",
"I. c #ED930F",
"U. c #FDA402",
"Y. c #F7AB02",
"T. c #FDAC02",
"R. c #FDAD0A",
"E. c #FDA40E",
"W. c #FEB304",
"Q. c #FDBA04",
"!. c #FEB40B",
"~. c #FBBB0C",
"^. c #F5B906",
"/. c #FCA91C",
"(. c #FEB412",
"). c #FDBC10",
"_. c #F3BD18",
"`. c #FCB31D",
"'. c #EDAC0D",
"]. c #C39032",
"[. c #FA8822",
"{. c #FA9A23",
"}. c #FE9A34",
"|. c #FDA628",
" X c #ECBC20",
".X c #F7B627",
"XX c #FBB138",
"oX c #EFA338",
"OX c #FEC404",
"+X c #F7C60A",
"@X c #FDC50A",
"#X c #FBCC0D",
"$X c #FDC803",
"%X c #FDCB14",
"&X c #FEC31D",
"*X c #F9C814",
"=X c #FDD414",
"-X c #FFD71E",
";X c #FCDC1C",
":X c #F7D818",
">X c #FBC928",
",X c #FAD826",
"<X c #F9CA3A",
"1X c #F9D633",
"2X c #EDC225",
"3X c #FBE627",
"4X c #FEEB3A",
"5X c #FDE936",
"6X c #FEF333",
"7X c #FCFB34",
"8X c #FEFD3C",
"9X c #FAF338",
"0X c #DE974B",
"qX c #FE8E40",
"wX c #CEA151",
"eX c #D9B960",
"rX c #F0BD6D",
"tX c #F9D548",
"yX c #FBC958",
"uX c #FEE747",
"iX c #FEF643",
"pX c #FEFD43",
"aX c #FEFE4C",
"sX c #FBF74A",
"dX c #FCEB57",
"fX c #FEFE53",
"gX c #FEFE5C",
"hX c #FBF559",
"jX c #F7C469",
"kX c #FDD775",
"lX c #EDC472",
"zX c #FFE26F",
"xX c #FEFD63",
"cX c #FEFD6C",
"vX c #FDF362",
"bX c #FDE878",
"nX c #FFFA71",
"mX c #FFFD7A",
"MX c #FFF379",
"NX c #FDFE84",
"BX c #FEFD8D",
"VX c #FFF389",
"CX c #FFEF9C",
"ZX c #FFF191",
"AX c #FDFE94",
"SX c #FEFE9C",
"DX c #FCE886",
"FX c #FEFEA4",
"GX c #FFF4AC",
"HX c #FEFEAB",
"JX c #FEFEB2",
"KX c #FEFEBC",
"LX c #F2F1BA",
"PX c #FEFEC1",
"IX c #FFFFD5",
"UX c #FEFEE0",
/* pixels */
"    . O X o X X X X X o % o o + + + + + @ @ + o o % o + + o + @ + @ @ * * * * > = = > , , , , , , , 4 , , , , , , 4 4 3 9 4 4 > ",
"    # o o o o X X X X X o o o o + @ + @ @ + % + % + + + + + + @ @ @ @ @ * = = > > > > > , , , , > > , , , > , > , 3 9 3 4 9 9 9 ",
"  O o o X o X X X X o o o o o + + @ + * * @ * @ @ @ + + + + + @ & @ @ @ * * * > > = > , 4 3 , , , , , 3 , > > , > , 4 9 3 , , 3 ",
"X o o o o O X X X o o o + o + @ + @ * = ; = * : * @ + + + + o + + @ @ @ * = = > , , , < 4 6 3 6 3 , , , , > > > > > , 4 3 3 3 4 ",
"o + o o o o X X X o o + + + @ * * = > 3 , , 3 3 , = @ + + + + @ + + @ @ = = = > 4 , e 6 9 d x p w 4 3 , , > > = = > > 3 3 , , , ",
"o o X o o X o O X o + + @ @ $ = = , 4 9 T ' ;.:.M , @ @ @ @ + @ + + @ @ * = > > q 9 v M.D.Z.k.z._ 9 4 3 3 , > = ; > > > 3 , , 3 ",
"o X o o X o o o % o + + * * = , 3 0 m q.9.9.8.8.<.x : * @ + + @ @ + + * * = = > 9 s H.G.G.S.S.k.k.r.9 4 4 3 , , > = > = , , > , ",
"o o o o o o o o o + + @ * = , 4 p w.k.H.S.Z.d.s.9.r.* = @ + + @ @ + + * * = > , w K.U.T.T.G.F.Z.k.j.5.0 9 3 , , > > > > = , > > ",
"+ o o o o o o o + @ @ * > , 9 d l.S.J.(.G.C.H.k.d.f.> 1 @ @ @ @ @ + @ : - = > , 9 U.=X*XQ.Y.G.F.S.Z.k.v.a 9 3 3 , > > = = > > > ",
"o o + o o o o o @ + * = , 9 c z.F.J.!.~.Q.!.W.R.F.D., > * @ @ @ @ % @ @ * = , 5 d W.hX,X+X+XW.G.S.S.S.Z.l.h e 3 , > * = * = , > ",
"+ o o o X o o o ; + = , 4 c D.G.U.R.~.(.&X=X#X$X*XW.p * = @ @ $ % $ @ @ * > , 4 f dXFXSXAXAX:XY.G.F.F.S.Z.v.p 4 3 , > * * * > > ",
"o % o o X o + + * @ = 4 h j.F.E.R.~.*X-X:XsXfXaXpX5X0 = = @ @ @ @ @ @ @ - = , 4 h ZXFXSXSXSXNX,X+XU.F.A.F.k.w.f 6 , > = = * = , ",
"+ + o o X o + @ * = , p v.S.R.(.!.).-X3XfXfXgXfXpXgXr - = * @ * + @ @ @ * = , 6 a bXAXAXFXSXFXAXcX1XW.G.F.D.d.Z w 3 > = * @ * > ",
"+ + o o o o % * ; > w B.d.F.W.!.^.@X3XaXfXaXgXgXgXgXr = = * @ * + @ @ @ * > , 4 a VXAXAXSXFXSXSXFXAXuXW.F.Z.k.n.k 4 , = = * @ > ",
"+ + o X o o @ * > , s k.Z.!.(.).%X3XaXaXpXfXxXxXxXgX4 < ; * @ * @ + + @ * > , 9 d kXBXAXSXBXAXSXJXKXFXuXU.F.Z.j.^ 0 , > = * @ = ",
"o o o X o o * * , w a.F.J.R.Q.*X,XaXaXaXaXfXgXgXgXhX3 < ; * @ * @ @ @ @ * = > 4 d yXSXAXAXFXHXFXFXHXFXAX+XF.Z.k.f.h 4 , > = @ @ ",
"o o o o o + : = , x j.G.T.R.@X,XaXfXfXfXaXfXgXxXhXeX7 , ; @ * * @ @ @ @ - = > 6 f +.HXHXHXHXHXJXJXHXFXFXhXU.Z.Z.j.m 9 , , = * @ ",
"o o o o o + = = e =.Z.G.!.!.@X;XaXfXfXfXfXxXcXnXxXS 3 > = @ * * @ @ + @ * = > 3 w D SXHXJXJXHXHXJXJXFXFXSX,XG.Z.j._ 0 , = = * @ ",
"o o o o o * * > p z.S.U.W.~.$X9XaXaXfXfXfXxXcXcXnXs 5 , : @ * = @ + @ @ * = = < w I SXHXHXJXFXFXHXHXHXHXHXhX~.F.k.v.p 3 = = = @ ",
"o o o o o * = > N D.F.U.W.@X=XaXgXfXfXfXfXgXgXgXMXa < > * @ * ; @ @ @ @ * * = , 9 N ZXFXHXJXJXHXHXFXJXJXFXBX,XJ.F.j.m 4 = * = * ",
"o O o + + * = 5 w.x.G.U.T.OX;XfXfXfXfXfXfXfXxXxXwX9 3 > = * * = @ @ + @ @ = 1 > 5 x jXAXSXHXJXKXHXFXHXFXFXAXsXY.A.k.Z 4 < @ @ * ",
"o o o o @ = = 4 f.S.U.U.W.$X3XaXfXfXaXfXaXfXxXcXr e < > * @ @ * @ + + @ @ * = < 6 d R SXSXFXJXJXFXFXSXAXAXAXmX*XF.k.U 9 > * @ @ ",
"o o o + @ * = 9 d.Z.G.T.Q.#X6XaXfXaXaXaXaXxXxXbX9 4 > 1 * @ @ * : + + @ @ * = , , p M VXSXSXFXHXSXAXNXNXFXJXFX2XF.k.e.9 > = @ @ ",
"o o o + @ = = w j.S.G.T.W.=X8XfXaXpXpXpXaXxXvXS 4 3 > = * * * * * @ @ @ * * * - , w c kXJXFXHXFXAXAXAXBXJXPXSXtXF.Z.6.w > = @ + ",
"o o o + * = - 9 d.Z.G.U.Q.;XpXaXfXpX8XpXaXgXbX3 5 , 1 = * * * = * + @ * @ ; = = > q d  .JXFXJXJXSXHXHXSXHXLXBXtXG.k.6.e > * * @ ",
"o o o o * * = 9 b.C.F.T.@X9XfXfXfXaXaXpXaXMXy 8 3 , = * * * * = > @ * = * * > > > 4 s c rXFXJXKXJXSXFXFXFXAXSX<XF.Z./ 4 , * @ + ",
"o + + + * * = 6 @.Z.S.U.Q.aXgXaXfXpXpXpXgXu 0 3 , > = = = = = > , * ; ; * = 1 > > 3 w s U zXFXHXFXAXSXFXSXFXKX1XJ.Z.a 4 > * * + ",
"o o o + * @ * , N k.G.R.Y.pXaXaXaX8XfXsX].f 4 3 , > > > > > , , > = * > = > > = > 3 9 w d Y SXGXGXFXJXFXSXFXKX XU.@.w 3 ; @ @ @ ",
"+ + o @ * @ @ 1 9 @.S.U.Q.3XpXpXpX7X7XhXs w 4 , , , , , , 3 4 4 , > > 3 3 , > > > , 6 4 0 l x DXHXFXJXHXFXHXHX@XH.j 0 , > @ @ + ",
"+ + + + * + * = , 6 Q {.U.+X6XiX8XpXvXy e 5 3 > > , 5 4 4 0 b 0 3 , 3 w d w 3 > > > 4 3 6 w d x lXBXHXFXHXPXSX!._ h 4 , = * + + ",
"+ + + + : + @ = > , e w l F i. .H H 9 4 3 , , > , , 3 0 g 4._ g , 4 Y c.m n 9 > > , 5 , , 6 q w h F ..o.kXrXu.B k p 5 , = * @ + ",
"+ o + + * + + * * > 4 e 0 0 w e w , < , , , > > , , 9 n Z.,XaXC 4 f z.pXdXM h 3 > , 3 , , , 3 6 w s a d k d a a p w , = * @ $ o ",
"+ + + + * + + @ @ = , , 4 5 4 4 4 , , , > > > > , 3 g $.4XcXhX{ 0 s C.6XsX0Xn 4 > > 3 > > , , , 5 w q q w e 9 w 4 4 , * * + + + ",
"+ + + + * o + * @ @ ; = , > > , 3 ; > = > > * = , 4 N `.pXfX).~ 0 a x.9XcXZXM 9 > > , = = > = < , 4 4 5 4 4 5 3 , , > * * @ + + ",
"+ o + + @ + + + @ + * * = * = > = * = * = = = > , 9 b.sXgXiXF.A 9 p g.fXcXNXM 9 > > , = * = = * > 5 , , , 5 , > > , * @ @ @ + + ",
"+ + o @ $ o o + @ + @ * * * * = = * * * * = = = , a d.4XgXiX6.g 4 0 $.sXNXcX^ 9 , > , = $ = = = = > > = > , > = = , * @ @ @ % @ ",
"* X o + @ + + + + + @ @ @ * * * * + @ * * * = > > h 9.J.1X>X~ 0 3 4 j C.<X|.C w , > , = @ * * = = > = * = > = = * > * * @ @ @ @ ",
"I + * @ @ + + + + @ + @ + + + * @ + @ @ @ @ * = > 4 / 2.3.A k 4 , , 5 ) ,.` k 4 > = , * * @ = * * > = = > = = * * > = @ @ @ @ @ ",
"( 9 / = * + % + + + + + + + + @ @ + + + + @ * = ; , 4 h j f 0 3 > > , e 0 p 0 , > = , @ @ @ ; ; * > ; * ; = * * * = = @ @ * * * ",
"T ` :.* * @ @ * + @ @ + + o o % @ + + @ + + * = ; 1 , , q 4 3 = > = , , , 8 , > = ; > * @ * * * * = ; * = = * * * = * * * * @ = ",
"= / } % ; % @ * + @ + % o o o + @ + @ + + + @ * * = = > 3 > 3 = ; = = > = > > * * * > * @ @ * * * = ; * * * * @ @ * * * = = * = ",
"% L | N.> + > * + + + + o + o % @ + + @ + + @ @ * @ * > = * 3 = * * * = * = < * : @ = @ @ * * * * ; * @ @ * * * * @ = = > > > = ",
"o T | } [ * 5.X.+ + + % o o o + @ + @ + + + @ @ @ @ * = @ * , * & * @ = * * * = @ * * * @ @ * * @ * * @ @ : * * * : > > , > > = ",
"% N m z ( p 0.W % + + + o + o @ @ + @ + + + @ + + @ = * @ = < * @ = @ = @ @ @ = @ @ * * * @ * * @ * * @ @ * * * = > , , , 4 > > ",
"@ @ > . > ` 2.W @ & X + + + o @ % + + + + @ @ + @ * * @ + ; ; ; @ * $ * * + @ * * @ * * @ * * * @ * * * * * ; > > 3 , > @.5.> = ",
"@ o + + @ K 8.-.% o . O o o + % @ + + + @ @ @ + + @ * + @ * ; @ : = * $ * * @ * * * = ; + * + @ * = = @ * = = < > 4 7 , -.h.4 r.",
"% + + @ : P 1.s.=.* < w.V.+ + o # + o % @ @ * @ @ * * * * * % < > 5 2 * - = : @ * @ = = : * $ * * * @ * * ; < P I 4 9 9 %.d.8.;.",
"@ @ + + @ v } 5./ t.c 0.*.@ o X O + * $ * @ * * * * ; : * @ o oXk.C.1X1 = = * $ $ < 3 * * @ @ o + + + * * * XXj.;.p 0 u.z.s.8.3 ",
"+ + + * % 9 ] w 6 ^ ' 9.*.= * @ @ -.}.& * * = @ = < u @ : = 1 |.D.Z.~.> , = * @ IXI.K > > = @ @ X.F + * > , P.D.D.m.j.S.j.s.B 1 ",
"+ @ + @ @ @ l , o o _ 9.k.[.I , ; 6.XX@ = > = * K.'./.- = > 2 {.Z.C.J., > - : r IXCXR > = > * $ <X@.$ > 3 5 K.z.` d.s.8.h.8.x , ",
"@ @ @ + @ : + + + X &.2.f.;.8.9.m.z.}.> 1 > , > A.>X<X< , , 6 P.k.Z.>X3 , < 3 r AXdX%.5 < , > 2 $X%., < O.[.j.d.d.0.t.w G ' , > ",
"@ + @ + @ = % @ o o T } ! ! | 7.9.j.S.|.+.q 4 5 E.4XgX6 4 5 y vX.Xx.uX, 4 8 5 i 1XOX.Xq y  .S J T.J./.).T.S.d.9.-.3 @ ; r , = = ",
"* + @ @ @ * % + O o < V , @ z #.2.s.Z.G.U.A.Z.L.G.5X8Xp.y.p.tXfXuXA.:Xi.i.zXCXGX+XT.T.U.^.mX*XF.H.S.Z.Z.S.k.d.8.4 , , = * * * = ",
"; + @ @ @ * @ o + o % + @ @ + + L f.k.S.k.d.d.k.G.=X-XF.J.G.hXNXgX_.*XG.J.*XHXPX^.H.S.F.S.>XQ.H.k.j.s.h.g.d.s.2.3 3 , = = 1 ; > ",
"; @ + + + @ * + + o o o o $ + + < q.d.j.9.8.9.d.Z.F.G.k.Z.S.kXIX9XNX2XI.C.A.vX,XW.F.k.j.k.k.F.k.s.0.h.W 3 L 8.:.5 , = > > > = > ",
"* * + + + + : + o o o o o + + $ * 6.j.D _ 3.8.9.x.Z.S.d.j.k.yXLX1XBX.Xj.j.j.A.T.U.Z.s.d.f.f.c.s.s.D = > > I ;.L 3 > = = = = * > ",
"+ : + @ + + @ + o o o o o + + @ * ' 3.3 ; @ S e.s.d.s.s.s.d.`.dX;X3XP.d.s.s.f.C.k.b.) , > > , 9.8.3 > > * 5 > > , > = * = = = = ",
"+ * + + + + % @ o o X o o o + + @ , z * * * : : f.s.Y P O.=.K.OX#X=Xk.E t = , m.d.^ T , , 5 3 2.1.= * * * * * = , * = = ; = = = ",
"+ @ @ % + o + @ o o X o o O o + % * ; * @ @ * ; t.<.z * * : *.U.T.T.a.> - * 1 B.#.a T - > > > &.Y ; * @ @ % @ ; > = * = = = = = ",
"o o @ + + o + @ + X o X X o o X o @ @ + % + @ @ Q ' I * = , z F.G.S.L.= 1 > * [ | ) T * * = * = * @ * @ @ @ @ = = = = * * * * > ",
"o o + @ o o + + o o o X o o o O X + + o o o o + = l r * = 1 p j.D.k.l.= = > * v / d < @ @ ; * @ + + + @ + + + > = * * * * * * = ",
"X o + @ + + o + + X X X o X X X X o o o o o o o + % @ * * ; 3 d.9.d.b.= = = @ = = * + @ + @ * + o + + o o + @ = * @ * @ * @ * * ",
"  X + o + o o o + X o X X o X O o X o X X o o o o o + @ @ = 3 @.[ T K = * @ + % + @ + % + + @ o o + + o + o @ @ @ @ @ @ @ + * + ",
"  . o o + + o o o o X X X X X X X X o o X X X o o X o % @ * * = @ : = * * @ + o + + + + o o + o o + + o o + @ @ @ + @ + + @ * + "
};
