/* XPM */
static char *_____________[] = {
/* columns rows colors chars-per-pixel */
"64 64 112 2",
"   c #193E19",
".  c #292F29",
"X  c #253625",
"o  c #253D25",
"O  c #2A342A",
"+  c #2A3C2A",
"@  c #333D33",
"#  c #3B3D3B",
"$  c #1D461D",
"%  c #1D4B1D",
"&  c #145714",
"*  c #175817",
"=  c #1C531C",
"-  c #126112",
";  c #1D621D",
":  c #1C6B1C",
">  c #244424",
",  c #244C24",
"<  c #2B442B",
"1  c #2B4C2B",
"2  c #245324",
"3  c #255B25",
"4  c #2B542B",
"5  c #2C5B2C",
"6  c #344334",
"7  c #344C34",
"8  c #3B453B",
"9  c #374B38",
"0  c #3C4C3C",
"q  c #345434",
"w  c #345B34",
"e  c #3C533C",
"r  c #375F38",
"t  c #3C5B3C",
"y  c #256325",
"u  c #236B23",
"i  c #2C632C",
"p  c #2C6A2C",
"a  c #30622F",
"s  c #237223",
"d  c #2C702C",
"f  c #346334",
"g  c #346B34",
"h  c #3B633B",
"j  c #3C6A3C",
"k  c #377437",
"l  c #377B37",
"z  c #377038",
"x  c #3A733A",
"c  c #40553F",
"v  c #3F6840",
"b  c #424542",
"n  c #434D43",
"m  c #4A4C4A",
"M  c #445444",
"N  c #485746",
"B  c #445B44",
"V  c #4B554B",
"C  c #4C5C4C",
"Z  c #505C4F",
"A  c #535553",
"S  c #585755",
"D  c #535D53",
"F  c #5B5C5B",
"G  c #446344",
"H  c #486447",
"J  c #436B44",
"K  c #476248",
"L  c #4C634C",
"P  c #476848",
"I  c #4C6B4C",
"U  c #50644F",
"Y  c #506E4E",
"T  c #457145",
"R  c #4D744D",
"E  c #4C794D",
"W  c #546454",
"Q  c #586455",
"!  c #546B54",
"~  c #586B57",
"^  c #5B655B",
"/  c #576C59",
"(  c #5C6C5C",
")  c #547254",
"_  c #527D52",
"`  c #5C735C",
"'  c #5C795C",
"]  c #606B5E",
"[  c #61775F",
"{  c #626562",
"}  c #636C63",
"|  c #696E66",
" . c #6A6D6A",
".. c #637463",
"X. c #647A64",
"o. c #687D67",
"O. c #67746A",
"+. c #6B746B",
"@. c #677968",
"#. c #6B7B6B",
"$. c #70756F",
"%. c #717C6F",
"&. c #6F7F70",
"*. c #727472",
"=. c #737C73",
"-. c #797C79",
";. c #638163",
":. c #6D816C",
">. c #748274",
",. c #758278",
"<. c #7B837B",
"1. c #7C897C",
/* pixels */
"* = > 4 t 1 < 1 w 7 h 1 7 t w H t w t e B 4 , 1 e h h H L L g s y , y i j T J J v J v T T T r 4 w B t e e r q q 4 2 v 2 % = = 4 ",
"y p g v E j J J E E ! ) ;._ _ ' Y J v h h w w q q w e e B q p u i I I T R I ) ) ) L I K H B K H G I K 9 q q G c e ! ) t w i 5 r ",
", f ) ( X.' ) W [ ~ ! o.#.o.` ..~ ! ` R ) ` P H ! X...} | W h p j ..X.....} #.o.:.:.#.*.W ..V ) ` C N B c e B B C / ` ` ` v f 4 ",
"4 r ( O.#.#.#.@.` } #...[ @...) ` ! ` ! ( ( ( ~ ` ` /  .+.Q v a h o.1.=.<.<.-.@...&.+.=.} } ( } Q V W C B N B N D ^ C W Q K f 4 ",
"4 f ~ +.+.#.@.X.#.( o.o.' ' ` ' ` ` ..` ` } ! W ../ @.O.O.^ h a J #.<.=.,.=.#.@...X.[ ` } ( } @.O.D W V W ( B B Q D C D U L f 3 ",
"7 G ! ..X.:...` ` ! ) ' ) J _ ) ) ` ....~ ` ` ..@.} =.<.-.( h a T ;.>.=.>.X.+.` X.o.X.@.} Z B ..+.Q C W ~ ..` ! ! ` ] O.O./ v 5 ",
"q h [ @.@.` ) ) I I R Y ) P ` Y ) ` ' ` / ..` ( =.#.=.<.%.{ r y J ' >.,.:.X.#.` ' X.X.:.>.:.>.:.O.#.` ~ ( / ` / Q } ( } ..Y g w ",
"4 h ( @.[ ! R ) I J E R ) _ R ) _ ` X.) ! ` ( ( -.=.,.-. .| r 3 g ' >.=.X.' ' ` ` [ ' @.X.;.[ [ / ( ! L U ) ` ~ I C ` } ^ W h 5 ",
"q h I ` ` ! ' Y v T T v T ! I ` Y R X.! I ` } ( $.+.*.$.-.` r 3 w ) o...` [ ) ) X.) o.>.:.:.o.@./ ( Q L U ~ ..( ^ ^ +.O...! j i ",
"4 f ) [ ) ' X.R v ` ) J Y Y ) Y I ! [ ` ` @.O.O.+.=.-.-.*.R f y w ! ` ! ` X.) ` ' ` :.;.' X.X.` ( ..I B ^ / ] #.O.O.+.*. .! g 5 ",
"5 f ) ` ` ` ` I I ' ' X.' ..` X.[ @.=.O.@.&.O.$.+.-.-.-.*.U f 5 M ^ [ / ( ..` ....@.#.#.o.#.@.#.O.+.^ M C ( #.*.#... .*.| ~ h q ",
"5 f P ( ) ` c t P H ` X.#.@...` ..#.@.( Z Z ^ { } $. .+.+.W w 3 M { ..] ..( ( @.` ` X.@.X...@.+.{ O.^ V } =.+.*.+.*. .*. ./ C 7 ",
"4 f t / Q ) } ~ / L L U ! O.C B C B K L D L C L N B N P N t 3 : 4 ^ ^ C W D C ! ^ W W Q ^ Q W L B B N 6 m A ^ F A V F F m A A 6 ",
"9 f j Y ` ! } ! L ~ I I ` ` ( ! U K P f f v r t B e e r q 3 : : 5 t q q e e q t w h H C D ^ K B w f q e b 0 N D S F F { { S A b ",
"q g v P ~ L ! U L ! ! T T H L B K L B v t r q t t c r w 4 4 u : f w w q w i i f h f B V Z K f w y ; y a w 5 w h L P / / ( Z V 8 ",
"f g I W W L H P P L h g f f B G t V D Z C Z V D D Z ^ V V L f J L K G G t w q G h h W G G G f a ; : u f p 3 3 f f f J K K J t e ",
"i f t e e c N c N M B f g 5 t B N N D A D A { {  .F  . . .{ (  .O.( ! ( C C B B I U L L L ! K 5 ; ; p 5 a 4 5 4 y 3 a w f r e r ",
"r t 0 8 M N V N V B f f a q C M L / }  .{ F F { { { *. . .$.+.O.( / ( Z L W t G ( / M M M ^ L r 2 = w t q 4 w h f 3 t f f t e c ",
"W W D W Q ^ ^ ^ Q } ( L g N Q Q ^ ] {  . .^ { { V ^ O. .^ } ( / 7 B L I L K t H I K B D C / W M 4 5 h C V c B ! K v ! J I ( F { ",
"#.#.( ..@.,.,.O.+.=.o.E J C Q ^ ^ { ^ } *.D  . .{ $.#.^ D W ~ W N L I L B K K K I ! I ! / W V e 4 5 h U ^ W Q ` ` ( #.X.#.1.=.<.",
"<.#...O...#.=.=.#.@.X.T j I Z Q W W { ( O.( O.+.} O...( / I / / W L ! I / I L K G ` I ) ../ ( D 7 5 J ) Q W ( / } @.o.>.<.-.,.<.",
",.@.! ..@.....@...( ` j g G L Q M n B / ( } O.O.] ( / ( / U L U / C B L K I L L ` ..` Y ( ` ( W 5 p x Y W V W W W X.:.#.<.1.<.-.",
"..X.` ..[ @.#.>.,.@.) g f B B K N n M M M 0 V V 9 0 n e e e M M B 6 0 B C N C W ^ ( ( @...^ } B q p k P ^ Q / ..@.` ` ..#.,.&.-.",
"X...[ ` ` @.o.,.&.../ g p K W ~ ^ V B / ( C U N 6 7 e N 0 n 0 M Q C D W Q D } <.=.&.} &.+.+.} D 4 3 x ) L / ......~ ! ` #.=.+.-.",
"[ Q ~ B / #.[ W { W ) g i H W ( W Q / ! L C C B M D C W D V V M D C A F F A F  . .{  .{ { { F D w u k ' W ! ( ` ` U I Q O.^ ^ O.",
"N N B C C L / ` ` } ` j h B ^ ../ ^ W C e U ] C ^ D N D D V @ 0 D V S {  .F {  . .{  .F F S { D a s l ` ^ W / ..X...) ( W ( D C ",
"{ W W W I U } ` } O...J f C ^ } / { Q U C ^ N C W ^ ^ D D m 8 8 A m F { F A {  .{ F *.{ F A { b i : g ` ( D Z ..` ..` ! ( ..O.W ",
"+./ W W U ~ +...} } ' G e V } } ( } W ! C A C A C V } V V n b b # b m m m A S *.{ A m S F A m M i d g W N C D } ..} ( } +.#.-.=.",
" .^ ^ ^ ( } ^ { ..( ! j f N ^ O.^ Z U Q n 8 0 0 0 M B 0 0 b 8 @ # # b 8 # # n b F V D A A V C M 4 p f ` N V ^ Q ( Q L ^ } ( } +.",
"S n m M M B A D B h h g y w B W B B e e 4 1 6 9 1 7 9 q q 1 > $ + < > 7 b 8 0 N N n M c n q e v a a r h e M B h C t M t e C C n ",
"@ 9 7 4 5 4 < < 4 2 3 : : 3 w 1 1 , , % , , $   $ 1 , , , > % = , > X + > < , r 7 , 7 9 7 1 f a 4 4 4 q , , 4 5 q q 5 4 4 q 4 7 ",
"q w i p i y 3 2 5 2 y u u y 5 5 q q 4 , , = $ , , $ = , > , % - & $ , , , , 2 2 > < 1 4 < 4 q i e w e 4 % 2 3 3 3 q 5 3 5 5 5 4 ",
"w = 3 f k j v j v P J x k J w 2 4 w w w w 5 5 3 4 , G 2 $ > % y = = > 4 f , , 1 e 4 a 2 3 5 5 f f a w w a q % = y f a h h g p y ",
"i J L ! I ! ! ! ~ W L C t t B B G t w 1 1 1 t e M K P e e e 4 a 4 t L U ..W K K / ..I I _ _ R ' I j g h f e r 9 q e q w h w f p ",
"g E +...+.} @.+.=.,.=.+.^ } V I ! t q B 9 7 c M B Q / / W C B 2 , e ^ { *.&.+.F O.} } ` :.X.` ` / ! ../ / ' K Z W [ ( U ! U h r ",
"j ' -.=.-.#.=.+.#.=.=.=.} } / U H 9 t B e e e e t L M U / N M 2 2 e { O.*.=.#.#.` ( X.@.[ X.o.@...O.` I ` K P ! / ! / ! } I v w ",
"H ' ,.%.=.X.#.=.+.=.=.#...( ..` ~ L B t B H B r t B B B C L t 4 2 c ^ $.&.=.#.X.X.` o.o.X.:.o.' ` ` X.! I I ! ! ! L ` #.@.I h e ",
"T ;.>.%.>.>.=.=.#.<.<.+.~ W V / ! B C B G P J G K I P ! U L t 4 4 N } O.&.#.[ ..` ! ` X.) ` @.` ) ..` Y ! Y ! ! ) / ..#.&.W f w ",
"g _ >.#.o.=.#.X.#.<.>.<.<.>.1.%.` ..` P P I J J I h H P I G w ; 3 t } &.@.X.#.@.! ) :.X.' ` o.X.` [ ' ..U Y P P ..#.=.<.-.( w q ",
"g _ :.=.#.:.#.X.%.:.:.:.%.<.:.=.~ ..! H I I I P B t I Y B v t 4 q t ( #.` @.#.` Y ) :.X.:.>.' ) ' X.` ' T Y I P @.#.<.-. .( f q ",
"f ` #.X.=.=.#...,.:.X.>.<.>.<.>./ ..! B U / I U K G I Y P U B 4 4 B ( @.X...#.X.! ` ` ! X.[ ) ) [ ` Y ! U Y ! U +.+.*.*.*.~ f q ",
"f I ` } ..#.@.#.#.=.>.1.1.,.<.X.) X.Q t W ! I ) ! I P / / W e 4 4 N ..O.=.#.:.o.! o.,.` ` ` ! ) ) ' ) ) ` X.( ` &.-.-.-.*.! g 5 ",
"w Y @.} +.+...@.@.=.>.;.>.;.>.o.) ' ! c Z U ` ! ` ! I ! ^ C t q 0 C  .+.=.+.&.#.X.>.<.:.[ X.[ ` ` ` @.` ` o.+.$.+.-.-.*.+.U f w ",
"i ! *.......) o.E _ ;._ ;.;.[ ' J E P N / ` ` ( ! ` U ! / I G 7 0 A ^ O.=.=.V D ( ~ %.#.X.[ @.` ..@.@.} D Q { { *.*.*.*.*.C w 7 ",
"a L ^ L P v h T T j v J I I P j f w r 1 9 V L B e 9 B N 0 M H 9 7 M V { ^ *. .( ( Q W W / ` W V W C D W C W C Q A C N W N t 3 1 ",
"5 w w q w 5 5 h g p g g g v g w f f q q 7 9 c N B N U D Q v t 7 0 N D ^ ^  .} ^ W } W L } ..~ ! ! L ! M B L r e B q w e 7 5 5 q ",
"5 i w w i i 5 t f h f B G h f w 4 3 a w q 9 8 c Z Z W ^ W H h q q H W U Q ! / I L ! ! J I J J h J v v v t f q f f f t r 4 5 w < ",
"H P P G t t 0 L K C W C G v f a 2 3 y p 5 2 1 e N M Z D L j a 5 i j ! L K G G h H H h h f f B G t t C v H v B C B G U B V K B D ",
"] } O.} Z D D ^ W ( ^ ^ D ! v 4 2 3 a a 5 4 y 3 4 4 n M t i i i f f t e w w h t e t h B N e B V B N D A Z N D ^ ^ N ( } } Y ) @.",
"} O.*.^ ^ } V ^ ( O.Z M N / K r 4 1 e B q 4 w h f 0 V V t w f w f e q q e B e t M B t h e 0 A A D ^ ^ ] { D V U / W } } } ` _ [ ",
"b W ] } ^ ( D W U W W Z Z I P h 4 q N A V M D / ( C ] ^ ^ ! W ^ ^ ^ F ^ Q W W L Q ( ( v C Z F { ^ } } / } U L K 0 C ( ] W ( ` } ",
"Z { ( ( Z ^ ( U ` ` ( ../ K h w 4 e C ^ ^ ^ ^ *.&. .=.#.=.<.#.,.-.=.O...X.o.X.` ..#.+.) J L { } { ^ W W / B W ! U ! ..! W / ( ^ ",
"] { +.{ ` ( W U W ....#.` ) E g y r /  .^ W O.} ( O.,.:.,.<.&.=.<.-.+.` ..X.X.X.=.+.X.I J L Q } ^ W U ! / / ! ! I / / / } ] O.*.",
"( ^ D } } { ( Q ` ` @...` ) R z p f D ^ D N Q ( ^ ` :.#.#.,.X.=.<.=.+.#...` ! ..+...` P f G W } M 7 e ! I I ! Y G K L / ] } ] { ",
"A 8 n Z F D W / L ! ! ` ` ! R j y t / W Q W ` } @.) ! &.X.` [ X.@.#.@.@.[ ` #.<.#.@.` K f r W B e 7 q e e 4 e q 1 q 7 e e M V V ",
"} D Z W C C / #.[ ..! ` } ) E z ; w / { W ! ..[ ` ! ! ) ` [ / X.` ` ` ..` ` :.,.#.#...G h h L ! K B t L K B B e 6 1 q B 0 e b M ",
"W V C C V M C ! / W / W L U P d u v ^  .W ! ! @.! K L I ! L B ..` C ( A ` #.=.^ W ^ O.j f f v U L L I L t t B B q w B W B M M N ",
"D N M D ( C t ! W U U C Z N J g u h ( O.W W } #.` [ ~ ! I U L V B B N ^ W W ~ ..+. .` h a f L ! L K W B e B ! B B t C D F A # m ",
"N n C C M c B U Z B } Z D V Y i u 3 Z ..( D C ! [ ` ..~ ~ ( } L Q W W { ^ ^ } +.+.+./ v a r L / ! L / U K K M C B L L Z D m 8 b ",
"6 8 0 b n M V W B M n N A A e y u f N { V V Z ( } ( O.} @...@.#./ } ^ ^ } O.+.=...} } K q w W / ( W L U M M B M t c W V V n 8 b ",
"@ @ 8 8 @ 6 8 9 N M M V A V V g y w V } V V ^ ( ! W ^ W ~ ! ( ..^ ^ ^ } *. .^ { } +.{ L 5 w W } ^ C C L M b 0 9 0 n V b 0 0 6 @ ",
"+ + O @ 9 8 8 M M 0 e n 0 b e B w r V A m M C B C B M N V B B n V m A m V V C Z B D P h 5 e C C B t c q 7 7 7 7 1 q 7 9 9 1 > O ",
"o > $ o X $ > w 4 > q 1 1 6 r r q 0 0 0 6 < q e e 7 q 0 q 4 q 7 1 q 4 7 e 4 1 1 4 3 3 5 5 4 w = 2 2 < > 1 , $ $ % 1 , 1 1 , + + ",
"& & * = = = = ; = = ; y , 5 y i i r t 4 < 7 e e q e r 5 w w w q 5 w f h w w 5 4 5 4 5 f f q q q r q q 7 1 , > 1 + $ o 1 > > X . "
};
