/* XPM */
static char *_____________[] = {
/* columns rows colors chars-per-pixel */
"64 64 51 1",
"  c #262626",
". c #2D2D2D",
"X c #333333",
"o c #373738",
"O c #3C3C3C",
"+ c #40403F",
"@ c #444444",
"# c #4C4C4B",
"$ c #4F504F",
"% c #51514E",
"& c #4F4F50",
"* c #524F50",
"= c #545454",
"- c #585757",
"; c #595957",
": c #585758",
"> c #575959",
", c #5B5B5B",
"< c #5F615F",
"1 c #60625F",
"2 c #5F5F61",
"3 c #5F6060",
"4 c #636363",
"5 c #6A6766",
"6 c #676A67",
"7 c #696668",
"8 c #67696A",
"9 c #6B6B6B",
"0 c #716F6E",
"q c #6F706F",
"w c #71706F",
"e c #706F71",
"r c #6F7171",
"t c #737373",
"y c #787776",
"u c #787977",
"i c #787778",
"p c #757878",
"a c #7B7B7B",
"s c #807E7D",
"d c #7E807D",
"f c #82817F",
"g c #7F8181",
"h c #838383",
"j c #878887",
"k c #888789",
"l c #878988",
"z c #8B8A8A",
"x c #90908F",
"c c #908F90",
"v c #919191",
/* pixels */
"..XO&OoO#O=OO##,=#=&=@oo#,:,,,,@#oO#,3,4343542#O#:##$##@+O,O.X.O",
"O=:,9,,,9i59haui67,,,==#####=#=##144479992,,--,,,<,@+#>#$49#@#@&",
"o#79asi2y9ehjahi6yatyp74tay9t4,#,tyty9pahkga59,99,=,%#=:,e9t9,=O",
"O#6raghhithhhhhhhiaeyrttpp9yi4,#:ijghhkaghaaetq97%4,:==:,6286,:O",
"@#8idkjkkuxzkkzzhhgiaiytatasa7:@3sjhjhhaghsguqiay44,7r4,374,42:O",
"@,tijzhhjulkhakjjhhsiiaaiyghh6*#5kjjkjhjjzzht7,ti747qaayti9yy7,@",
"@:whjjjhiaxkxdzkjjjhiaaihhjka9#@2sjjkkljjzzvzvvkajaypaairteyy6,@",
"@:tdahhgfavvvxxzzkjhhattjhjgt7#@,gllkjjhlzzzhzkjtiy8qidi64ip64,@",
"@:eshszjyjhikhhjjghaiiwwaayyi8&@=ijhjjjakxzxvzzjta976pay99ayt8,@",
"@:yggjzktzzahaaahhhghhaighagy8=@&9i0pjgjkkzxvzksta9<e9yaiiipt7:@",
"@,tshghkhvvxjjjhjjjdhhiaaaiit3#@=6ayyaihhhzkzzkhya9=49hahity94=@",
"@:7tah-4t9jkkjsaihht,369tyttr,@+#8iyyuthiihhhahary5:eaiiiu9y94:@",
"O#:76iytt6860i4,<,,3,<>,===,$&+o@46,72,797667764>==O#,4,=$,,#=;+",
"@=,699667977tt97847$=,##=@@#+++@#&#@#&#==;;,,4,-#$@#@@%,,,347==@",
"@=4,7487,6647<3:,,,==#@#####++@O#######:,,:,,3=@@@@##@@:4,474,#@",
"#,7,,4,,,4>:=$=:$=,,::=,:,2:=,=,,,4,:=#,1,,,,2=#OO@=#O@=-#4<<,$#",
"$=####==$$:==@$:==,,,:247,9e969ytrtt,4479q6439,@OO###+@@@@*&*###",
"&##@#=:==:,=##=$,4696,,764yrtpyitti779:9ut>==97$Oo#$@O#,=@===&##",
"6744898779t4,:<77999t447=4yt7tt9@4tt66,96934494=O@=::=,69,668727",
"jityhkhaaha94,79696qy49yeta849e7,6e9,99edsuat4,#@@:4779aatjhhjaj",
"khiyajjhjggq74396899aypayaat99ii99a8pe99taihaat,@#4w64ptyazzzzzj",
"kjahadiiiii7,,69:#,tt9yp999ytt969549999taslaiar4#=184,999hvkkkjh",
"jhhhhhzvkhy7=:44:#$==#:=#%#===>:>+$,4,4t8ttaa9q:@=7774ptgaajhhhh",
"jaisalxzhdt2>,6y6,4yy47:@@=,#$##64444,qzahthitt,@@697yhhgaaahhij",
"a6i,thh667i7:,6ie6tt614,:447,::=4:,2,=<0t9t946<:@=7t6tyhie9ei94i",
",;,777tuatt4=:9it764:4t,4,,,,,O#,::493,99493,:4;#=9t76tahgayr94<",
"977699pityy4=:8te97e46,44762,%@@==,4,=4t4,t<,=7@#@,te42yaiappiy4",
"p046eiiattt3#:6tt996::,,,,6:,#@@O@@##=,94=#=::##@$:8=>,tyyiyiajh",
"t746tt86tt94$=4t7444=@#@##=@#@OoOO@+OO#@,==::=:#@#=6:=599867t9ty",
":#=$=::,:,,=##,,:=##@OO+O@@@@OX.XXX+@@@=:@##@@#:##=,*#,,,,,>:,,#",
"O++O@+ooO@@@@@#XooXXoXX .OXoOXX....X.X.#@X@OOO=#@@@@oO@##@@@@@@O",
"@##%#@++@O@#@@@@#@@OOX.XX..o......XXXXoOX.O@O@@###=Oo+#@#######@",
"#oO#,,31,4<74<#O@:$#$@#@+O,o.X.O..Xo$ooO#+=OO##,:#=&=@oO#>:,,,,#",
"#344759994,,::,,,,,@@#>$*49=@#@#+*:,e,,,9i79hhpi67,,,$=#####:###",
":tytt9iahkda7q,9t,=>$#=>,e9t9,=Oo#79iai4y99hhfda6yatyu74tapet4,#",
":ujhhhlaajaaqrt94=4,::=:,7,66,=@O#6tahhhithjhhhaauatyrrypyety4,#",
",hkhlhhfghgsy9iay44,7t3,443,41:O@#6idjjklyzzzzzkkhgiaiita9aai6:#",
"6kjjzlhhhzzhw7,ti746taattitpy6,@@,tijzhjjukkhazjjghsiaaiayhhf6&#",
"4sjhkkkhjvzvcvvjihayyiai9teyt6,@@:thhkhhaaxzxazkkjjhiiayhjkka9#@",
",akjkkzgjzzzhczhtay6tigi94yy87>@@=tgahhgdavxvvxzzkjhhaythhkgt6#+",
"=pjgjjjikzzvvxkjtar76yiy99ayt6:@@:9agskjihgikhhkhhhauuttaaiti9&@",
"*9iqijhkjkxzxzjsta9,9ttgiuait7:@@,yhgjzztxzahdiahhhhhhiiahggi6=@",
"=8iyuaihhhzkzzkgya9=4taahitt94:@@,eajhhjhvvxjkjhjhhfhhiiaaait4#@",
"#7auyythaihhhghaet8:9aiiuu9t97:+@:7yag-4e0jkkhdaahht<,69tttt0,@O",
"@46,43,867666751;==+#,4,=$,,#=,OO$=76yttt6689i4,3,,4,4><:::,*#@O",
"#*#@#&#==:,,,4,:#=@@@@=3,,444==@@=,899964077tt97647&$,##$@@@@O@O",
"#######=,::,,,&#@+##@@#=4,477,#@@:4,746727746,,:,,>=#$@#####+O@O",
",,4,=:#34,,,,4=#OO@&#O@=:#41,,=@#,7,,4,,33,;==::$=,,::=,>,4=:,*,",
"yett,4479e74<9,@O@@#@@@@@@&#&###==####===#:==#$==:,:,:247,0e969p",
"tti779:6ut>==67=Oo#=@O#,=@=:==####@##====:>=#@:$,4899,>664tetyit",
"#4tq76,66947494=+@=::=,99,6667476724766779t4,:477999t347=4pt5tt9",
">99929etfayit4,#@@:4766aatkhhkakjiyphkjfaha94,59897ty49peta649t7",
"69i9p9q9raihaat,@#4e64itiazzczkhkhiuajjhhghr44,96769aypayait99ii",
"9649e999ahjaiar3#=364,699gczkzhhkjahsaiauii4,,6e:#,tyetu9q9ttt66",
",+#,44,t6ttaa9t:@=7777ptgaghhhhhjlfhhhzvkhu4=:44=%==:#:=#&#==:::",
"94442,tzahtdpyq,@@867yhhsaaahhajhaiaajxkhgy<:26y6,4yy47=@@=,#*#*",
"4;,,,=<wyer6474:#=7t6tyga9e9a94aa7y,thh967i7:,6i96tt9,4,:377,=:=",
",=,79,<99492,:4,#=9p79tghhay964,,,,747tpity4=:9it687,3t<4,,,<;O#",
"==,4,=<t4,t4,=7@@+,te4,taaaiiip4977699yiypy4$:8te66977:4486,,$@@",
"O@@#$=:q4$#::=###$=7=>3tyyitaghhur46ryait9t4#:6tt969:=,,,,9:,#@@",
"OO@OO+@@,:=::=:$@#$9=:6996979eryt676tt86tt94&=1t7244$@####=##@OO",
"Xo.@@@@==@##@@#:##=,**,>,,::,,,#:##===:,-;,;##;<,=##@++OOO@@@oX.",
"...XXXX#+o@OOO$#+@#@Oo@#@##@@@@+OO+O@OOo+@+@@+@oOoo.ooX .OooO..X",
"..XXX.oO..O@O@@###*oo+#@###@###@@##&##+O@O@&#@@@#@@OoX.XX..XX..."
};
