/* XPM */
static char *_____________[] = {
/* columns rows colors chars-per-pixel */
"64 64 64 1",
"  c #030303",
". c #0B0B0B",
"X c #141414",
"o c #1C1C1C",
"O c #1F201F",
"+ c #232323",
"@ c #272828",
"# c #2C2C2C",
"$ c #2E302F",
"% c #30302F",
"& c #343434",
"* c #383737",
"= c #393936",
"- c #373738",
"; c #393739",
": c #373938",
"> c #3C3C3C",
", c #3F413F",
"< c #41413F",
"1 c #3D3F40",
"2 c #403E40",
"3 c #3F4140",
"4 c #434443",
"5 c #484746",
"6 c #474847",
"7 c #494947",
"8 c #464648",
"9 c #484748",
"0 c #4C4C4C",
"q c #504E4F",
"w c #4F504F",
"e c #51504F",
"r c #4D4E50",
"t c #504F50",
"y c #4F5151",
"u c #545454",
"i c #575856",
"p c #585658",
"a c #5B5B5B",
"s c #605E5F",
"d c #5F615F",
"f c #60615F",
"g c #5F5F60",
"h c #615F60",
"j c #5F6161",
"k c #636363",
"l c #686765",
"z c #676867",
"x c #676769",
"c c #696769",
"v c #6C6C6C",
"b c #6F706F",
"n c #737373",
"m c #787675",
"M c #767877",
"N c #787877",
"B c #787778",
"V c #7B7B7B",
"C c #838383",
"Z c #878688",
"A c #8A8788",
"S c #878888",
"D c #8A8A8A",
"F c #919191",
/* pixels */
"##%-0&&&@;0*;o>>4##+ oXoo##;>#>*>#;;0jaaapakkf0>9u0000644;a;#$#2",
">0iavaaihcasMMuap2;$X#+ ..o+;@>,4iaakkvvpuapiiaaakp645a00kv0904e",
"&6kvvBnuvkkvnkp+Oph0.,&.&.4**>&44akvbvnMCnVVknavnpuau0uiavvnvau>",
">0xvcCnnvvni5oXaOpi9o+4o@+>o;6;#o>MvBMVaMnnVvbbvkukaiiupdvsvxai>",
"20kvpCVCCzqnVn+VvchX    o.&u606#@bVnVVnbnVVVMvBVnkkacnkakkkskai2",
"4ivMCCMMVkkCaMXMkvb+oaik&*X8@06;aVCBkMnVVVCVvkpbVkfcbVVnnBvBMva6",
"6uaCVVVnbbZvCVoBbb-X6aki0-4.a4+%uv*bVNMnMVCZADFCMCVnBVVBvnbnnca6",
"4u0VMvvvqkDCDav4vba.iu8ui>000+&;0havMnkvMVMVVZVCvBnkvVVVvkMMvki4",
"40vNvnCMbBMzivnavvi6;aiaiiuka6>%2kqvvVMbVvnCVVMMkncklMVnvvVnnci6",
"*0vBCMbVaAAnv>>vvak.akpikkvvke;&&0ak0avVvcVnCkMnkvqavvnCBBVVncu4",
"4inVnBsanDAAaVvbMai.aukvuazk+o.+60#;#havkkbcvM6akca0avVVCNnMvki4",
"%qkvcnqrvknku0aqkkka0600k*>#.>#%>u#>0kaiukaivpikaiatkBMMMBvnvkp2",
">&0kkvbbxkjkkk00>6&  , >>X1X%&@++*% o000%ttu44066;0*<ihauuaa0up>",
"4*p00jhk&k0as0pi6*8. @&*4#&;@+ o#3oX>.  4>>-94;.-*&>>;0aiakkkiu4",
"*0+#kdkaoai00>4*;>4..o+#+>..o#&@&#&+%+&&>20*4>>&.#*;<&;uaakkka0<",
">045p+Xu0a+>>>3>4>#.++4<>*u&#@;4>6**#+@-o-o**;,*#.o,O+*0iqfkaa00",
"004+*X&4>4#4&X&4o;&++X8au>u#40%u0604X#&48i60ri>* OX=#*:33>00t009",
"4>2X&>#O*46>>X#.    *#*6p6a4+;028&.*&&o*+>X;>004$@.Xo*4u06uuur00",
"aO60ia9uaaiX>04+;04o 6r+100y+#u0X;44*4#q0u660*6#+#>.&60pkiccckav",
"#ir0vuok2uvp00aai*4ii>0ap6kuo640>6&4@#1#wu06i44$*&60o*&gbvCVCCMC",
"napaabo.vabO060000X5kaia00v;00ki7;0104,;4u;u#a&>#&0>00piknZZAZCV",
"v6ckkbacpvv0u6aa0#0a0+6pi0pa6ia0*>#o#:i600k0pi&>#>4494ukanAZCZVv",
"vb%kbnVCMpa0600044->>-4o+&>4*44*;#,6:+>,000va&a;#&4X40fknvnVVViV",
"bqa45#cVxbkuu#X4i04iX02&o&>64&2&040&;O4xau00a00<++0r4avbvavMMVni",
">X90k#Mkahvfu4ikatii06644i6uu004u600-#7ui02400;>&;40iikvvkxkMkiM",
"*%X>+avnvkka0ukpkt+>4>>00>90u0&>4&;$ue0u0pa8>65>>>i0%iuvvnkkkkap",
"s5+qX0vMkcaa0uaz0itpu6>0uiu0u4o->400450#i&iu>6u@&-0autuvnu0aknk0",
"i#0aakVkvkva6;akx0uuO>4>46p6;-o*X$&+466a+8%0404>*40t0ta14ukku0ka",
"+>0raaaukvki49asau0e;;>;>&>>--XX.XX##&->w:6u0666;>6+4#a#0aiu2aab",
";00#X0>00iiw146u>->4:##&+o&&#o+o##o##&*>;&XO446u64:0o4>>#044>u44",
":>:**;&X;*#>>>4X&&#+#oooO@X#+..o++o+++o+ .&X&%6$;;;++#.#@*+.o#.*",
">&+66>*&+o+664#;2=;$#@+@oo+o ...XoXo+X##+.*;#2:4>40oX*4*>&#O4>;X",
"&o+>uauap>iiaa3#40>&*X*o%+4#.X+#++XX@O#+>.6-;64pt62&4&#X040upu0-",
";aukaakkc0o+00uuua0-&X6;>9i#.@*>###&#4>9aXpkv3bkks00>64#*$*#0o64",
"+aavpanMVVMok;odk040;o661ri6o#;#O#&&pu9t2i*ckavvdkbkva2a4ixia866",
"0v84>VnbnVMMvvko06iu00#62006#*>##&6tkki9kaakcibbvavsaah0a-u0h006",
"an>avVMsannBn4zvbaa+uk>9uq4#o4>##&0acvku*>vnvkknckksukuavuk0k>6*",
"0vkvvVCncCAVbauvBhaakvkaaa;q#i8*&#>akai+vaviakakkkxiuauX.i0nc&+X",
";v0;MVvvaCvvSAACnVnkkaaiiaa4002#&>&09%6-4h0aaanvakkk06%-X0aNvo#;",
"i6VavM>VVVdCCZVhkbvka-vap6u* o1o*6pkak0uiiv4#4akaui0@0X&>pua:;,&",
"0aMiiMauVVVZSCCnvnaiuaiui009 .+@&4i&k0f&4kk4aaoo&u00;0:+o0+0a+o>",
"6aaa;a1MnAAZiCVMavaqi&u96ui>X.o%#>aXakca7ssup0:y40uu0XX+o+4a&$#%",
"4iakkb4BncCCCCnnxaa+6#kh04e#X+#*.ohvk@upukvpk6>u>>0&4uo&&4o>6++&",
"*pkkkk0nMvMVVbMva0p+a#up*4;-#%X#X*00>&>+o>0@u4>>6ii4#&666o#X4;#X",
"&ip902406ua00aa00#>@##*4XoX. #.+@++46u44o##oo6*&o+#+&;&o&#&.X##+",
">4>>624u0*6#6ui0:=##.#&o#%o4.o*&&*6ui0402%o&>>0494o&&*oXoo#+.o##",
">41>&%400>000u,*%#O;@#&6060+0-$#OX8;0004607*@&>>$>;#@*#.###ooXo ",
"0uai0+;it64000+;o&;4;#-46>000:;&- o019X4&>*&#.$*#$;*##O#:;4++*X4",
"kkvv0;uipaiuuu0*&&>&*#+#&#>>+**&;>-4>--4&&;*o&&:X&;>*;-&>*0*#X,>",
"cvna0a6uva0>4&u6*@#0;X>01-2*&o&&&&-;%*441*64*$4;,uo644*84*,;+ouu",
">0p0aa6y7a594ui&*>000%u8u000;#0&+>t0iipa+X6u=40u0u304445#-*47>a&",
"4kzkugu&6u0kviu6&>uadiabk4a0&gak@kkhbVBnannk00aaui0ak8iaupu,0ua8",
"+0kix6jkanvVMnvu>4ak+0vckua*6O6@vnvcbbVnVMvcup4aiuauuikbgaka&&6v",
"44:ajaakbMVVnMba4>aio6akaknn0@0.ibvvnabmnnM6u0akt6ukvpkva+kiav0a",
"i270paaxkvvVBkvu40up6avxaakx%>kuukanBMCCknvk60ssu0tuq4u04+0o6040",
"kaaaiavAVCbVBbvp;400avvvvakaa2ugikakbNVVBVvaiazvkpaMnaku4X+oo#6;",
"supapwanbvvvakku4uk4;vzv06pig0O+u;p0knVahpn0uacMvkvv;aaau0aka5>4",
"auukvaavvkvgauau9t>vakvbu4k0r06>44+uu0vvBM%aeuxV0akk0#na&>paau*4",
"u0ajaiankgnka0k4&%ivvay0kkhu>u86uu9#&;vMv0vk0ixbvcp8akigu;kaa034",
">6600upvht0pau4149uk00iua*i>&*+iiiui>vknvkvg0wannk;kiiaa4ukiu044",
"<;44>106iuiaitt0464k0-ia0#>0i0#u006auX&aknva00anijkky66600u684>:",
"&&&>4>4tu6006400500u016+X. ..>o#>*>>46X0++i096iu00004>>>:3444;&#",
"###&&&&02*4>>;q02444*#;&XXo%**+.+#&&;*&*>&.*>4<$&&&#&&&+#:***&%&",
"##$&&$*>#%>4;460400-%&>&.X:;;##o.:>::-**+&>04>o44,4;&&@&&##*##@#"
};
