/* XPM */
static char *_____________[] = {
/* columns rows colors chars-per-pixel */
"64 64 201 2",
"   c #010000",
".  c #0A0604",
"X  c #0E0906",
"o  c #110B07",
"O  c #130D08",
"+  c #190F09",
"@  c #17100B",
"#  c #1C120C",
"$  c #181311",
"%  c #1F1F1F",
"&  c #21160E",
"*  c #24190F",
"=  c #231610",
"-  c #261911",
";  c #2B1D13",
":  c #301F14",
">  c #2F2015",
",  c #322216",
"<  c #382517",
"1  c #362518",
"2  c #3A2619",
"3  c #3D291B",
"4  c #3D3027",
"5  c #363636",
"6  c #432D1E",
"7  c #46311F",
"8  c #4A311F",
"9  c #452E20",
"0  c #492F21",
"q  c #463122",
"w  c #4D3422",
"e  c #4E3824",
"r  c #493728",
"t  c #493A2D",
"y  c #523624",
"u  c #553A26",
"i  c #593C26",
"p  c #513728",
"a  c #563C29",
"s  c #5B3E29",
"d  c #613F29",
"f  c #5C4027",
"g  c #5D412B",
"h  c #46433B",
"j  c #534235",
"k  c #5C4432",
"l  c #594837",
"z  c #5B4738",
"x  c #5E4B3C",
"c  c #63432C",
"v  c #69462E",
"b  c #67482D",
"n  c #6B492E",
"m  c #714A2F",
"M  c #644631",
"N  c #694730",
"B  c #644933",
"V  c #6C4B31",
"C  c #644C3A",
"Z  c #724E32",
"A  c #794F32",
"S  c #6A523E",
"D  c #745134",
"F  c #7B5435",
"G  c #7E5837",
"H  c #775438",
"J  c #7B5639",
"K  c #7E593A",
"L  c #494949",
"P  c #514E47",
"I  c #565347",
"U  c #55544C",
"Y  c #58564F",
"T  c #565655",
"R  c #5A5956",
"E  c #5A5A59",
"W  c #665141",
"Q  c #6B5443",
"!  c #6F5945",
"~  c #715744",
"^  c #705847",
"/  c #76624F",
"(  c #696657",
")  c #676459",
"_  c #726352",
"`  c #776558",
"'  c #757160",
"]  c #76746B",
"[  c #777777",
"{  c #805736",
"}  c #815837",
"|  c #825739",
" . c #835B3B",
".. c #8A5F3C",
"X. c #85603C",
"o. c #8C613C",
"O. c #875E40",
"+. c #8E6444",
"@. c #827161",
"#. c #928470",
"$. c #998D79",
"%. c #838383",
"&. c #8C8B84",
"*. c #908F8C",
"=. c #989382",
"-. c #91908E",
";. c #909090",
":. c #9B9B9B",
">. c #A99E87",
",. c #ACA38D",
"<. c #B9AB8F",
"1. c #AFAC9A",
"2. c #B2A790",
"3. c #B7AF96",
"4. c #B7B097",
"5. c #B7B19B",
"6. c #BAB39D",
"7. c #A6A6A6",
"8. c #A8A8A6",
"9. c #B0AFA7",
"0. c #B6B2A3",
"q. c #BBB5A2",
"w. c #BEBAA4",
"e. c #B4B2AC",
"r. c #B8B6AD",
"t. c #BFBCAD",
"y. c #B3B3B2",
"u. c #BCBAB4",
"i. c #BBBBBA",
"p. c #C1B498",
"a. c #C4BD9F",
"s. c #C2BCA4",
"d. c #C3BDA9",
"f. c #C8BFAB",
"g. c #C2BEB3",
"h. c #C1BEBA",
"j. c #C7C0A6",
"k. c #C9C2A6",
"l. c #CEC8A6",
"z. c #C6C0A9",
"x. c #CAC4AC",
"c. c #CEC9AD",
"v. c #D1C5A3",
"b. c #D3CBA7",
"n. c #D3CBAA",
"m. c #D8CFAD",
"M. c #D9D1AD",
"N. c #C5C1B3",
"B. c #CBC5B4",
"V. c #CEC9B2",
"C. c #C3C2BB",
"Z. c #C9C6BC",
"A. c #CCC9BB",
"S. c #D4CDB3",
"D. c #D8CFB0",
"F. c #D3CFBA",
"G. c #D7D0B6",
"H. c #DBD3B5",
"J. c #D6D1BC",
"K. c #DCD5BB",
"L. c #DFD9BD",
"P. c #E0D7B4",
"I. c #E3DAB5",
"U. c #E2DBBC",
"Y. c #E9DFBD",
"T. c #E7E0BD",
"R. c #ECE3BF",
"E. c #C5C4C3",
"W. c #C9C7C1",
"Q. c #CBCAC5",
"!. c #CCCCCB",
"~. c #D1CFCC",
"^. c #D5D2C1",
"/. c #DBD5C3",
"(. c #DED9C4",
"). c #D4D2CC",
"_. c #D9D6CD",
"`. c #DEDACC",
"'. c #D4D4D3",
"]. c #D9D7D3",
"[. c #DCDBD4",
"{. c #DDDDDC",
"}. c #E3DCC3",
"|. c #E8DFC0",
" X c #E3DDCB",
".X c #E1DED4",
"XX c #E0DFDB",
"oX c #E7E0C4",
"OX c #EAE3C5",
"+X c #E6E1CB",
"@X c #EAE4CB",
"#X c #EFE9CD",
"$X c #F1EACC",
"%X c #E5E1D4",
"&X c #EAE6D3",
"*X c #EDE9D4",
"=X c #E2E1DD",
"-X c #EAE6D9",
";X c #ECE8DA",
":X c #F0EBD4",
">X c #E1E1E1",
/* pixels */
"s u ; . y g s u c u s s u w 2 O 6 i s s s u a 6 - . i b g u u s e , * + u d u s u u a g y , X 3 g i u c i g a u 1 . 1 u u u i s ",
"s i - . 8 s i u d u s p s 0 , X < s s s s u i 6 & X w s g g s i s w ; o u u y i s a i d a , . ; w u s c s i i w ; . 1 g i u y s ",
"a w , . y u u c s s d s s u ; o 1 s g s c s i 9 - o w s u u s y y 2 : X u s u y y u s u y 1 O , i s y i s u y w > X 3 c u s i b ",
"u w -   8 c s s s d k s s w , O 6 c g f s y s 6 = o w u g s y y y 3 ; . i i s s a y y a i , O > i u u a g s y 9 > . 3 f y s i u ",
"s y - . 7 i i u u s g i s w ; O q s s c s d u 9 ; . 8 s i s g i w 2 ; O y i w i y s s y p 2 O 1 s s s c s s s y : . 2 i s u i s ",
"i 8 : . w s s i u s i i e u , O 2 s u i i i u w - o y s g s i y u 6 ; # u v i d s i a s i 1 O ; u i a y i u i i , X 2 i u i s s ",
"u y - . w c s s s i u y e w , O w c a u g i w w > o w g s s s s s 6 - & i s s d f e y g i 1 + 1 s s u u u u u w 2 X 2 s c s s g ",
"u w ; . y i c i i u u u e q > O 6 c s u i g a 6 - o q g s u u d i 6 & & g i i i y e u g u 2 + : i c s g i i s i , o < c d s u u ",
"u w * . u s u a d d s s k y : + 6 i p y s e y 9 : o 7 c a w s a i w & & i y i u g c u i i < & ; y i e i s i y w , X < c s u u y ",
"d y ; . w i i i u s s c d y ; = 6 c a s s a w w ; . 6 i a i c s i 6 = & s c g s s s w a u 3 + : w s w u g s s 8 ; X 3 i y u w i ",
"c w ; o s g u u u a s a a 9 - # w s u g c s s y : o 6 s s s c g s 6 : o i n u y s i w u a 6 = , e s g s g s s u , o 2 c g i i i ",
"a e ; . e s g s c s d c y w > = w s s i s w s y ; O 9 s c s g s u w - * g c M g s u i i i 6 # * y a s s g a w u 2 X 2 d i u g c ",
"u y ; . u c i s u s g i a w ; # w a y s i u y 8 1 X 6 c c u u g s 8 - # s n s a u y s s y 3 & , u i c s p a y u 2 o 3 s g g u c ",
"s u 1 X p s u c i f i y s w ; @ 0 s s s s a u s 2 X 6 c c e g s i y : @ u c g i u s i g i 9 - - y s c s s g i u , o 2 u a e u g ",
"g c q * c b c g B n n v s u , , d b n Z b c s s e & s b n V b s g c 9 - c Z N g c g b b s a 1 , d c g b d b c c w * w V b c V V ",
"n D D V }  .J } K K }  .n Z b V  .J F  .| J D { Z V +. .J H K }  .J D N  .} K Z G G H } D H D D } | G G G |  .F H D ....J  .} H ",
"H  .H K O.}  .K  .| J F F }  .X...G  . .F G J Z H J G J K D Z J A | D G F  .J F { G J G D Z ..}  .H }  .{ } G G D } o.o. .F K K ",
"b Z g g V V V Z Z v n Z Z c c c n c m v n n b c a f n n c n n n n n s s c m m m Z V n V V b u i N N V H m m c b a s c D n c n V ",
"a u 3 ; w c B c s u p s u 7 , 3 u y u u y y y u , - w g i i f f d s < ; u c s s s c g s y y 2 ; e s d g u u u y 1 - 8 s c s s g ",
"u w , O 7 u i s s e y d y 6 # ; y y s c y y 8 y - . 3 c y i s g s s ; O 8 f u a y g i a u w - # 6 p s c s u u e ; X 6 c u i y i ",
"s 9 , O y g i u s y s s y 6 & ; e b s a i e g y 1 O 6 g g i i c s y ; X u c u w e d u u s y - & 9 V s u s u g y , X 2 d s s d y ",
"a w ; X e c c c c d e s s 3 # ; u c i i g i c y 1 X 3 g b s s a y w ; . y g s a s s d i d w : @ w s u s i u i a , o 6 c b c i s ",
"s w , O e c c g a k s N s 6 $ 1 s N s i i i g y 1 $ 3 a a g g a c u , o w N s s s s c c g w > + 6 s s s u u s w ; O 7 V g b c c ",
"a e , # y B B B a g p s g 6 = , c s s a s a k s 3 $ q M M k g g g p 6 # 3 a p s a k N c M s 4 = 3 a k M s u s y , O < c g i c g ",
"B k e 4 l ! ^ ! ! Q ~ S B a 4 9 a j B B k k C x j 5 j x C W Q ` @.` I r r a k C C Q ^ Q Q C k t j z x C k k a w 3 , q i g B C / ",
"OX+XOX X X X`. X(. X X/. X X X X^././.^.S.A.J.J.A.B.g.N.N.N.N.u.0.8.0.q.w.d.x.N.B.A.Z.N.d.q.d.g.B.B.x.f.5.2.s.H.H.M.D.M.v.p.<.p.",
" X/.^.^.Q.A.E.Q.W.h.u.r.9.9.r.i.u.h.C.Z.A.A.Z.Z.h.h.C.!.).).).W.u.9.N.J.J.G.Z.g.i.i.E.i.h.i.h.u.h.N.h.Z.Z.F.K.H.H.P.H.I.U.U.M.m.",
"+X X/.~.!.!.!.~.!.E.E.i.y.y.i.i.C.h.C.h.u.u.y.y.9.'.~.'.{.{.E.y.8.u.A.;X&X[._.).E.E.!.'.!.Q.h.E.E.!.Q.E.i.A. X(.K.H.H.K.P.I.Y.P.",
"}.}. X=X=XXX>XXX>X{.{.'.'.'.'.'.{.'.{.'.T         % E.{.{.>XE     !.).-X=X=X=XXX>X{.{.>X{.{.{.{.{.{.>X{.'.].%X^.U.P.P.I.I.U.P.I.",
"}. X.X=X>X>X>X>X>X>X>X>X{.{.>X>X>X>X>X>XE     5     [ >X>X>X7.;.;.{.{.=X!.u.i.].E.E.>X>X>X>X{.>X>X>X>X>X>X=X.X(.K.U.U.Y.R.I.Y.I.",
"+X X.X=X>X>X>X>X>X>X>X>X>X{.>X>X>X>X>X>XE     i.    E >X>X>XE     >X{.>X-.    L     ;.>X>X>X>X>X>X>X>X>X>X>X=X X}.H.H.U.P.m.P.m.",
"/.oX%X.X=X>X>X>X>X>X>X>X>X>X>X>X>X>X>X>XE     y.    E >X>X>XE     {.{.=X-.    :.    E >X>X>X>X>X>X>X>X>X>X=X[./.(.H.n.H.b.b.l.a.",
"}.K. X X%XXX>X=X>X>X>X{.{.].=X>X>X>X>X=XE         % y.>X>X{.E     {.{.=X*.    i.    E >X>X{.{.>X>X>X>X>X=X{._.(./.D.k.b.H.v.m.n.",
"}.L.L.+X`.[.%XXX{.{.{.{.'.].{.=X=XXXXX=XE     5   % 9.>X>X{.T     '.].=X*.    u.    R {.=X].'.'.{.>X>X{.XX[.(.K.+XP.c.P.I.I.U.Y.",
"K.U.U.(.@X}._.`.`.=X{.{.'.'.[.[.[..X%X`.T     i.    E >X>X{.T     '.{.=X&.    u.    R =X=X].!.!.].=X=X%X X`.(.K.K.I.U.I.U.}.U.M.",
"L.L.oXT.}.@X(.`.[.%X>X>X>X{.{.[. X/. X XY     i.    E =X>X{.E     >X>X{.&.    0.  . R [.{.{.'.Q.].%X%X+X X+XU.U.R.R.U.K.U.OXU.P.",
"oXOXU.oXOXOX}./.`.=X=X=X>X{.{.-X&X+X}.}.I     u.    E >X>X>XE     >XXX=X&.    1.    T [.{.>X{.'.).%X X}.+XY.}.H.Y.I.OXM.H.U.R.OX",
"/.K.H.K.G.j.c.J._.{.>X>X>X{.{.[.(.K./.}.I     e.    E >X>X>XE     >X>XXX&.    h     ] [.>X>X{.'.). XOXL.H.D.H.K.H.}.H.U.I.OXR.Y.",
"H.L.K.oXL.K.(.`._.>X>X>X{.'.'.`.J.F.s.l.' P U u.T T %.>X>X>X%.E E {.{.=X&.    =.( ) t.[.{.{.'.Q.~.+X}.(.K.H.H.m.I.oXP.M.}.P.R.OX",
"I.L.@XoXOXOXOX@X-X-X{.{.'.Q.]. XH.F.H.D.x.F.F.(.XX{.>X>X>X>X>X>X{.{.[.-X&.    s.T.U.(.`..XXX).). X+XOXK.U.I.U.U.H.P.H.H. XR.+X|.",
"@XI.I.}.}.Y.L. X&X%X=XXX)._.-X@XL.}.}.U.OX@XT.+X`..XXX=X=X=X=X=X=X=X-X+X`.(.}.OX@XoX X+X-X;X-X&X+X$XI.OX|.U.H.Y.U.U.U.K.T.}.OXOX",
"U.@XoX$X$XOXK. X@X;X&X X&X*X&X X+X}.}.+XL.}.}.L./. X%X%X=X.X=X%X[.&X*X*XK.S.H.R.L.oX X(.&X@X#X X&XOX+X XU.U.}.(.}.}.H.(.}.+XOXOX",
"@XoX(.OX$X#XOX}.}.+X@X+X+X*XU.}.K.H.K.D.c.K.}.(.K.^.+X%X+X`. X%X+X:X+X#X}.K.U.OX}.oXL.OX#X@X+X/.U.OXT.U. XY.U.}.U.U.K.K.oX+X@XU.",
"L.K.K.U.oX}.OX}.}.(.K.(.K.}.}.}.}.Y.U.K.K.H.F.H.}.(.L.oX@X#X#X#X|.}.U.U.G.K.U.K.G.D.S.H.U.K.G.H.K.U.U.U.U.L.K.U.U.U.U.OXoXOXOX}.",
",.$.#.2.k.k.d.d.s.s.s.k.B.V.s.a.s.d.k.s.j.z.j.s.w.z.w.z.z.z.V.x.d.q.0.5.3.5.3.,.>.,.4.6.s.5.6.s.s.s.s.d.d.w.q.6.q.0.5.w.w.s.d.s.",
"a r q w g s g g k B S ~ / _ t 2 w u a s a u w w 1 > 3 i p g a u y 9 2 = y a a u s i a g w 6 , : u c s s s y w 9 , = 9 i s g i g ",
"w q : # s c g s s s g u y 3 > , y c s s s s s u - X < u g c s s y w ; O i s s c i c g p g 0 = - 0 c a y a s s 8 , X 3 g s g u i ",
"a w ; o u M a u y u u i u w - - u g c k s i g w & . 3 i g a c c d 0 ; X u c s c g c c s u 0 & = w s s y w y y 6 ; o 2 w w y y w ",
"i y ; X g c u g g a a y i 3 = & y s c i i i s y ; . 6 u i u y i i s ; X y N u s g c a s s 6 - # w a s w s y a w ; . 3 s s s w u ",
"c w ; X a c a d u s s M s w - & y d g u s u s 7 ; . 8 y u u u s g u ; X a d u s d s s c c 7 = # y c i c c b s w , . 9 N d a s a ",
"a y ; O w c s s i i g s u 3 ; & y y i i i a s w 1 X < y s u c i c u : X u d a u s M c s s 9 ; = 8 s s s i u g i , X 3 g c s d s ",
"s u : X y c s c s s s a u e ; # 8 i d u g b i y > X 9 u s c b b c y ; o s s u u s s g s s 6 $ ; y g g s u u y u 1 . 3 d c c s s ",
"M s 6 & N V c i i s c c g u 6 > u c g c n v v s 7 # u g c f b b s s 1 & c v c c d N s s c w 1 > i n g c v c i s 7 + 7 c c c c s ",
"Z N N c V V c n V D V Z m G V D H G F m J H N b g c G A A X.H K Z Z s s H | D Z J J Z F Z b c D K H Z F G D D F v i n G Z H F D ",
"Z Z F D J Z Z F J X.X.G F F D J J } F G { F Z v c A F D G o.o.G J D ..K  .F | J  . .A  .J } G G X. .} F H F  .{ G A  .o. .K  . .",
"D b c c v F Z H G H m F D n b s V Z n Z D V c b f c D m G } K Z D D V D { | Z D A  .J | K V V V F Z G n F Z F Z n c m F D m m F ",
"c u 2 ; u c c i f s i g g e < ; w i c i g e y w 2 * y s D B c n N u 8 7 c c n g c M g b c 8 3 u c n v c g B c c 6 1 u v c s n n ",
"e e , o w i u s i s i c u u ; O 2 d y u i u y e ; o 8 c s u u i s q ; # e u s g s a s s u 2 @ 1 u u s s u u u u : o 6 s y u c g ",
"s w - . a c s s g c u c i y , o 6 s a s u c u q - X w c a a i i c 6 , X i i i i s u c g u > @ 1 s y s u y i a s , O 3 u u s s g ",
"u y ; . w d d s g g s c d u , O 6 b c g i g i 6 - o w g s s u u a q , + i d s a u c s i u 1 o , c g s y g g u u 3 X 3 s c s i u ",
"y y : . s N d a i s i s g e < o 6 u i d s u e 9 * X e c s s u a u 8 : X s i s u g a g g y 1 o , s s c i i a i u 1 X 6 d g g a s ",
"b y : . w c s d u c y s g u : o 6 v u i i s i q & . y s g g s g s y : X i s i a a i s g u , X 2 i i i s i g u e 1 . 3 s u s c s ",
"s a - . w m a s s i i a y w < o 6 c s s M i w 6 ; X i b u c u c c w 2 & i s s i i u u c u 2 o 2 c i g y i u g u , X q i s a s s ",
"s 0 - . w s u u u s i i i y , X 6 c s p s d y 6 ; O w s u g i s g y , o y i c s s g c g s > . < c s i s i a a i 1 . 2 s g g b u "
};
